SplineFontDB: 3.0
FontName: Distinguish-SemiBold
FullName: Distinguish SemiBold
FamilyName: Distinguish
Weight: SemiBold
Copyright: Copyright 2015 Google Inc. All Rights Reserved.
Version: 2.000;GOOG;noto-source:20170915:90ef993387c0; ttfautohint (v1.7)
ItalicAngle: 0
UnderlinePosition: -125
UnderlineWidth: 50
Ascent: 800
Descent: 200
InvalidEm: 0
sfntRevision: 0x00020000
LayerCount: 2
Layer: 0 1 "Back" 1
Layer: 1 1 "Fore" 0
XUID: [1021 269 1684064080 1232179]
StyleMap: 0x0000
FSType: 0
OS2Version: 4
OS2_WeightWidthSlopeOnly: 1
OS2_UseTypoMetrics: 0
CreationTime: 1458096639
ModificationTime: 1516679012
PfmFamily: 17
TTFWeight: 600
TTFWidth: 5
LineGap: 0
VLineGap: 0
Panose: 2 11 7 2 4 5 4 2 2 4
OS2TypoAscent: 1069
OS2TypoAOffset: 0
OS2TypoDescent: -293
OS2TypoDOffset: 0
OS2TypoLinegap: 0
OS2WinAscent: 1069
OS2WinAOffset: 0
OS2WinDescent: 293
OS2WinDOffset: 0
HheadAscent: 1069
HheadAOffset: 0
HheadDescent: -293
HheadDOffset: 0
OS2SubXSize: 650
OS2SubYSize: 600
OS2SubXOff: 0
OS2SubYOff: 75
OS2SupXSize: 650
OS2SupYSize: 600
OS2SupXOff: 0
OS2SupYOff: 350
OS2StrikeYSize: 50
OS2StrikeYPos: 322
OS2CapHeight: 714
OS2XHeight: 536
OS2Vendor: 'GOOG'
OS2CodePages: 00000000.00000000
OS2UnicodeRanges: e00002ff.4000001f.08000029.00100000
Lookup: 1 0 0 "'aalt' Access All Alternates lookup 0" { "'aalt' Access All Alternates lookup 0 subtable"  } ['aalt' ('DFLT' <'dflt' > 'cyrl' <'dflt' > 'grek' <'dflt' > 'latn' <'CAT ' 'MAH ' 'MOL ' 'NAV ' 'ROM ' 'dflt' > ) ]
Lookup: 3 0 0 "'aalt' Access All Alternates lookup 1" { "'aalt' Access All Alternates lookup 1 subtable"  } ['aalt' ('DFLT' <'dflt' > 'cyrl' <'dflt' > 'grek' <'dflt' > 'latn' <'CAT ' 'MAH ' 'MOL ' 'NAV ' 'ROM ' 'dflt' > ) ]
Lookup: 4 0 0 "'ccmp' Glyph Composition/Decomposition lookup 2" { "'ccmp' Glyph Composition/Decomposition lookup 2 subtable"  } ['ccmp' ('DFLT' <'dflt' > 'cyrl' <'dflt' > 'grek' <'dflt' > 'latn' <'CAT ' 'MAH ' 'MOL ' 'NAV ' 'ROM ' 'dflt' > ) ]

StartChar: .notdef
Encoding: 65536 -1 0
Width: 600
Flags: W
LayerCount: 2
Fore
SplineSet
94 0 m 1,0,-1
 94 714 l 1,1,-1
 505 714 l 1,2,-1
 505 0 l 1,3,-1
 94 0 l 1,0,-1
145 51 m 1,4,-1
 454 51 l 1,5,-1
 454 663 l 1,6,-1
 145 663 l 1,7,-1
 145 51 l 1,4,-1
EndSplineSet
EndChar

StartChar: exclam
Encoding: 33 33 4
Width: 280
Flags: W
LayerCount: 2
Fore
SplineSet
188 223 m 1,0,-1
 92 223 l 1,1,-1
 67 714 l 1,2,-1
 213 714 l 1,3,-1
 188 223 l 1,0,-1
63 64 m 0,4,5
 63 106 63 106 85.5 123.5 c 128,-1,6
 108 141 108 141 140 141 c 0,7,8
 171 141 171 141 193.5 123.5 c 128,-1,9
 216 106 216 106 216 64 c 0,10,11
 216 23 216 23 193.5 5 c 128,-1,12
 171 -13 171 -13 140 -13 c 0,13,14
 108 -13 108 -13 85.5 5 c 128,-1,15
 63 23 63 23 63 64 c 0,4,5
EndSplineSet
Substitution2: "'smcp' Lowercase to Small Capitals lookup 34 subtable" exclam.sc
Substitution2: "'c2sc' Capitals to Small Capitals lookup 33 subtable" exclam.sc
EndChar

StartChar: quotedbl
Encoding: 34 34 5
Width: 448
Flags: W
LayerCount: 2
Fore
SplineSet
186 714 m 1,0,-1
 166 456 l 1,1,-1
 85 456 l 1,2,-1
 65 714 l 1,3,-1
 186 714 l 1,0,-1
383 714 m 1,4,-1
 363 456 l 1,5,-1
 282 456 l 1,6,-1
 262 714 l 1,7,-1
 383 714 l 1,4,-1
EndSplineSet
EndChar

StartChar: numbersign
Encoding: 35 35 6
Width: 646
Flags: W
LayerCount: 2
Fore
SplineSet
485 421 m 1,0,-1
 459 290 l 1,1,-1
 589 290 l 1,2,-1
 589 202 l 1,3,-1
 442 202 l 1,4,-1
 403 0 l 1,5,-1
 310 0 l 1,6,-1
 349 202 l 1,7,-1
 236 202 l 1,8,-1
 198 0 l 1,9,-1
 106 0 l 1,10,-1
 143 202 l 1,11,-1
 23 202 l 1,12,-1
 23 290 l 1,13,-1
 160 290 l 1,14,-1
 186 421 l 1,15,-1
 59 421 l 1,16,-1
 59 509 l 1,17,-1
 202 509 l 1,18,-1
 241 713 l 1,19,-1
 334 713 l 1,20,-1
 296 509 l 1,21,-1
 410 509 l 1,22,-1
 449 713 l 1,23,-1
 540 713 l 1,24,-1
 502 509 l 1,25,-1
 622 509 l 1,26,-1
 622 421 l 1,27,-1
 485 421 l 1,0,-1
252 290 m 1,28,-1
 366 290 l 1,29,-1
 392 421 l 1,30,-1
 278 421 l 1,31,-1
 252 290 l 1,28,-1
EndSplineSet
EndChar

StartChar: dollar
Encoding: 36 36 7
Width: 572
Flags: W
LayerCount: 2
Fore
SplineSet
253 -58 m 1,0,-1
 253 43 l 1,1,2
 192 44 192 44 140.5 54.5 c 128,-1,3
 89 65 89 65 51 82 c 1,4,-1
 51 194 l 1,5,6
 89 176 89 176 145 161 c 128,-1,7
 201 146 201 146 253 144 c 1,8,-1
 253 314 l 1,9,10
 180 340 180 340 135.5 366.5 c 128,-1,11
 91 393 91 393 70.5 427.5 c 128,-1,12
 50 462 50 462 50 510 c 0,13,14
 50 585 50 585 106 628.5 c 128,-1,15
 162 672 162 672 253 679 c 1,16,-1
 253 759 l 1,17,-1
 319 759 l 1,18,-1
 319 681 l 1,19,20
 374 679 374 679 421 668.5 c 128,-1,21
 468 658 468 658 511 639 c 1,22,-1
 472 540 l 1,23,24
 435 555 435 555 395.5 564.5 c 128,-1,25
 356 574 356 574 319 577 c 1,26,-1
 319 411 l 1,27,28
 378 392 378 392 425 369 c 128,-1,29
 472 346 472 346 499.5 311.5 c 128,-1,30
 527 277 527 277 527 222 c 0,31,32
 527 150 527 150 474.5 103 c 128,-1,33
 422 56 422 56 319 46 c 1,34,-1
 319 -58 l 1,35,-1
 253 -58 l 1,0,-1
253 436 m 1,36,-1
 253 575 l 1,37,38
 174 566 174 566 174 513 c 0,39,40
 174 485 174 485 192 468 c 128,-1,41
 210 451 210 451 253 436 c 1,36,-1
319 148 m 1,42,43
 403 160 403 160 403 215 c 0,44,45
 403 242 403 242 383.5 258 c 128,-1,46
 364 274 364 274 319 290 c 1,47,-1
 319 148 l 1,42,43
EndSplineSet
EndChar

StartChar: percent
Encoding: 37 37 8
Width: 875
Flags: W
LayerCount: 2
Fore
SplineSet
197 724 m 0,0,1
 277 724 277 724 319 665.5 c 128,-1,2
 361 607 361 607 361 501 c 256,3,4
 361 395 361 395 321.5 335.5 c 128,-1,5
 282 276 282 276 197 276 c 0,6,7
 119 276 119 276 78.5 335.5 c 128,-1,8
 38 395 38 395 38 501 c 256,9,10
 38 607 38 607 76 665.5 c 128,-1,11
 114 724 114 724 197 724 c 0,0,1
686 714 m 1,12,-1
 290 0 l 1,13,-1
 188 0 l 1,14,-1
 584 714 l 1,15,-1
 686 714 l 1,12,-1
198 637 m 0,16,17
 142 637 142 637 142 500 c 256,18,19
 142 363 142 363 198 363 c 0,20,21
 256 363 256 363 256 500 c 256,22,23
 256 637 256 637 198 637 c 0,16,17
674 439 m 0,24,25
 754 439 754 439 795.5 380.5 c 128,-1,26
 837 322 837 322 837 216 c 256,27,28
 837 110 837 110 798 50.5 c 128,-1,29
 759 -9 759 -9 674 -9 c 0,30,31
 595 -9 595 -9 554.5 50.5 c 128,-1,32
 514 110 514 110 514 216 c 256,33,34
 514 322 514 322 552.5 380.5 c 128,-1,35
 591 439 591 439 674 439 c 0,24,25
674 351 m 0,36,37
 618 351 618 351 618 215 c 0,38,39
 618 77 618 77 674 77 c 0,40,41
 733 77 733 77 733 215 c 0,42,43
 733 351 733 351 674 351 c 0,36,37
EndSplineSet
EndChar

StartChar: ampersand
Encoding: 38 38 9
Width: 743
Flags: W
LayerCount: 2
Fore
SplineSet
308 724 m 0,0,1
 392 724 392 724 445 684 c 128,-1,2
 498 644 498 644 498 570 c 0,3,4
 498 503 498 503 457 457 c 128,-1,5
 416 411 416 411 355 376 c 1,6,-1
 514 222 l 1,7,8
 536 254 536 254 551.5 293 c 128,-1,9
 567 332 567 332 578 373 c 1,10,-1
 708 373 l 1,11,12
 692 314 692 314 665 253.5 c 128,-1,13
 638 193 638 193 596 143 c 1,14,-1
 742 0 l 1,15,-1
 583 0 l 1,16,-1
 515 66 l 1,17,18
 470 32 470 32 416 11 c 128,-1,19
 362 -10 362 -10 291 -10 c 0,20,21
 176 -10 176 -10 110.5 44 c 128,-1,22
 45 98 45 98 45 190 c 0,23,24
 45 266 45 266 82.5 312 c 128,-1,25
 120 358 120 358 185 395 c 1,26,27
 148 437 148 437 128 476 c 128,-1,28
 108 515 108 515 108 563 c 0,29,30
 108 638 108 638 163 681 c 128,-1,31
 218 724 218 724 308 724 c 0,0,1
306 626 m 0,32,33
 274 626 274 626 250.5 609.5 c 128,-1,34
 227 593 227 593 227 557 c 0,35,36
 227 528 227 528 242 502 c 128,-1,37
 257 476 257 476 283 447 c 1,38,39
 332 474 332 474 355.5 500 c 128,-1,40
 379 526 379 526 379 560 c 0,41,42
 379 592 379 592 357 609 c 128,-1,43
 335 626 335 626 306 626 c 0,32,33
259 319 m 1,44,45
 221 294 221 294 199 267 c 128,-1,46
 177 240 177 240 177 200 c 0,47,48
 177 153 177 153 211 125 c 128,-1,49
 245 97 245 97 298 97 c 0,50,51
 342 97 342 97 377 110 c 128,-1,52
 412 123 412 123 438 143 c 1,53,-1
 259 319 l 1,44,45
EndSplineSet
Substitution2: "'smcp' Lowercase to Small Capitals lookup 34 subtable" ampersand.sc
Substitution2: "'c2sc' Capitals to Small Capitals lookup 33 subtable" ampersand.sc
EndChar

StartChar: quotesingle
Encoding: 39 39 10
Width: 251
Flags: W
LayerCount: 2
Fore
SplineSet
186 714 m 1,0,-1
 166 456 l 1,1,-1
 85 456 l 1,2,-1
 65 714 l 1,3,-1
 186 714 l 1,0,-1
EndSplineSet
EndChar

StartChar: parenleft
Encoding: 40 40 11
Width: 324
Flags: W
LayerCount: 2
Fore
SplineSet
40 274 m 0,0,1
 40 396 40 396 75.5 509.5 c 128,-1,2
 111 623 111 623 187 714 c 1,3,-1
 294 714 l 1,4,5
 226 620 226 620 190.5 507 c 128,-1,6
 155 394 155 394 155 275 c 0,7,8
 155 159 155 159 190.5 47 c 128,-1,9
 226 -65 226 -65 293 -158 c 1,10,-1
 187 -158 l 1,11,12
 111 -70 111 -70 75.5 41.5 c 128,-1,13
 40 153 40 153 40 274 c 0,0,1
EndSplineSet
Substitution2: "'smcp' Lowercase to Small Capitals lookup 34 subtable" parenleft.sc
Substitution2: "'c2sc' Capitals to Small Capitals lookup 33 subtable" parenleft.sc
Substitution2: "'sups' Superscript lookup 19 subtable" uni207D
Substitution2: "'subs' Subscript lookup 18 subtable" uni208D
EndChar

StartChar: parenright
Encoding: 41 41 12
Width: 324
Flags: W
LayerCount: 2
Fore
SplineSet
284 274 m 0,0,1
 284 153 284 153 248.5 41.5 c 128,-1,2
 213 -70 213 -70 137 -158 c 1,3,-1
 31 -158 l 1,4,5
 99 -65 99 -65 134.5 47 c 128,-1,6
 170 159 170 159 170 275 c 0,7,8
 170 394 170 394 134.5 507 c 128,-1,9
 99 620 99 620 30 714 c 1,10,-1
 137 714 l 1,11,12
 213 623 213 623 248.5 509.5 c 128,-1,13
 284 396 284 396 284 274 c 0,0,1
EndSplineSet
Substitution2: "'smcp' Lowercase to Small Capitals lookup 34 subtable" parenright.sc
Substitution2: "'c2sc' Capitals to Small Capitals lookup 33 subtable" parenright.sc
Substitution2: "'sups' Superscript lookup 19 subtable" uni207E
Substitution2: "'subs' Subscript lookup 18 subtable" uni208E
EndChar

StartChar: asterisk
Encoding: 42 42 13
Width: 547
Flags: W
LayerCount: 2
Fore
SplineSet
331 760 m 1,0,-1
 311 575 l 1,1,-1
 496 628 l 1,2,-1
 512 516 l 1,3,-1
 339 503 l 1,4,-1
 452 353 l 1,5,-1
 350 299 l 1,6,-1
 271 460 l 1,7,-1
 200 299 l 1,8,-1
 95 353 l 1,9,-1
 206 503 l 1,10,-1
 35 517 l 1,11,-1
 52 628 l 1,12,-1
 234 575 l 1,13,-1
 214 760 l 1,14,-1
 331 760 l 1,0,-1
EndSplineSet
EndChar

StartChar: plus
Encoding: 43 43 14
Width: 572
Flags: W
LayerCount: 2
Fore
SplineSet
332 399 m 1,0,-1
 525 399 l 1,1,-1
 525 306 l 1,2,-1
 332 306 l 1,3,-1
 332 111 l 1,4,-1
 238 111 l 1,5,-1
 238 306 l 1,6,-1
 46 306 l 1,7,-1
 46 399 l 1,8,-1
 238 399 l 1,9,-1
 238 596 l 1,10,-1
 332 596 l 1,11,-1
 332 399 l 1,0,-1
EndSplineSet
Substitution2: "'sups' Superscript lookup 19 subtable" uni207A
Substitution2: "'subs' Subscript lookup 18 subtable" uni208A
EndChar

StartChar: comma
Encoding: 44 44 15
Width: 279
Flags: W
LayerCount: 2
Fore
SplineSet
205 116 m 1,0,-1
 212 105 l 1,1,2
 198 52 198 52 174.5 -11 c 128,-1,3
 151 -74 151 -74 126 -129 c 1,4,-1
 35 -129 l 1,5,6
 49 -70 49 -70 62.5 -3 c 128,-1,7
 76 64 76 64 84 116 c 1,8,-1
 205 116 l 1,0,-1
EndSplineSet
EndChar

StartChar: hyphen
Encoding: 45 45 16
Width: 322
Flags: W
LayerCount: 2
Fore
SplineSet
34 215 m 1,0,-1
 34 321 l 1,1,-1
 288 321 l 1,2,-1
 288 215 l 1,3,-1
 34 215 l 1,0,-1
EndSplineSet
EndChar

StartChar: period
Encoding: 46 46 17
Width: 279
Flags: W
LayerCount: 2
Fore
SplineSet
63 64 m 0,0,1
 63 106 63 106 85.5 123.5 c 128,-1,2
 108 141 108 141 139 141 c 256,3,4
 170 141 170 141 193 123.5 c 128,-1,5
 216 106 216 106 216 64 c 0,6,7
 216 23 216 23 193 5 c 128,-1,8
 170 -13 170 -13 139 -13 c 256,9,10
 108 -13 108 -13 85.5 5 c 128,-1,11
 63 23 63 23 63 64 c 0,0,1
EndSplineSet
EndChar

StartChar: slash
Encoding: 47 47 18
Width: 398
Flags: W
LayerCount: 2
Fore
SplineSet
391 714 m 1,0,-1
 125 0 l 1,1,-1
 8 0 l 1,2,-1
 274 714 l 1,3,-1
 391 714 l 1,0,-1
EndSplineSet
Substitution2: "'frac' Diagonal Fractions lookup 22 subtable" fraction
EndChar

StartChar: zero
Encoding: 48 48 19
Width: 600
Flags: WO
LayerCount: 2
Fore
SplineSet
301 -10 m 4,0,1
 173 -10 173 -10 113.5 86 c 132,-1,2
 54 182 54 182 54 360 c 4,3,4
 54 536 54 536 112 630 c 132,-1,5
 170 724 170 724 298 724 c 260,6,7
 426 724 426 724 486 628 c 132,-1,8
 546 532 546 532 546 354 c 4,9,10
 546 244 546 244 522 162 c 132,-1,11
 498 80 498 80 444.5 35 c 132,-1,12
 391 -10 391 -10 301 -10 c 4,0,1
173 354 m 4,13,14
 173 296 173 296 178 253 c 5,15,-1
 377 584 l 5,16,17
 347 619 347 619 299 619 c 4,18,19
 230 619 230 619 201.5 552 c 132,-1,20
 173 485 173 485 173 354 c 4,13,14
299 93 m 4,21,22
 369 93 369 93 398 157.5 c 132,-1,23
 427 222 427 222 427 353 c 4,24,25
 427 424 427 424 419 475 c 5,26,-1
 214 136 l 5,27,28
 244 93 244 93 299 93 c 4,21,22
EndSplineSet
Substitution2: "'zero' Slashed Zero lookup 37 subtable" zero.slash
Substitution2: "'case' Case-Sensitive Forms lookup 35 subtable" zero.lf
Substitution2: "'onum' Oldstyle Figures lookup 32 subtable" zero.tosf
Substitution2: "'pnum' Proportional Numbers lookup 30 subtable" zero.lf
Substitution2: "'frac' Diagonal Fractions lookup 23 subtable" zero.numr
Substitution2: "'dnom' Denominators lookup 21 subtable" zero.dnom
Substitution2: "'numr' Numerators lookup 20 subtable" zero.numr
Substitution2: "'sups' Superscript lookup 19 subtable" uni2070
Substitution2: "'subs' Subscript lookup 18 subtable" uni2080
EndChar

StartChar: one
Encoding: 49 49 20
Width: 572
Flags: W
LayerCount: 2
Fore
SplineSet
391 0 m 1,0,-1
 265 0 l 1,1,-1
 265 445 l 2,2,3
 265 477 265 477 266 513 c 128,-1,4
 267 549 267 549 269 580 c 1,5,6
 259 570 259 570 244.5 556 c 128,-1,7
 230 542 230 542 213 529 c 2,8,-1
 133 465 l 1,9,-1
 70 543 l 1,10,-1
 286 714 l 1,11,-1
 391 714 l 1,12,-1
 391 0 l 1,0,-1
EndSplineSet
Substitution2: "'case' Case-Sensitive Forms lookup 35 subtable" one.lf
Substitution2: "'onum' Oldstyle Figures lookup 32 subtable" one.tosf
Substitution2: "'pnum' Proportional Numbers lookup 30 subtable" one.lf
Substitution2: "'frac' Diagonal Fractions lookup 23 subtable" one.numr
Substitution2: "'dnom' Denominators lookup 21 subtable" one.dnom
Substitution2: "'numr' Numerators lookup 20 subtable" one.numr
Substitution2: "'sups' Superscript lookup 19 subtable" uni00B9
Substitution2: "'subs' Subscript lookup 18 subtable" uni2081
EndChar

StartChar: two
Encoding: 50 50 21
Width: 572
Flags: W
LayerCount: 2
Fore
SplineSet
532 0 m 1,0,-1
 43 0 l 1,1,-1
 43 93 l 1,2,-1
 225 277 l 2,3,4
 279 332 279 332 313.5 371 c 128,-1,5
 348 410 348 410 364.5 444.5 c 128,-1,6
 381 479 381 479 381 519 c 0,7,8
 381 568 381 568 353.5 592.5 c 128,-1,9
 326 617 326 617 279 617 c 0,10,11
 234 617 234 617 195 598.5 c 128,-1,12
 156 580 156 580 114 546 c 1,13,-1
 45 629 l 1,14,15
 89 667 89 667 144.5 695.5 c 128,-1,16
 200 724 200 724 286 724 c 0,17,18
 355 724 355 724 404.5 699.5 c 128,-1,19
 454 675 454 675 481 631.5 c 128,-1,20
 508 588 508 588 508 532 c 0,21,22
 508 474 508 474 485 425.5 c 128,-1,23
 462 377 462 377 418.5 328.5 c 128,-1,24
 375 280 375 280 315 224 c 2,25,-1
 202 115 l 1,26,-1
 202 109 l 1,27,-1
 532 109 l 1,28,-1
 532 0 l 1,0,-1
EndSplineSet
Substitution2: "'case' Case-Sensitive Forms lookup 35 subtable" two.lf
Substitution2: "'onum' Oldstyle Figures lookup 32 subtable" two.tosf
Substitution2: "'pnum' Proportional Numbers lookup 30 subtable" two.lf
Substitution2: "'frac' Diagonal Fractions lookup 23 subtable" two.numr
Substitution2: "'dnom' Denominators lookup 21 subtable" two.dnom
Substitution2: "'numr' Numerators lookup 20 subtable" two.numr
Substitution2: "'sups' Superscript lookup 19 subtable" uni00B2
Substitution2: "'subs' Subscript lookup 18 subtable" uni2082
EndChar

StartChar: three
Encoding: 51 51 22
Width: 572
Flags: W
LayerCount: 2
Fore
SplineSet
504 551 m 0,0,1
 504 478 504 478 461.5 434.5 c 128,-1,2
 419 391 419 391 352 376 c 1,3,-1
 352 373 l 1,4,5
 438 362 438 362 482 319 c 128,-1,6
 526 276 526 276 526 206 c 0,7,8
 526 144 526 144 496 95 c 128,-1,9
 466 46 466 46 403.5 18 c 128,-1,10
 341 -10 341 -10 243 -10 c 0,11,12
 184 -10 184 -10 134.5 -0.5 c 128,-1,13
 85 9 85 9 41 29 c 1,14,-1
 41 140 l 1,15,16
 86 117 86 117 137 105 c 128,-1,17
 188 93 188 93 233 93 c 0,18,19
 320 93 320 93 356 124.5 c 128,-1,20
 392 156 392 156 392 212 c 0,21,22
 392 265 392 265 350 291 c 128,-1,23
 308 317 308 317 210 317 c 2,24,-1
 150 317 l 1,25,-1
 150 418 l 1,26,-1
 211 418 l 2,27,28
 306 418 306 418 342 449 c 128,-1,29
 378 480 378 480 378 529 c 0,30,31
 378 572 378 572 350 596 c 128,-1,32
 322 620 322 620 266 620 c 0,33,34
 212 620 212 620 173 602.5 c 128,-1,35
 134 585 134 585 103 565 c 1,36,-1
 43 652 l 1,37,38
 84 682 84 682 140 703 c 128,-1,39
 196 724 196 724 272 724 c 0,40,41
 383 724 383 724 443.5 677 c 128,-1,42
 504 630 504 630 504 551 c 0,0,1
EndSplineSet
Substitution2: "'case' Case-Sensitive Forms lookup 35 subtable" three.lf
Substitution2: "'onum' Oldstyle Figures lookup 32 subtable" three.tosf
Substitution2: "'pnum' Proportional Numbers lookup 30 subtable" three.lf
Substitution2: "'frac' Diagonal Fractions lookup 23 subtable" three.numr
Substitution2: "'dnom' Denominators lookup 21 subtable" three.dnom
Substitution2: "'numr' Numerators lookup 20 subtable" three.numr
Substitution2: "'sups' Superscript lookup 19 subtable" uni00B3
Substitution2: "'subs' Subscript lookup 18 subtable" uni2083
EndChar

StartChar: four
Encoding: 52 52 23
Width: 572
Flags: W
LayerCount: 2
Fore
SplineSet
554 153 m 1,0,-1
 461 153 l 1,1,-1
 461 0 l 1,2,-1
 337 0 l 1,3,-1
 337 153 l 1,4,-1
 19 153 l 1,5,-1
 19 247 l 1,6,-1
 340 716 l 1,7,-1
 461 716 l 1,8,-1
 461 256 l 1,9,-1
 554 256 l 1,10,-1
 554 153 l 1,0,-1
337 256 m 1,11,-1
 337 416 l 2,12,13
 337 444 337 444 338 474.5 c 128,-1,14
 339 505 339 505 340.5 531.5 c 128,-1,15
 342 558 342 558 343 572 c 1,16,-1
 339 572 l 1,17,18
 330 552 330 552 319.5 532.5 c 128,-1,19
 309 513 309 513 296 494 c 2,20,-1
 134 256 l 1,21,-1
 337 256 l 1,11,-1
EndSplineSet
Substitution2: "'case' Case-Sensitive Forms lookup 35 subtable" four.lf
Substitution2: "'onum' Oldstyle Figures lookup 32 subtable" four.tosf
Substitution2: "'pnum' Proportional Numbers lookup 30 subtable" four.lf
Substitution2: "'frac' Diagonal Fractions lookup 23 subtable" four.numr
Substitution2: "'dnom' Denominators lookup 21 subtable" four.dnom
Substitution2: "'numr' Numerators lookup 20 subtable" four.numr
Substitution2: "'sups' Superscript lookup 19 subtable" uni2074
Substitution2: "'subs' Subscript lookup 18 subtable" uni2084
EndChar

StartChar: five
Encoding: 53 53 24
Width: 572
Flags: W
LayerCount: 2
Fore
SplineSet
291 449 m 0,0,1
 359 449 359 449 411 424 c 128,-1,2
 463 399 463 399 492.5 351.5 c 128,-1,3
 522 304 522 304 522 235 c 0,4,5
 522 120 522 120 450.5 55 c 128,-1,6
 379 -10 379 -10 244 -10 c 0,7,8
 188 -10 188 -10 138.5 0 c 128,-1,9
 89 10 89 10 54 29 c 1,10,-1
 54 141 l 1,11,12
 91 121 91 121 142.5 108 c 128,-1,13
 194 95 194 95 241 95 c 0,14,15
 312 95 312 95 352.5 126 c 128,-1,16
 393 157 393 157 393 223 c 0,17,18
 393 282 393 282 355 313.5 c 128,-1,19
 317 345 317 345 237 345 c 0,20,21
 208 345 208 345 176 340 c 128,-1,22
 144 335 144 335 123 330 c 1,23,-1
 69 360 l 1,24,-1
 96 714 l 1,25,-1
 472 714 l 1,26,-1
 472 604 l 1,27,-1
 207 604 l 1,28,-1
 192 439 l 1,29,30
 209 442 209 442 232.5 445.5 c 128,-1,31
 256 449 256 449 291 449 c 0,0,1
EndSplineSet
Substitution2: "'case' Case-Sensitive Forms lookup 35 subtable" five.lf
Substitution2: "'onum' Oldstyle Figures lookup 32 subtable" five.tosf
Substitution2: "'pnum' Proportional Numbers lookup 30 subtable" five.lf
Substitution2: "'frac' Diagonal Fractions lookup 23 subtable" five.numr
Substitution2: "'dnom' Denominators lookup 21 subtable" five.dnom
Substitution2: "'numr' Numerators lookup 20 subtable" five.numr
Substitution2: "'sups' Superscript lookup 19 subtable" uni2075
Substitution2: "'subs' Subscript lookup 18 subtable" uni2085
EndChar

StartChar: six
Encoding: 54 54 25
Width: 572
Flags: W
LayerCount: 2
Fore
SplineSet
43 304 m 0,0,1
 43 366 43 366 51.5 426 c 128,-1,2
 60 486 60 486 82 539.5 c 128,-1,3
 104 593 104 593 143 634.5 c 128,-1,4
 182 676 182 676 242.5 699.5 c 128,-1,5
 303 723 303 723 389 723 c 0,6,7
 410 723 410 723 437 721 c 128,-1,8
 464 719 464 719 482 715 c 1,9,-1
 482 611 l 1,10,11
 443 622 443 622 396 622 c 0,12,13
 306 622 306 622 256 589.5 c 128,-1,14
 206 557 206 557 186 500.5 c 128,-1,15
 166 444 166 444 162 374 c 1,16,-1
 168 374 l 1,17,18
 189 409 189 409 228 433.5 c 128,-1,19
 267 458 267 458 329 458 c 0,20,21
 422 458 422 458 478 400 c 128,-1,22
 534 342 534 342 534 235 c 0,23,24
 534 120 534 120 470 55 c 128,-1,25
 406 -10 406 -10 297 -10 c 0,26,27
 226 -10 226 -10 168.5 24 c 128,-1,28
 111 58 111 58 77 127.5 c 128,-1,29
 43 197 43 197 43 304 c 0,0,1
295 93 m 0,30,31
 346 93 346 93 378 127.5 c 128,-1,32
 410 162 410 162 410 234 c 0,33,34
 410 292 410 292 382 325.5 c 128,-1,35
 354 359 354 359 298 359 c 0,36,37
 259 359 259 359 230.5 342.5 c 128,-1,38
 202 326 202 326 186 300.5 c 128,-1,39
 170 275 170 275 170 248 c 0,40,41
 170 211 170 211 184 175.5 c 128,-1,42
 198 140 198 140 225.5 116.5 c 128,-1,43
 253 93 253 93 295 93 c 0,30,31
EndSplineSet
Substitution2: "'case' Case-Sensitive Forms lookup 35 subtable" six.lf
Substitution2: "'onum' Oldstyle Figures lookup 32 subtable" six.tosf
Substitution2: "'pnum' Proportional Numbers lookup 30 subtable" six.lf
Substitution2: "'frac' Diagonal Fractions lookup 23 subtable" six.numr
Substitution2: "'dnom' Denominators lookup 21 subtable" six.dnom
Substitution2: "'numr' Numerators lookup 20 subtable" six.numr
Substitution2: "'sups' Superscript lookup 19 subtable" uni2076
Substitution2: "'subs' Subscript lookup 18 subtable" uni2086
EndChar

StartChar: seven
Encoding: 55 55 26
Width: 572
Flags: W
LayerCount: 2
Fore
SplineSet
120 0 m 1,0,-1
 398 605 l 1,1,-1
 33 605 l 1,2,-1
 33 714 l 1,3,-1
 533 714 l 1,4,-1
 533 629 l 1,5,-1
 255 0 l 1,6,-1
 120 0 l 1,0,-1
EndSplineSet
Substitution2: "'case' Case-Sensitive Forms lookup 35 subtable" seven.lf
Substitution2: "'onum' Oldstyle Figures lookup 32 subtable" seven.tosf
Substitution2: "'pnum' Proportional Numbers lookup 30 subtable" seven.lf
Substitution2: "'frac' Diagonal Fractions lookup 23 subtable" seven.numr
Substitution2: "'dnom' Denominators lookup 21 subtable" seven.dnom
Substitution2: "'numr' Numerators lookup 20 subtable" seven.numr
Substitution2: "'sups' Superscript lookup 19 subtable" uni2077
Substitution2: "'subs' Subscript lookup 18 subtable" uni2087
EndChar

StartChar: eight
Encoding: 56 56 27
Width: 572
Flags: W
LayerCount: 2
Fore
SplineSet
286 723 m 0,0,1
 348 723 348 723 398 704 c 128,-1,2
 448 685 448 685 478 646.5 c 128,-1,3
 508 608 508 608 508 552 c 0,4,5
 508 488 508 488 470 446.5 c 128,-1,6
 432 405 432 405 377 377 c 1,7,8
 418 356 418 356 453 330 c 128,-1,9
 488 304 488 304 509.5 268.5 c 128,-1,10
 531 233 531 233 531 185 c 0,11,12
 531 126 531 126 500 82 c 128,-1,13
 469 38 469 38 414.5 14 c 128,-1,14
 360 -10 360 -10 287 -10 c 0,15,16
 168 -10 168 -10 104 41 c 128,-1,17
 40 92 40 92 40 181 c 0,18,19
 40 230 40 230 59 266 c 128,-1,20
 78 302 78 302 110 328 c 128,-1,21
 142 354 142 354 181 373 c 1,22,23
 132 403 132 403 97.5 445.5 c 128,-1,24
 63 488 63 488 63 553 c 0,25,26
 63 608 63 608 93.5 646 c 128,-1,27
 124 684 124 684 174.5 703.5 c 128,-1,28
 225 723 225 723 286 723 c 0,0,1
285 628 m 0,29,30
 241 628 241 628 212.5 606 c 128,-1,31
 184 584 184 584 184 544 c 0,32,33
 184 500 184 500 214 474 c 128,-1,34
 244 448 244 448 287 429 c 1,35,36
 328 447 328 447 357.5 473 c 128,-1,37
 387 499 387 499 387 544 c 0,38,39
 387 584 387 584 358.5 606 c 128,-1,40
 330 628 330 628 285 628 c 0,29,30
160 187 m 0,41,42
 160 143 160 143 191 114.5 c 128,-1,43
 222 86 222 86 285 86 c 0,44,45
 347 86 347 86 379 114 c 128,-1,46
 411 142 411 142 411 187 c 256,47,48
 411 232 411 232 375 262 c 128,-1,49
 339 292 339 292 290 314 c 2,50,-1
 276 321 l 1,51,52
 222 296 222 296 191 264.5 c 128,-1,53
 160 233 160 233 160 187 c 0,41,42
EndSplineSet
Substitution2: "'case' Case-Sensitive Forms lookup 35 subtable" eight.lf
Substitution2: "'onum' Oldstyle Figures lookup 32 subtable" eight.tosf
Substitution2: "'pnum' Proportional Numbers lookup 30 subtable" eight.lf
Substitution2: "'frac' Diagonal Fractions lookup 23 subtable" eight.numr
Substitution2: "'dnom' Denominators lookup 21 subtable" eight.dnom
Substitution2: "'numr' Numerators lookup 20 subtable" eight.numr
Substitution2: "'sups' Superscript lookup 19 subtable" uni2078
Substitution2: "'subs' Subscript lookup 18 subtable" uni2088
EndChar

StartChar: nine
Encoding: 57 57 28
Width: 572
Flags: W
LayerCount: 2
Fore
SplineSet
530 409 m 0,0,1
 530 348 530 348 521 287.5 c 128,-1,2
 512 227 512 227 490 173.5 c 128,-1,3
 468 120 468 120 429 78.5 c 128,-1,4
 390 37 390 37 329.5 13.5 c 128,-1,5
 269 -10 269 -10 183 -10 c 0,6,7
 163 -10 163 -10 135 -8 c 128,-1,8
 107 -6 107 -6 90 -2 c 1,9,-1
 90 102 l 1,10,11
 129 91 129 91 176 91 c 0,12,13
 266 91 266 91 316 123.5 c 128,-1,14
 366 156 366 156 386.5 212 c 128,-1,15
 407 268 407 268 410 338 c 1,16,-1
 404 338 l 1,17,18
 382 304 382 304 345 279.5 c 128,-1,19
 308 255 308 255 241 255 c 0,20,21
 150 255 150 255 94.5 313 c 128,-1,22
 39 371 39 371 39 477 c 0,23,24
 39 592 39 592 103 657.5 c 128,-1,25
 167 723 167 723 276 723 c 0,26,27
 347 723 347 723 404.5 689 c 128,-1,28
 462 655 462 655 496 585.5 c 128,-1,29
 530 516 530 516 530 409 c 0,0,1
278 619 m 0,30,31
 227 619 227 619 195 585 c 128,-1,32
 163 551 163 551 163 479 c 0,33,34
 163 420 163 420 190.5 386.5 c 128,-1,35
 218 353 218 353 275 353 c 0,36,37
 314 353 314 353 343 369.5 c 128,-1,38
 372 386 372 386 387.5 412 c 128,-1,39
 403 438 403 438 403 465 c 0,40,41
 403 502 403 502 389 537 c 128,-1,42
 375 572 375 572 347.5 595.5 c 128,-1,43
 320 619 320 619 278 619 c 0,30,31
EndSplineSet
Substitution2: "'case' Case-Sensitive Forms lookup 35 subtable" nine.lf
Substitution2: "'onum' Oldstyle Figures lookup 32 subtable" nine.tosf
Substitution2: "'pnum' Proportional Numbers lookup 30 subtable" nine.lf
Substitution2: "'frac' Diagonal Fractions lookup 23 subtable" nine.numr
Substitution2: "'dnom' Denominators lookup 21 subtable" nine.dnom
Substitution2: "'numr' Numerators lookup 20 subtable" nine.numr
Substitution2: "'sups' Superscript lookup 19 subtable" uni2079
Substitution2: "'subs' Subscript lookup 18 subtable" uni2089
EndChar

StartChar: colon
Encoding: 58 58 29
Width: 279
Flags: W
LayerCount: 2
Fore
SplineSet
63 476 m 0,0,1
 63 519 63 519 85.5 536.5 c 128,-1,2
 108 554 108 554 139 554 c 256,3,4
 170 554 170 554 193 536.5 c 128,-1,5
 216 519 216 519 216 476 c 0,6,7
 216 436 216 436 193 417.5 c 128,-1,8
 170 399 170 399 139 399 c 256,9,10
 108 399 108 399 85.5 417.5 c 128,-1,11
 63 436 63 436 63 476 c 0,0,1
63 64 m 0,12,13
 63 106 63 106 85.5 123.5 c 128,-1,14
 108 141 108 141 139 141 c 256,15,16
 170 141 170 141 193 123.5 c 128,-1,17
 216 106 216 106 216 64 c 0,18,19
 216 23 216 23 193 5 c 128,-1,20
 170 -13 170 -13 139 -13 c 256,21,22
 108 -13 108 -13 85.5 5 c 128,-1,23
 63 23 63 23 63 64 c 0,12,13
EndSplineSet
EndChar

StartChar: semicolon
Encoding: 59 59 30
Width: 279
Flags: W
LayerCount: 2
Fore
SplineSet
62 476 m 0,0,1
 62 519 62 519 84 536.5 c 128,-1,2
 106 554 106 554 138 554 c 256,3,4
 170 554 170 554 192.5 536.5 c 128,-1,5
 215 519 215 519 215 476 c 0,6,7
 215 436 215 436 192.5 417.5 c 128,-1,8
 170 399 170 399 138 399 c 256,9,10
 106 399 106 399 84 417.5 c 128,-1,11
 62 436 62 436 62 476 c 0,0,1
202 116 m 1,12,-1
 209 105 l 1,13,14
 196 52 196 52 171.5 -11.5 c 128,-1,15
 147 -75 147 -75 123 -129 c 1,16,-1
 31 -129 l 1,17,18
 45 -71 45 -71 59.5 -3.5 c 128,-1,19
 74 64 74 64 81 116 c 1,20,-1
 202 116 l 1,12,-1
EndSplineSet
EndChar

StartChar: less
Encoding: 60 60 31
Width: 572
Flags: W
LayerCount: 2
Fore
SplineSet
525 105 m 1,0,-1
 46 317 l 1,1,-1
 46 379 l 1,2,-1
 525 619 l 1,3,-1
 525 516 l 1,4,-1
 175 353 l 1,5,-1
 525 208 l 1,6,-1
 525 105 l 1,0,-1
EndSplineSet
EndChar

StartChar: equal
Encoding: 61 61 32
Width: 572
Flags: W
LayerCount: 2
Fore
SplineSet
48 402 m 1,0,-1
 48 495 l 1,1,-1
 523 495 l 1,2,-1
 523 402 l 1,3,-1
 48 402 l 1,0,-1
48 209 m 1,4,-1
 48 302 l 1,5,-1
 523 302 l 1,6,-1
 523 209 l 1,7,-1
 48 209 l 1,4,-1
EndSplineSet
Substitution2: "'sups' Superscript lookup 19 subtable" uni207C
Substitution2: "'subs' Subscript lookup 18 subtable" uni208C
EndChar

StartChar: greater
Encoding: 62 62 33
Width: 572
Flags: W
LayerCount: 2
Fore
SplineSet
46 208 m 1,0,-1
 396 352 l 1,1,-1
 46 516 l 1,2,-1
 46 619 l 1,3,-1
 525 379 l 1,4,-1
 525 317 l 1,5,-1
 46 105 l 1,6,-1
 46 208 l 1,0,-1
EndSplineSet
EndChar

StartChar: question
Encoding: 63 63 34
Width: 461
Flags: W
LayerCount: 2
Fore
SplineSet
137 223 m 1,0,-1
 137 256 l 2,1,2
 137 308 137 308 156.5 343 c 128,-1,3
 176 378 176 378 226 417 c 0,4,5
 276 455 276 455 296.5 480 c 128,-1,6
 317 505 317 505 317 542 c 0,7,8
 317 580 317 580 290.5 600 c 128,-1,9
 264 620 264 620 215 620 c 0,10,11
 171 620 171 620 131 607 c 128,-1,12
 91 594 91 594 51 574 c 1,13,-1
 6 668 l 1,14,15
 52 693 52 693 106 708.5 c 128,-1,16
 160 724 160 724 225 724 c 0,17,18
 326 724 326 724 381 675.5 c 128,-1,19
 436 627 436 627 436 548 c 0,20,21
 436 505 436 505 422.5 474.5 c 128,-1,22
 409 444 409 444 382.5 418 c 128,-1,23
 356 392 356 392 319 363 c 0,24,25
 288 339 288 339 272 322 c 128,-1,26
 256 305 256 305 250 288.5 c 128,-1,27
 244 272 244 272 244 248 c 2,28,-1
 244 223 l 1,29,-1
 137 223 l 1,0,-1
118 64 m 0,30,31
 118 106 118 106 140.5 123.5 c 128,-1,32
 163 141 163 141 195 141 c 0,33,34
 226 141 226 141 248.5 123.5 c 128,-1,35
 271 106 271 106 271 64 c 0,36,37
 271 23 271 23 248.5 5 c 128,-1,38
 226 -13 226 -13 195 -13 c 0,39,40
 163 -13 163 -13 140.5 5 c 128,-1,41
 118 23 118 23 118 64 c 0,30,31
EndSplineSet
Substitution2: "'smcp' Lowercase to Small Capitals lookup 34 subtable" question.sc
Substitution2: "'c2sc' Capitals to Small Capitals lookup 33 subtable" question.sc
EndChar

StartChar: at
Encoding: 64 64 35
Width: 898
Flags: W
LayerCount: 2
Fore
SplineSet
845 358 m 0,0,1
 845 312 845 312 834 267 c 128,-1,2
 823 222 823 222 801 186 c 128,-1,3
 779 150 779 150 745.5 128.5 c 128,-1,4
 712 107 712 107 667 107 c 0,5,6
 626 107 626 107 599 127.5 c 128,-1,7
 572 148 572 148 562 179 c 1,8,-1
 556 179 l 1,9,10
 536 150 536 150 502 128.5 c 128,-1,11
 468 107 468 107 419 107 c 0,12,13
 334 107 334 107 288.5 159.5 c 128,-1,14
 243 212 243 212 243 297 c 0,15,16
 243 364 243 364 271 415 c 128,-1,17
 299 466 299 466 349.5 495.5 c 128,-1,18
 400 525 400 525 470 525 c 0,19,20
 516 525 516 525 563.5 517 c 128,-1,21
 611 509 611 509 637 499 c 1,22,-1
 627 295 l 2,23,24
 626 282 626 282 626 272.5 c 128,-1,25
 626 263 626 263 626 260 c 0,26,27
 626 214 626 214 640 199.5 c 128,-1,28
 654 185 654 185 673 185 c 0,29,30
 698 185 698 185 716 208.5 c 128,-1,31
 734 232 734 232 743 272 c 128,-1,32
 752 312 752 312 752 359 c 0,33,34
 752 446 752 446 716.5 507 c 128,-1,35
 681 568 681 568 619.5 600 c 128,-1,36
 558 632 558 632 481 632 c 0,37,38
 372 632 372 632 298 587 c 128,-1,39
 224 542 224 542 185.5 464 c 128,-1,40
 147 386 147 386 147 286 c 0,41,42
 147 146 147 146 221.5 71.5 c 128,-1,43
 296 -3 296 -3 437 -3 c 0,44,45
 496 -3 496 -3 556 10 c 128,-1,46
 616 23 616 23 665 41 c 1,47,-1
 665 -43 l 1,48,49
 618 -62 618 -62 561 -74 c 128,-1,50
 504 -86 504 -86 439 -86 c 0,51,52
 318 -86 318 -86 231.5 -42 c 128,-1,53
 145 2 145 2 99 84.5 c 128,-1,54
 53 167 53 167 53 283 c 0,55,56
 53 375 53 375 82.5 453.5 c 128,-1,57
 112 532 112 532 168 590.5 c 128,-1,58
 224 649 224 649 302.5 681.5 c 128,-1,59
 381 714 381 714 480 714 c 0,60,61
 586 714 586 714 668.5 671 c 128,-1,62
 751 628 751 628 798 548 c 128,-1,63
 845 468 845 468 845 358 c 0,0,1
343 295 m 0,64,65
 343 237 343 237 366.5 211 c 128,-1,66
 390 185 390 185 431 185 c 0,67,68
 483 185 483 185 505 223.5 c 128,-1,69
 527 262 527 262 531 324 c 2,70,-1
 537 439 l 1,71,72
 525 442 525 442 508.5 444 c 128,-1,73
 492 446 492 446 474 446 c 0,74,75
 426 446 426 446 397 424 c 128,-1,76
 368 402 368 402 355.5 367.5 c 128,-1,77
 343 333 343 333 343 295 c 0,64,65
EndSplineSet
EndChar

StartChar: A
Encoding: 65 65 36
Width: 671
GlyphClass: 2
Flags: W
AnchorPoint: "Anchor-3" 563 714 basechar 0
AnchorPoint: "Anchor-2" 335 714 basechar 0
AnchorPoint: "Anchor-0" 337 0 basechar 0
LayerCount: 2
Fore
SplineSet
534 0 m 1,0,-1
 469 189 l 1,1,-1
 200 189 l 1,2,-1
 136 0 l 1,3,-1
 0 0 l 1,4,-1
 262 717 l 1,5,-1
 408 717 l 1,6,-1
 670 0 l 1,7,-1
 534 0 l 1,0,-1
436 299 m 1,8,-1
 374 483 l 2,9,10
 370 496 370 496 362 520.5 c 128,-1,11
 354 545 354 545 347 570.5 c 128,-1,12
 340 596 340 596 335 613 c 1,13,14
 330 592 330 592 322.5 566 c 128,-1,15
 315 540 315 540 308.5 517 c 128,-1,16
 302 494 302 494 298 483 c 2,17,-1
 235 299 l 1,18,-1
 436 299 l 1,8,-1
EndSplineSet
Substitution2: "'c2sc' Capitals to Small Capitals lookup 33 subtable" a.sc
Substitution2: "Single Substitution lookup 28 subtable" ordfeminine
EndChar

StartChar: B
Encoding: 66 66 37
Width: 664
GlyphClass: 2
Flags: W
AnchorPoint: "Anchor-3" 644 714 basechar 0
AnchorPoint: "Anchor-2" 334 714 basechar 0
AnchorPoint: "Anchor-0" 330 0 basechar 0
LayerCount: 2
Fore
SplineSet
93 714 m 1,0,-1
 308 714 l 2,1,2
 447 714 447 714 518.5 674 c 128,-1,3
 590 634 590 634 590 535 c 0,4,5
 590 473 590 473 559 431.5 c 128,-1,6
 528 390 528 390 470 379 c 1,7,-1
 470 374 l 1,8,9
 509 366 509 366 540.5 348 c 128,-1,10
 572 330 572 330 591 295.5 c 128,-1,11
 610 261 610 261 610 205 c 0,12,13
 610 108 610 108 541 54 c 128,-1,14
 472 0 472 0 354 0 c 2,15,-1
 93 0 l 1,16,-1
 93 714 l 1,0,-1
221 423 m 1,17,-1
 325 423 l 2,18,19
 401 423 401 423 429.5 447.5 c 128,-1,20
 458 472 458 472 458 518 c 0,21,22
 458 566 458 566 423.5 587 c 128,-1,23
 389 608 389 608 315 608 c 2,24,-1
 221 608 l 1,25,-1
 221 423 l 1,17,-1
221 320 m 1,26,-1
 221 107 l 1,27,-1
 337 107 l 2,28,29
 415 107 415 107 445.5 137.5 c 128,-1,30
 476 168 476 168 476 217 c 0,31,32
 476 264 476 264 444.5 292 c 128,-1,33
 413 320 413 320 331 320 c 2,34,-1
 221 320 l 1,26,-1
EndSplineSet
Substitution2: "'c2sc' Capitals to Small Capitals lookup 33 subtable" b.sc
EndChar

StartChar: C
Encoding: 67 67 38
Width: 635
GlyphClass: 2
Flags: W
AnchorPoint: "Anchor-3" 615 714 basechar 0
AnchorPoint: "Anchor-2" 378 714 basechar 0
AnchorPoint: "Anchor-0" 371 0 basechar 0
LayerCount: 2
Fore
SplineSet
397 616 m 0,0,1
 300 616 300 616 246 546.5 c 128,-1,2
 192 477 192 477 192 356 c 0,3,4
 192 234 192 234 242 166 c 128,-1,5
 292 98 292 98 396 98 c 0,6,7
 441 98 441 98 484.5 107.5 c 128,-1,8
 528 117 528 117 574 133 c 1,9,-1
 574 24 l 1,10,11
 530 6 530 6 485.5 -2 c 128,-1,12
 441 -10 441 -10 383 -10 c 0,13,14
 273 -10 273 -10 201 35.5 c 128,-1,15
 129 81 129 81 94 163.5 c 128,-1,16
 59 246 59 246 59 357 c 0,17,18
 59 465 59 465 98 547.5 c 128,-1,19
 137 630 137 630 212.5 677 c 128,-1,20
 288 724 288 724 397 724 c 0,21,22
 451 724 451 724 503.5 712 c 128,-1,23
 556 700 556 700 602 677 c 1,24,-1
 558 572 l 1,25,26
 520 589 520 589 479.5 602.5 c 128,-1,27
 439 616 439 616 397 616 c 0,0,1
EndSplineSet
Substitution2: "'c2sc' Capitals to Small Capitals lookup 33 subtable" c.sc
EndChar

StartChar: D
Encoding: 68 68 39
Width: 736
GlyphClass: 2
Flags: W
AnchorPoint: "Anchor-3" 716 714 basechar 0
AnchorPoint: "Anchor-2" 367 714 basechar 0
AnchorPoint: "Anchor-1" 368 357 basechar 0
AnchorPoint: "Anchor-0" 343 0 basechar 0
LayerCount: 2
Fore
SplineSet
677 364 m 0,0,1
 677 183 677 183 576 91.5 c 128,-1,2
 475 0 475 0 294 0 c 2,3,-1
 93 0 l 1,4,-1
 93 714 l 1,5,-1
 315 714 l 2,6,7
 426 714 426 714 507 674 c 128,-1,8
 588 634 588 634 632.5 556 c 128,-1,9
 677 478 677 478 677 364 c 0,0,1
543 360 m 0,10,11
 543 488 543 488 484 548 c 128,-1,12
 425 608 425 608 315 608 c 2,13,-1
 221 608 l 1,14,-1
 221 107 l 1,15,-1
 298 107 l 2,16,17
 543 107 543 107 543 360 c 0,10,11
EndSplineSet
Substitution2: "'c2sc' Capitals to Small Capitals lookup 33 subtable" d.sc
EndChar

StartChar: E
Encoding: 69 69 40
Width: 558
GlyphClass: 2
Flags: W
AnchorPoint: "Anchor-3" 538 714 basechar 0
AnchorPoint: "Anchor-2" 303 714 basechar 0
AnchorPoint: "Anchor-0" 302 0 basechar 0
LayerCount: 2
Fore
SplineSet
499 0 m 1,0,-1
 93 0 l 1,1,-1
 93 714 l 1,2,-1
 499 714 l 1,3,-1
 499 607 l 1,4,-1
 221 607 l 1,5,-1
 221 425 l 1,6,-1
 481 425 l 1,7,-1
 481 318 l 1,8,-1
 221 318 l 1,9,-1
 221 108 l 1,10,-1
 499 108 l 1,11,-1
 499 0 l 1,0,-1
EndSplineSet
Substitution2: "'c2sc' Capitals to Small Capitals lookup 33 subtable" e.sc
EndChar

StartChar: F
Encoding: 70 70 41
Width: 538
GlyphClass: 2
Flags: W
AnchorPoint: "Anchor-3" 518 714 basechar 0
AnchorPoint: "Anchor-2" 298 714 basechar 0
AnchorPoint: "Anchor-0" 269 0 basechar 0
LayerCount: 2
Fore
SplineSet
219 0 m 1,0,-1
 93 0 l 1,1,-1
 93 714 l 1,2,-1
 498 714 l 1,3,-1
 498 607 l 1,4,-1
 219 607 l 1,5,-1
 219 397 l 1,6,-1
 479 397 l 1,7,-1
 479 290 l 1,8,-1
 219 290 l 1,9,-1
 219 0 l 1,0,-1
EndSplineSet
Substitution2: "'c2sc' Capitals to Small Capitals lookup 33 subtable" f.sc
EndChar

StartChar: G
Encoding: 71 71 42
Width: 726
GlyphClass: 2
Flags: W
AnchorPoint: "Anchor-3" 706 714 basechar 0
AnchorPoint: "Anchor-2" 402 714 basechar 0
AnchorPoint: "Anchor-0" 395 0 basechar 0
LayerCount: 2
Fore
SplineSet
378 392 m 1,0,-1
 648 392 l 1,1,-1
 648 29 l 1,2,3
 591 10 591 10 531 0 c 128,-1,4
 471 -10 471 -10 395 -10 c 0,5,6
 233 -10 233 -10 146 86 c 128,-1,7
 59 182 59 182 59 358 c 0,8,9
 59 470 59 470 102.5 552 c 128,-1,10
 146 634 146 634 229 679 c 128,-1,11
 312 724 312 724 431 724 c 0,12,13
 490 724 490 724 544 712 c 128,-1,14
 598 700 598 700 643 681 c 1,15,-1
 599 576 l 1,16,17
 564 592 564 592 520 604 c 128,-1,18
 476 616 476 616 428 616 c 0,19,20
 355 616 355 616 302 584 c 128,-1,21
 249 552 249 552 220.5 493.5 c 128,-1,22
 192 435 192 435 192 356 c 0,23,24
 192 280 192 280 214 222 c 128,-1,25
 236 164 236 164 284 131 c 128,-1,26
 332 98 332 98 409 98 c 0,27,28
 447 98 447 98 473.5 102 c 128,-1,29
 500 106 500 106 522 111 c 1,30,-1
 522 283 l 1,31,-1
 378 283 l 1,32,-1
 378 392 l 1,0,-1
EndSplineSet
Substitution2: "'c2sc' Capitals to Small Capitals lookup 33 subtable" g.sc
EndChar

StartChar: H
Encoding: 72 72 43
Width: 756
GlyphClass: 2
Flags: W
AnchorPoint: "Anchor-3" 736 714 basechar 0
AnchorPoint: "Anchor-2" 378 714 basechar 0
AnchorPoint: "Anchor-1" 378 357 basechar 0
AnchorPoint: "Anchor-0" 375 0 basechar 0
LayerCount: 2
Fore
SplineSet
663 0 m 1,0,-1
 535 0 l 1,1,-1
 535 317 l 1,2,-1
 221 317 l 1,3,-1
 221 0 l 1,4,-1
 93 0 l 1,5,-1
 93 714 l 1,6,-1
 221 714 l 1,7,-1
 221 426 l 1,8,-1
 535 426 l 1,9,-1
 535 714 l 1,10,-1
 663 714 l 1,11,-1
 663 0 l 1,0,-1
EndSplineSet
Substitution2: "'c2sc' Capitals to Small Capitals lookup 33 subtable" h.sc
EndChar

StartChar: I
Encoding: 73 73 44
Width: 370
GlyphClass: 2
Flags: W
AnchorPoint: "Anchor-3" 350 714 basechar 0
AnchorPoint: "Anchor-2" 186 714 basechar 0
AnchorPoint: "Anchor-0" 186 0 basechar 0
LayerCount: 2
Fore
SplineSet
335 0 m 1,0,-1
 35 0 l 1,1,-1
 35 73 l 1,2,-1
 121 105 l 1,3,-1
 121 608 l 1,4,-1
 35 641 l 1,5,-1
 35 714 l 1,6,-1
 335 714 l 1,7,-1
 335 641 l 1,8,-1
 249 608 l 1,9,-1
 249 105 l 1,10,-1
 335 73 l 1,11,-1
 335 0 l 1,0,-1
EndSplineSet
Substitution2: "'c2sc' Capitals to Small Capitals lookup 33 subtable" i.sc
EndChar

StartChar: J
Encoding: 74 74 45
Width: 309
GlyphClass: 2
Flags: W
AnchorPoint: "Anchor-3" 289 714 basechar 0
AnchorPoint: "Anchor-2" 155 714 basechar 0
AnchorPoint: "Anchor-0" 8 -182 basechar 0
LayerCount: 2
Fore
SplineSet
8 -202 m 0,0,1
 -20 -202 -20 -202 -40.5 -199 c 128,-1,2
 -61 -196 -61 -196 -76 -191 c 1,3,-1
 -76 -84 l 1,4,5
 -60 -88 -60 -88 -42 -91 c 128,-1,6
 -24 -94 -24 -94 -4 -94 c 0,7,8
 22 -94 22 -94 43.5 -84 c 128,-1,9
 65 -74 65 -74 78 -47 c 128,-1,10
 91 -20 91 -20 91 30 c 2,11,-1
 91 714 l 1,12,-1
 219 714 l 1,13,-1
 219 33 l 2,14,15
 219 -92 219 -92 160.5 -147 c 128,-1,16
 102 -202 102 -202 8 -202 c 0,0,1
EndSplineSet
Substitution2: "'c2sc' Capitals to Small Capitals lookup 33 subtable" j.sc
EndChar

StartChar: K
Encoding: 75 75 46
Width: 647
GlyphClass: 2
Flags: W
AnchorPoint: "Anchor-3" 627 714 basechar 0
AnchorPoint: "Anchor-2" 346 714 basechar 0
AnchorPoint: "Anchor-0" 341 0 basechar 0
LayerCount: 2
Fore
SplineSet
647 0 m 1,0,-1
 500 0 l 1,1,-1
 288 316 l 1,2,-1
 221 263 l 1,3,-1
 221 0 l 1,4,-1
 93 0 l 1,5,-1
 93 714 l 1,6,-1
 221 714 l 1,7,-1
 221 378 l 1,8,9
 241 404 241 404 262 429.5 c 128,-1,10
 283 455 283 455 304 481 c 2,11,-1
 497 714 l 1,12,-1
 642 714 l 1,13,-1
 380 400 l 1,14,-1
 647 0 l 1,0,-1
EndSplineSet
Substitution2: "'c2sc' Capitals to Small Capitals lookup 33 subtable" k.sc
EndChar

StartChar: L
Encoding: 76 76 47
Width: 550
GlyphClass: 2
Flags: W
AnchorPoint: "Anchor-3" 377 714 basechar 0
AnchorPoint: "Anchor-2" 155 714 basechar 0
AnchorPoint: "Anchor-1" 275 357 basechar 0
AnchorPoint: "Anchor-0" 305 0 basechar 0
LayerCount: 2
Fore
SplineSet
93 0 m 1,0,-1
 93 714 l 1,1,-1
 221 714 l 1,2,-1
 221 108 l 1,3,-1
 519 108 l 1,4,-1
 519 0 l 1,5,-1
 93 0 l 1,0,-1
EndSplineSet
Substitution2: "'c2sc' Capitals to Small Capitals lookup 33 subtable" l.sc
EndChar

StartChar: M
Encoding: 77 77 48
Width: 929
GlyphClass: 2
Flags: W
AnchorPoint: "Anchor-3" 909 714 basechar 0
AnchorPoint: "Anchor-2" 465 714 basechar 0
AnchorPoint: "Anchor-0" 459 0 basechar 0
LayerCount: 2
Fore
SplineSet
400 0 m 1,0,-1
 204 585 l 1,1,-1
 200 585 l 1,2,3
 202 565 202 565 203.5 528.5 c 128,-1,4
 205 492 205 492 206.5 449.5 c 128,-1,5
 208 407 208 407 208 370 c 2,6,-1
 208 0 l 1,7,-1
 93 0 l 1,8,-1
 93 714 l 1,9,-1
 271 714 l 1,10,-1
 459 153 l 1,11,-1
 463 153 l 1,12,-1
 659 714 l 1,13,-1
 837 714 l 1,14,-1
 837 0 l 1,15,-1
 715 0 l 1,16,-1
 715 376 l 2,17,18
 715 410 715 410 716.5 450.5 c 128,-1,19
 718 491 718 491 719.5 527.5 c 128,-1,20
 721 564 721 564 722 584 c 1,21,-1
 718 584 l 1,22,-1
 514 0 l 1,23,-1
 400 0 l 1,0,-1
EndSplineSet
Substitution2: "'c2sc' Capitals to Small Capitals lookup 33 subtable" m.sc
EndChar

StartChar: N
Encoding: 78 78 49
Width: 793
GlyphClass: 2
Flags: W
AnchorPoint: "Anchor-3" 773 714 basechar 0
AnchorPoint: "Anchor-2" 397 714 basechar 0
AnchorPoint: "Anchor-0" 397 0 basechar 0
LayerCount: 2
Fore
SplineSet
700 0 m 1,0,-1
 541 0 l 1,1,-1
 203 560 l 1,2,-1
 199 560 l 1,3,4
 201 515 201 515 203.5 463.5 c 128,-1,5
 206 412 206 412 208 360 c 2,6,-1
 208 0 l 1,7,-1
 93 0 l 1,8,-1
 93 714 l 1,9,-1
 251 714 l 1,10,-1
 588 158 l 1,11,-1
 591 158 l 1,12,13
 590 198 590 198 587.5 250 c 128,-1,14
 585 302 585 302 584 351 c 2,15,-1
 584 714 l 1,16,-1
 700 714 l 1,17,-1
 700 0 l 1,0,-1
EndSplineSet
Substitution2: "'c2sc' Capitals to Small Capitals lookup 33 subtable" n.sc
EndChar

StartChar: O
Encoding: 79 79 50
Width: 790
GlyphClass: 2
Flags: W
AnchorPoint: "Anchor-3" 770 714 basechar 0
AnchorPoint: "Anchor-2" 395 714 basechar 0
AnchorPoint: "Anchor-1" 395 357 basechar 0
AnchorPoint: "Anchor-0" 396 0 basechar 0
LayerCount: 2
Fore
SplineSet
731 358 m 256,0,1
 731 247 731 247 694.5 164.5 c 128,-1,2
 658 82 658 82 583 36 c 128,-1,3
 508 -10 508 -10 395 -10 c 0,4,5
 280 -10 280 -10 206 36 c 128,-1,6
 132 82 132 82 95.5 165 c 128,-1,7
 59 248 59 248 59 359 c 0,8,9
 59 469 59 469 95.5 551.5 c 128,-1,10
 132 634 132 634 206.5 679.5 c 128,-1,11
 281 725 281 725 396 725 c 0,12,13
 509 725 509 725 583.5 679.5 c 128,-1,14
 658 634 658 634 694.5 551.5 c 128,-1,15
 731 469 731 469 731 358 c 256,0,1
194 358 m 256,16,17
 194 237 194 237 242.5 168 c 128,-1,18
 291 99 291 99 395 99 c 0,19,20
 502 99 502 99 549 168 c 128,-1,21
 596 237 596 237 596 358 c 256,22,23
 596 479 596 479 549 548 c 128,-1,24
 502 617 502 617 396 617 c 0,25,26
 291 617 291 617 242.5 548 c 128,-1,27
 194 479 194 479 194 358 c 256,16,17
EndSplineSet
Substitution2: "'c2sc' Capitals to Small Capitals lookup 33 subtable" o.sc
Substitution2: "Single Substitution lookup 28 subtable" ordmasculine
EndChar

StartChar: P
Encoding: 80 80 51
Width: 619
GlyphClass: 2
Flags: W
AnchorPoint: "Anchor-3" 599 714 basechar 0
AnchorPoint: "Anchor-2" 322 714 basechar 0
AnchorPoint: "Anchor-0" 310 0 basechar 0
LayerCount: 2
Fore
SplineSet
306 714 m 2,0,1
 445 714 445 714 508.5 656.5 c 128,-1,2
 572 599 572 599 572 496 c 0,3,4
 572 435 572 435 546 382 c 128,-1,5
 520 329 520 329 458.5 296 c 128,-1,6
 397 263 397 263 292 263 c 2,7,-1
 221 263 l 1,8,-1
 221 0 l 1,9,-1
 93 0 l 1,10,-1
 93 714 l 1,11,-1
 306 714 l 2,0,1
298 608 m 2,12,-1
 221 608 l 1,13,-1
 221 369 l 1,14,-1
 279 369 l 2,15,16
 357 369 357 369 399.5 397.5 c 128,-1,17
 442 426 442 426 442 491 c 0,18,19
 442 550 442 550 407 579 c 128,-1,20
 372 608 372 608 298 608 c 2,12,-1
EndSplineSet
Substitution2: "'c2sc' Capitals to Small Capitals lookup 33 subtable" p.sc
EndChar

StartChar: Q
Encoding: 81 81 52
Width: 790
GlyphClass: 2
Flags: W
AnchorPoint: "Anchor-3" 770 714 basechar 0
AnchorPoint: "Anchor-2" 395 714 basechar 0
AnchorPoint: "Anchor-0" 395 -170 basechar 0
LayerCount: 2
Fore
SplineSet
731 358 m 0,0,1
 731 234 731 234 684.5 144.5 c 128,-1,2
 638 55 638 55 543 17 c 1,3,-1
 715 -170 l 1,4,-1
 545 -170 l 1,5,-1
 412 -10 l 1,6,-1
 395 -10 l 2,7,8
 280 -10 280 -10 206 36 c 128,-1,9
 132 82 132 82 95.5 165 c 128,-1,10
 59 248 59 248 59 359 c 0,11,12
 59 469 59 469 95.5 551.5 c 128,-1,13
 132 634 132 634 206.5 679.5 c 128,-1,14
 281 725 281 725 396 725 c 0,15,16
 509 725 509 725 583.5 679.5 c 128,-1,17
 658 634 658 634 694.5 551.5 c 128,-1,18
 731 469 731 469 731 358 c 0,0,1
194 358 m 256,19,20
 194 237 194 237 242.5 168 c 128,-1,21
 291 99 291 99 395 99 c 0,22,23
 502 99 502 99 549 168 c 128,-1,24
 596 237 596 237 596 358 c 256,25,26
 596 479 596 479 549 548 c 128,-1,27
 502 617 502 617 396 617 c 0,28,29
 291 617 291 617 242.5 548 c 128,-1,30
 194 479 194 479 194 358 c 256,19,20
EndSplineSet
Substitution2: "'c2sc' Capitals to Small Capitals lookup 33 subtable" q.sc
EndChar

StartChar: R
Encoding: 82 82 53
Width: 646
GlyphClass: 2
Flags: W
AnchorPoint: "Anchor-3" 626 714 basechar 0
AnchorPoint: "Anchor-2" 328 714 basechar 0
AnchorPoint: "Anchor-0" 347 0 basechar 0
LayerCount: 2
Fore
SplineSet
296 714 m 2,0,1
 437 714 437 714 504.5 662 c 128,-1,2
 572 610 572 610 572 504 c 0,3,4
 572 452 572 452 552.5 415 c 128,-1,5
 533 378 533 378 501.5 353.5 c 128,-1,6
 470 329 470 329 435 314 c 1,7,-1
 640 0 l 1,8,-1
 496 0 l 1,9,-1
 325 282 l 1,10,-1
 221 282 l 1,11,-1
 221 0 l 1,12,-1
 93 0 l 1,13,-1
 93 714 l 1,14,-1
 296 714 l 2,0,1
288 607 m 2,15,-1
 221 607 l 1,16,-1
 221 387 l 1,17,-1
 292 387 l 2,18,19
 372 387 372 387 407 415.5 c 128,-1,20
 442 444 442 444 442 500 c 0,21,22
 442 558 442 558 404.5 582.5 c 128,-1,23
 367 607 367 607 288 607 c 2,15,-1
EndSplineSet
Substitution2: "'c2sc' Capitals to Small Capitals lookup 33 subtable" r.sc
EndChar

StartChar: S
Encoding: 83 83 54
Width: 550
GlyphClass: 2
Flags: W
AnchorPoint: "Anchor-3" 530 714 basechar 0
AnchorPoint: "Anchor-2" 284 714 basechar 0
AnchorPoint: "Anchor-0" 264 0 basechar 0
LayerCount: 2
Fore
SplineSet
508 195 m 0,0,1
 508 100 508 100 439 45 c 128,-1,2
 370 -10 370 -10 248 -10 c 0,3,4
 130 -10 130 -10 48 30 c 1,5,-1
 48 150 l 1,6,7
 93 130 93 130 147.5 113.5 c 128,-1,8
 202 97 202 97 257 97 c 0,9,10
 322 97 322 97 351.5 122.5 c 128,-1,11
 381 148 381 148 381 188 c 0,12,13
 381 232 381 232 343 258.5 c 128,-1,14
 305 285 305 285 232 316 c 0,15,16
 188 334 188 334 147.5 360.5 c 128,-1,17
 107 387 107 387 81.5 427.5 c 128,-1,18
 56 468 56 468 56 529 c 0,19,20
 56 620 56 620 120.5 672 c 128,-1,21
 185 724 185 724 293 724 c 0,22,23
 349 724 349 724 399.5 712 c 128,-1,24
 450 700 450 700 499 678 c 1,25,-1
 458 575 l 1,26,27
 413 594 413 594 372.5 605 c 128,-1,28
 332 616 332 616 289 616 c 0,29,30
 237 616 237 616 210 593 c 128,-1,31
 183 570 183 570 183 532 c 0,32,33
 183 503 183 503 198 482.5 c 128,-1,34
 213 462 213 462 244.5 445 c 128,-1,35
 276 428 276 428 326 406 c 0,36,37
 384 381 384 381 424.5 353.5 c 128,-1,38
 465 326 465 326 486.5 288.5 c 128,-1,39
 508 251 508 251 508 195 c 0,0,1
EndSplineSet
Substitution2: "'c2sc' Capitals to Small Capitals lookup 33 subtable" s.sc
EndChar

StartChar: T
Encoding: 84 84 55
Width: 570
GlyphClass: 2
Flags: W
AnchorPoint: "Anchor-3" 550 714 basechar 0
AnchorPoint: "Anchor-2" 285 714 basechar 0
AnchorPoint: "Anchor-1" 285 357 basechar 0
AnchorPoint: "Anchor-0" 285 0 basechar 0
LayerCount: 2
Fore
SplineSet
349 0 m 1,0,-1
 221 0 l 1,1,-1
 221 606 l 1,2,-1
 16 606 l 1,3,-1
 16 714 l 1,4,-1
 554 714 l 1,5,-1
 554 606 l 1,6,-1
 349 606 l 1,7,-1
 349 0 l 1,0,-1
EndSplineSet
Substitution2: "'c2sc' Capitals to Small Capitals lookup 33 subtable" t.sc
EndChar

StartChar: U
Encoding: 85 85 56
Width: 747
GlyphClass: 2
Flags: W
AnchorPoint: "Anchor-3" 727 714 basechar 0
AnchorPoint: "Anchor-2" 373 714 basechar 0
AnchorPoint: "Anchor-0" 371 0 basechar 0
LayerCount: 2
Fore
SplineSet
659 714 m 1,0,-1
 659 252 l 2,1,2
 659 178 659 178 627.5 118.5 c 128,-1,3
 596 59 596 59 532 24.5 c 128,-1,4
 468 -10 468 -10 370 -10 c 0,5,6
 231 -10 231 -10 159 62.5 c 128,-1,7
 87 135 87 135 87 254 c 2,8,-1
 87 714 l 1,9,-1
 215 714 l 1,10,-1
 215 267 l 2,11,12
 215 179 215 179 254.5 139 c 128,-1,13
 294 99 294 99 374 99 c 0,14,15
 457 99 457 99 494.5 142.5 c 128,-1,16
 532 186 532 186 532 268 c 2,17,-1
 532 714 l 1,18,-1
 659 714 l 1,0,-1
EndSplineSet
Substitution2: "'c2sc' Capitals to Small Capitals lookup 33 subtable" u.sc
EndChar

StartChar: V
Encoding: 86 86 57
Width: 631
GlyphClass: 2
Flags: W
AnchorPoint: "Anchor-3" 611 714 basechar 0
AnchorPoint: "Anchor-2" 317 714 basechar 0
AnchorPoint: "Anchor-0" 314 0 basechar 0
LayerCount: 2
Fore
SplineSet
631 714 m 1,0,-1
 384 0 l 1,1,-1
 247 0 l 1,2,-1
 0 714 l 1,3,-1
 131 714 l 1,4,-1
 275 277 l 2,5,6
 281 259 281 259 289 230.5 c 128,-1,7
 297 202 297 202 304.5 172 c 128,-1,8
 312 142 312 142 316 120 c 1,9,10
 320 142 320 142 327 171.5 c 128,-1,11
 334 201 334 201 342 229.5 c 128,-1,12
 350 258 350 258 356 277 c 2,13,-1
 500 714 l 1,14,-1
 631 714 l 1,0,-1
EndSplineSet
Substitution2: "'c2sc' Capitals to Small Capitals lookup 33 subtable" v.sc
EndChar

StartChar: W
Encoding: 87 87 58
Width: 953
GlyphClass: 2
Flags: W
AnchorPoint: "Anchor-3" 933 714 basechar 0
AnchorPoint: "Anchor-2" 477 714 basechar 0
AnchorPoint: "Anchor-0" 473 0 basechar 0
LayerCount: 2
Fore
SplineSet
948 714 m 1,0,-1
 763 0 l 1,1,-1
 622 0 l 1,2,-1
 509 410 l 2,3,4
 504 430 504 430 496.5 461.5 c 128,-1,5
 489 493 489 493 482.5 522.5 c 128,-1,6
 476 552 476 552 475 567 c 1,7,8
 473 552 473 552 467 522.5 c 128,-1,9
 461 493 461 493 454 461.5 c 128,-1,10
 447 430 447 430 441 408 c 2,11,-1
 331 0 l 1,12,-1
 189 0 l 1,13,-1
 5 714 l 1,14,-1
 133 714 l 1,15,-1
 231 307 l 2,16,17
 238 281 238 281 244.5 248 c 128,-1,18
 251 215 251 215 257 182.5 c 128,-1,19
 263 150 263 150 266 126 c 1,20,21
 269 152 269 152 275 184.5 c 128,-1,22
 281 217 281 217 287.5 248.5 c 128,-1,23
 294 280 294 280 301 302 c 2,24,-1
 413 714 l 1,25,-1
 537 714 l 1,26,-1
 651 301 l 2,27,28
 658 278 658 278 665 246 c 128,-1,29
 672 214 672 214 678 182 c 128,-1,30
 684 150 684 150 687 126 c 1,31,32
 690 150 690 150 696 182.5 c 128,-1,33
 702 215 702 215 709 247.5 c 128,-1,34
 716 280 716 280 722 307 c 2,35,-1
 820 714 l 1,36,-1
 948 714 l 1,0,-1
EndSplineSet
Substitution2: "'c2sc' Capitals to Small Capitals lookup 33 subtable" w.sc
EndChar

StartChar: X
Encoding: 88 88 59
Width: 636
GlyphClass: 2
Flags: W
AnchorPoint: "Anchor-3" 616 714 basechar 0
AnchorPoint: "Anchor-2" 318 714 basechar 0
AnchorPoint: "Anchor-0" 319 0 basechar 0
LayerCount: 2
Fore
SplineSet
635 0 m 1,0,-1
 489 0 l 1,1,-1
 314 285 l 1,2,-1
 138 0 l 1,3,-1
 2 0 l 1,4,-1
 239 370 l 1,5,-1
 17 714 l 1,6,-1
 158 714 l 1,7,-1
 320 448 l 1,8,-1
 481 714 l 1,9,-1
 618 714 l 1,10,-1
 395 365 l 1,11,-1
 635 0 l 1,0,-1
EndSplineSet
Substitution2: "'c2sc' Capitals to Small Capitals lookup 33 subtable" x.sc
EndChar

StartChar: Y
Encoding: 89 89 60
Width: 602
GlyphClass: 2
Flags: W
AnchorPoint: "Anchor-3" 582 714 basechar 0
AnchorPoint: "Anchor-2" 301 714 basechar 0
AnchorPoint: "Anchor-0" 301 0 basechar 0
LayerCount: 2
Fore
SplineSet
301 399 m 1,0,-1
 464 714 l 1,1,-1
 602 714 l 1,2,-1
 365 278 l 1,3,-1
 365 0 l 1,4,-1
 237 0 l 1,5,-1
 237 273 l 1,6,-1
 0 714 l 1,7,-1
 139 714 l 1,8,-1
 301 399 l 1,0,-1
EndSplineSet
Substitution2: "'c2sc' Capitals to Small Capitals lookup 33 subtable" y.sc
EndChar

StartChar: Z
Encoding: 90 90 61
Width: 576
GlyphClass: 2
Flags: W
AnchorPoint: "Anchor-3" 556 714 basechar 0
AnchorPoint: "Anchor-2" 293 714 basechar 0
AnchorPoint: "Anchor-0" 303 0 basechar 0
LayerCount: 2
Fore
SplineSet
547 0 m 1,0,-1
 29 0 l 1,1,-1
 29 87 l 1,2,-1
 384 606 l 1,3,-1
 39 606 l 1,4,-1
 39 714 l 1,5,-1
 537 714 l 1,6,-1
 537 627 l 1,7,-1
 183 108 l 1,8,-1
 547 108 l 1,9,-1
 547 0 l 1,0,-1
EndSplineSet
Substitution2: "'c2sc' Capitals to Small Capitals lookup 33 subtable" z.sc
EndChar

StartChar: bracketleft
Encoding: 91 91 62
Width: 330
Flags: W
LayerCount: 2
Fore
SplineSet
305 -158 m 1,0,-1
 74 -158 l 1,1,-1
 74 714 l 1,2,-1
 305 714 l 1,3,-1
 305 623 l 1,4,-1
 185 623 l 1,5,-1
 185 -67 l 1,6,-1
 305 -67 l 1,7,-1
 305 -158 l 1,0,-1
EndSplineSet
Substitution2: "'smcp' Lowercase to Small Capitals lookup 34 subtable" bracketleft.sc
Substitution2: "'c2sc' Capitals to Small Capitals lookup 33 subtable" bracketleft.sc
EndChar

StartChar: backslash
Encoding: 92 92 63
Width: 398
Flags: W
LayerCount: 2
Fore
SplineSet
124 714 m 1,0,-1
 390 0 l 1,1,-1
 274 0 l 1,2,-1
 8 714 l 1,3,-1
 124 714 l 1,0,-1
EndSplineSet
EndChar

StartChar: bracketright
Encoding: 93 93 64
Width: 330
Flags: W
LayerCount: 2
Fore
SplineSet
25 -67 m 1,0,-1
 145 -67 l 1,1,-1
 145 623 l 1,2,-1
 25 623 l 1,3,-1
 25 714 l 1,4,-1
 256 714 l 1,5,-1
 256 -158 l 1,6,-1
 25 -158 l 1,7,-1
 25 -67 l 1,0,-1
EndSplineSet
Substitution2: "'smcp' Lowercase to Small Capitals lookup 34 subtable" bracketright.sc
Substitution2: "'c2sc' Capitals to Small Capitals lookup 33 subtable" bracketright.sc
EndChar

StartChar: asciicircum
Encoding: 94 94 65
Width: 572
Flags: W
LayerCount: 2
Fore
SplineSet
29 259 m 1,0,-1
 242 718 l 1,1,-1
 304 718 l 1,2,-1
 543 259 l 1,3,-1
 441 259 l 1,4,-1
 275 590 l 1,5,-1
 130 259 l 1,6,-1
 29 259 l 1,0,-1
EndSplineSet
EndChar

StartChar: underscore
Encoding: 95 95 66
Width: 423
Flags: W
LayerCount: 2
Fore
SplineSet
425 -156 m 1,0,-1
 -2 -156 l 1,1,-1
 -2 -90 l 1,2,-1
 425 -90 l 1,3,-1
 425 -156 l 1,0,-1
EndSplineSet
EndChar

StartChar: grave
Encoding: 96 96 67
Width: 331
Flags: W
LayerCount: 2
Fore
SplineSet
184 766 m 1,0,1
 197 744 197 744 216 716.5 c 128,-1,2
 235 689 235 689 255.5 663.5 c 128,-1,3
 276 638 276 638 291 619 c 1,4,-1
 291 606 l 1,5,-1
 208 606 l 1,6,7
 183 624 183 624 149.5 652 c 128,-1,8
 116 680 116 680 86 709 c 128,-1,9
 56 738 56 738 40 756 c 1,10,-1
 40 766 l 1,11,-1
 184 766 l 1,0,1
EndSplineSet
EndChar

StartChar: a
Encoding: 97 97 68
Width: 588
GlyphClass: 2
Flags: W
AnchorPoint: "Anchor-3" 538 542 basechar 0
AnchorPoint: "Anchor-2" 294 542 basechar 0
AnchorPoint: "Anchor-0" 294 0 basechar 0
LayerCount: 2
Fore
SplineSet
297 552 m 0,0,1
 402 552 402 552 456.5 506 c 128,-1,2
 511 460 511 460 511 364 c 2,3,-1
 511 0 l 1,4,-1
 422 0 l 1,5,-1
 397 75 l 1,6,-1
 393 75 l 1,7,8
 358 31 358 31 319 10.5 c 128,-1,9
 280 -10 280 -10 213 -10 c 0,10,11
 140 -10 140 -10 92 31 c 128,-1,12
 44 72 44 72 44 158 c 0,13,14
 44 242 44 242 105.5 284 c 128,-1,15
 167 326 167 326 292 331 c 2,16,-1
 386 334 l 1,17,-1
 386 361 l 2,18,19
 386 413 386 413 361 435 c 128,-1,20
 336 457 336 457 291 457 c 0,21,22
 250 457 250 457 212.5 445.5 c 128,-1,23
 175 434 175 434 138 417 c 1,24,-1
 98 505 l 1,25,26
 138 526 138 526 189.5 539 c 128,-1,27
 241 552 241 552 297 552 c 0,0,1
386 256 m 1,28,-1
 320 254 l 2,29,30
 237 251 237 251 205 225.5 c 128,-1,31
 173 200 173 200 173 157 c 0,32,33
 173 118 173 118 195.5 101.5 c 128,-1,34
 218 85 218 85 255 85 c 0,35,36
 310 85 310 85 348 116.5 c 128,-1,37
 386 148 386 148 386 210 c 2,38,-1
 386 256 l 1,28,-1
EndSplineSet
Substitution2: "'smcp' Lowercase to Small Capitals lookup 34 subtable" a.sc
Substitution2: "Single Substitution lookup 28 subtable" ordfeminine
EndChar

StartChar: b
Encoding: 98 98 69
Width: 626
GlyphClass: 2
Flags: W
AnchorPoint: "Anchor-3" 532 760 basechar 0
AnchorPoint: "Anchor-2" 330 760 basechar 0
AnchorPoint: "Anchor-0" 329 0 basechar 0
LayerCount: 2
Fore
SplineSet
207 760 m 1,0,-1
 207 580 l 2,1,2
 207 548 207 548 205 518 c 128,-1,3
 203 488 203 488 201 471 c 1,4,-1
 207 471 l 1,5,6
 229 505 229 505 267 528.5 c 128,-1,7
 305 552 305 552 366 552 c 0,8,9
 460 552 460 552 518.5 481 c 128,-1,10
 577 410 577 410 577 272 c 0,11,12
 577 132 577 132 518 61 c 128,-1,13
 459 -10 459 -10 363 -10 c 0,14,15
 302 -10 302 -10 265.5 12 c 128,-1,16
 229 34 229 34 207 63 c 1,17,-1
 198 63 l 1,18,-1
 175 0 l 1,19,-1
 81 0 l 1,20,-1
 81 760 l 1,21,-1
 207 760 l 1,0,-1
330 450 m 0,22,23
 262 450 262 450 235 409 c 128,-1,24
 208 368 208 368 207 283 c 2,25,-1
 207 272 l 2,26,27
 207 185 207 185 233.5 139 c 128,-1,28
 260 93 260 93 332 93 c 0,29,30
 388 93 388 93 418 139.5 c 128,-1,31
 448 186 448 186 448 273 c 0,32,33
 448 362 448 362 417.5 406 c 128,-1,34
 387 450 387 450 330 450 c 0,22,23
EndSplineSet
Substitution2: "'smcp' Lowercase to Small Capitals lookup 34 subtable" b.sc
EndChar

StartChar: c
Encoding: 99 99 70
Width: 501
GlyphClass: 2
Flags: W
AnchorPoint: "Anchor-3" 475 542 basechar 0
AnchorPoint: "Anchor-2" 286 542 basechar 0
AnchorPoint: "Anchor-0" 287 0 basechar 0
LayerCount: 2
Fore
SplineSet
300 -10 m 0,0,1
 184 -10 184 -10 116.5 57 c 128,-1,2
 49 124 49 124 49 268 c 0,3,4
 49 368 49 368 82.5 430.5 c 128,-1,5
 116 493 116 493 175 522.5 c 128,-1,6
 234 552 234 552 310 552 c 0,7,8
 360 552 360 552 400.5 542 c 128,-1,9
 441 532 441 532 469 518 c 1,10,-1
 432 419 l 1,11,12
 400 431 400 431 369 439.5 c 128,-1,13
 338 448 338 448 310 448 c 0,14,15
 178 448 178 448 178 269 c 0,16,17
 178 182 178 182 211.5 138 c 128,-1,18
 245 94 245 94 308 94 c 0,19,20
 353 94 353 94 388.5 105 c 128,-1,21
 424 116 424 116 455 135 c 1,22,-1
 455 26 l 1,23,24
 424 7 424 7 388 -1.5 c 128,-1,25
 352 -10 352 -10 300 -10 c 0,0,1
EndSplineSet
Substitution2: "'smcp' Lowercase to Small Capitals lookup 34 subtable" c.sc
EndChar

StartChar: d
Encoding: 100 100 71
Width: 626
GlyphClass: 2
Flags: W
AnchorPoint: "Anchor-3" 572 760 basechar 0
AnchorPoint: "Anchor-2" 258 760 basechar 0
AnchorPoint: "Anchor-1" 314 271 basechar 0
AnchorPoint: "Anchor-0" 298 0 basechar 0
LayerCount: 2
Fore
SplineSet
260 -10 m 0,0,1
 166 -10 166 -10 107.5 60.5 c 128,-1,2
 49 131 49 131 49 270 c 0,3,4
 49 410 49 410 108 481 c 128,-1,5
 167 552 167 552 263 552 c 0,6,7
 323 552 323 552 361.5 529 c 128,-1,8
 400 506 400 506 423 473 c 1,9,-1
 429 473 l 1,10,11
 426 487 426 487 423 515.5 c 128,-1,12
 420 544 420 544 420 570 c 2,13,-1
 420 760 l 1,14,-1
 546 760 l 1,15,-1
 546 0 l 1,16,-1
 448 0 l 1,17,-1
 425 71 l 1,18,-1
 420 71 l 1,19,20
 397 37 397 37 359 13.5 c 128,-1,21
 321 -10 321 -10 260 -10 c 0,0,1
298 92 m 0,22,23
 368 92 368 92 396.5 132 c 128,-1,24
 425 172 425 172 426 253 c 2,25,-1
 426 269 l 2,26,27
 426 356 426 356 398.5 402.5 c 128,-1,28
 371 449 371 449 296 449 c 0,29,30
 238 449 238 449 207.5 401.5 c 128,-1,31
 177 354 177 354 177 268 c 256,32,33
 177 182 177 182 208 137 c 128,-1,34
 239 92 239 92 298 92 c 0,22,23
EndSplineSet
Substitution2: "'smcp' Lowercase to Small Capitals lookup 34 subtable" d.sc
EndChar

StartChar: e
Encoding: 101 101 72
Width: 581
GlyphClass: 2
Flags: W
AnchorPoint: "Anchor-3" 561 542 basechar 0
AnchorPoint: "Anchor-2" 292 542 basechar 0
AnchorPoint: "Anchor-0" 298 0 basechar 0
LayerCount: 2
Fore
SplineSet
299 552 m 0,0,1
 408 552 408 552 471.5 487 c 128,-1,2
 535 422 535 422 535 306 c 2,3,-1
 535 242 l 1,4,-1
 177 242 l 1,5,6
 179 168 179 168 218 127.5 c 128,-1,7
 257 87 257 87 326 87 c 0,8,9
 378 87 378 87 420 97.5 c 128,-1,10
 462 108 462 108 506 128 c 1,11,-1
 506 27 l 1,12,13
 466 8 466 8 423 -1 c 128,-1,14
 380 -10 380 -10 320 -10 c 0,15,16
 240 -10 240 -10 179 20.5 c 128,-1,17
 118 51 118 51 83.5 112.5 c 128,-1,18
 49 174 49 174 49 267 c 0,19,20
 49 406 49 406 117.5 479 c 128,-1,21
 186 552 186 552 299 552 c 0,0,1
299 459 m 0,22,23
 248 459 248 459 216.5 426.5 c 128,-1,24
 185 394 185 394 180 330 c 1,25,-1
 413 330 l 1,26,27
 412 386 412 386 384.5 422.5 c 128,-1,28
 357 459 357 459 299 459 c 0,22,23
EndSplineSet
Substitution2: "'smcp' Lowercase to Small Capitals lookup 34 subtable" e.sc
EndChar

StartChar: f
Encoding: 102 102 73
Width: 371
GlyphClass: 2
Flags: W
AnchorPoint: "Anchor-3" 402 765 basechar 0
AnchorPoint: "Anchor-2" 263 765 basechar 0
AnchorPoint: "Anchor-0" 167 0 basechar 0
LayerCount: 2
Fore
SplineSet
362 447 m 1,0,-1
 231 447 l 1,1,-1
 231 0 l 1,2,-1
 105 0 l 1,3,-1
 105 447 l 1,4,-1
 18 447 l 1,5,-1
 18 507 l 1,6,-1
 105 543 l 1,7,-1
 105 580 l 2,8,9
 105 684 105 684 154.5 724.5 c 128,-1,10
 204 765 204 765 290 765 c 0,11,12
 329 765 329 765 361.5 758.5 c 128,-1,13
 394 752 394 752 415 744 c 1,14,-1
 383 650 l 1,15,16
 366 655 366 655 345.5 659.5 c 128,-1,17
 325 664 325 664 301 664 c 0,18,19
 264 664 264 664 247.5 641.5 c 128,-1,20
 231 619 231 619 231 577 c 2,21,-1
 231 542 l 1,22,-1
 362 542 l 1,23,-1
 362 447 l 1,0,-1
EndSplineSet
Substitution2: "'smcp' Lowercase to Small Capitals lookup 34 subtable" f.sc
EndChar

StartChar: g
Encoding: 103 103 74
Width: 626
GlyphClass: 2
Flags: W
AnchorPoint: "Anchor-3" 571 542 basechar 0
AnchorPoint: "Anchor-2" 308 542 basechar 0
AnchorPoint: "Anchor-0" 297 -240 basechar 0
LayerCount: 2
Fore
SplineSet
263 552 m 0,0,1
 368 552 368 552 424 472 c 1,2,-1
 429 472 l 1,3,-1
 441 542 l 1,4,-1
 546 542 l 1,5,-1
 546 -4 l 2,6,7
 546 -120 546 -120 481 -180 c 128,-1,8
 416 -240 416 -240 285 -240 c 0,9,10
 227 -240 227 -240 178 -232.5 c 128,-1,11
 129 -225 129 -225 85 -207 c 1,12,-1
 85 -103 l 1,13,14
 131 -123 131 -123 183.5 -134 c 128,-1,15
 236 -145 236 -145 293 -145 c 0,16,17
 354 -145 354 -145 387 -110.5 c 128,-1,18
 420 -76 420 -76 420 -10 c 2,19,-1
 420 4 l 2,20,21
 420 19 420 19 421 39 c 128,-1,22
 422 59 422 59 424 71 c 1,23,-1
 420 71 l 1,24,25
 392 29 392 29 351.5 9.5 c 128,-1,26
 311 -10 311 -10 260 -10 c 0,27,28
 161 -10 161 -10 105 64 c 128,-1,29
 49 138 49 138 49 270 c 256,30,31
 49 402 49 402 105.5 477 c 128,-1,32
 162 552 162 552 263 552 c 0,0,1
296 449 m 0,33,34
 178 449 178 449 178 268 c 0,35,36
 178 90 178 90 298 90 c 0,37,38
 364 90 364 90 395.5 126.5 c 128,-1,39
 427 163 427 163 427 250 c 2,40,-1
 427 269 l 2,41,42
 427 365 427 365 395.5 407 c 128,-1,43
 364 449 364 449 296 449 c 0,33,34
EndSplineSet
Substitution2: "'smcp' Lowercase to Small Capitals lookup 34 subtable" g.sc
EndChar

StartChar: h
Encoding: 104 104 75
Width: 642
GlyphClass: 2
Flags: W
AnchorPoint: "Anchor-3" 552 760 basechar 0
AnchorPoint: "Anchor-2" 146 760 basechar 0
AnchorPoint: "Anchor-1" 321 271 basechar 0
AnchorPoint: "Anchor-0" 323 0 basechar 0
LayerCount: 2
Fore
SplineSet
207 760 m 1,0,-1
 207 579 l 2,1,2
 207 547 207 547 204.5 516.5 c 128,-1,3
 202 486 202 486 200 471 c 1,4,-1
 208 471 l 1,5,6
 234 512 234 512 276 532 c 128,-1,7
 318 552 318 552 369 552 c 0,8,9
 461 552 461 552 513 504.5 c 128,-1,10
 565 457 565 457 565 353 c 2,11,-1
 565 0 l 1,12,-1
 439 0 l 1,13,-1
 439 328 l 2,14,15
 439 389 439 389 415 419.5 c 128,-1,16
 391 450 391 450 339 450 c 0,17,18
 263 450 263 450 235 402 c 128,-1,19
 207 354 207 354 207 265 c 2,20,-1
 207 0 l 1,21,-1
 81 0 l 1,22,-1
 81 760 l 1,23,-1
 207 760 l 1,0,-1
EndSplineSet
Substitution2: "'smcp' Lowercase to Small Capitals lookup 34 subtable" h.sc
Substitution2: "'subs' Subscript lookup 18 subtable" uni2095
EndChar

StartChar: i
Encoding: 105 105 76
Width: 287
GlyphClass: 2
Flags: W
AnchorPoint: "Anchor-3" 267 751 basechar 0
AnchorPoint: "Anchor-2" 144 751 basechar 0
AnchorPoint: "Anchor-0" 146 0 basechar 0
LayerCount: 2
Fore
SplineSet
144 751 m 0,0,1
 172 751 172 751 193 736.5 c 128,-1,2
 214 722 214 722 214 685 c 256,3,4
 214 648 214 648 193 633 c 128,-1,5
 172 618 172 618 144 618 c 0,6,7
 115 618 115 618 94.5 633 c 128,-1,8
 74 648 74 648 74 685 c 256,9,10
 74 722 74 722 94.5 736.5 c 128,-1,11
 115 751 115 751 144 751 c 0,0,1
207 542 m 1,12,-1
 207 0 l 1,13,-1
 81 0 l 1,14,-1
 81 542 l 1,15,-1
 207 542 l 1,12,-1
EndSplineSet
Substitution2: "'smcp' Lowercase to Small Capitals lookup 34 subtable" i.sc
Substitution2: "Single Substitution lookup 5 subtable" dotlessi
Substitution2: "Single Substitution lookup 4 subtable" dotlessi
EndChar

StartChar: j
Encoding: 106 106 77
Width: 287
GlyphClass: 2
Flags: W
AnchorPoint: "Anchor-3" 267 751 basechar 0
AnchorPoint: "Anchor-2" 144 751 basechar 0
AnchorPoint: "Anchor-0" 29 -240 basechar 0
LayerCount: 2
Fore
SplineSet
74 685 m 256,0,1
 74 722 74 722 94.5 736.5 c 128,-1,2
 115 751 115 751 144 751 c 0,3,4
 172 751 172 751 193 736.5 c 128,-1,5
 214 722 214 722 214 685 c 256,6,7
 214 648 214 648 193 633 c 128,-1,8
 172 618 172 618 144 618 c 0,9,10
 115 618 115 618 94.5 633 c 128,-1,11
 74 648 74 648 74 685 c 256,0,1
29 -240 m 0,12,13
 4 -240 4 -240 -20 -236.5 c 128,-1,14
 -44 -233 -44 -233 -61 -228 c 1,15,-1
 -61 -128 l 1,16,17
 -44 -132 -44 -132 -28 -135 c 128,-1,18
 -12 -138 -12 -138 8 -138 c 0,19,20
 39 -138 39 -138 60 -121 c 128,-1,21
 81 -104 81 -104 81 -54 c 2,22,-1
 81 542 l 1,23,-1
 207 542 l 1,24,-1
 207 -67 l 2,25,26
 207 -142 207 -142 165.5 -191 c 128,-1,27
 124 -240 124 -240 29 -240 c 0,12,13
EndSplineSet
Substitution2: "'smcp' Lowercase to Small Capitals lookup 34 subtable" j.sc
Substitution2: "Single Substitution lookup 5 subtable" uni0237
Substitution2: "Single Substitution lookup 4 subtable" uni0237
EndChar

StartChar: k
Encoding: 107 107 78
Width: 588
GlyphClass: 2
Flags: W
AnchorPoint: "Anchor-3" 584 760 basechar 0
AnchorPoint: "Anchor-2" 148 760 basechar 0
AnchorPoint: "Anchor-0" 294 0 basechar 0
LayerCount: 2
Fore
SplineSet
206 760 m 1,0,-1
 206 399 l 2,1,2
 206 374 206 374 204 344.5 c 128,-1,3
 202 315 202 315 200 289 c 1,4,-1
 203 289 l 1,5,6
 216 307 216 307 233 330 c 128,-1,7
 250 353 250 353 267 371 c 2,8,-1
 427 542 l 1,9,-1
 570 542 l 1,10,-1
 353 308 l 1,11,-1
 584 0 l 1,12,-1
 437 0 l 1,13,-1
 269 232 l 1,14,-1
 206 180 l 1,15,-1
 206 0 l 1,16,-1
 81 0 l 1,17,-1
 81 760 l 1,18,-1
 206 760 l 1,0,-1
EndSplineSet
Substitution2: "'smcp' Lowercase to Small Capitals lookup 34 subtable" k.sc
Substitution2: "'subs' Subscript lookup 18 subtable" uni2096
EndChar

StartChar: l
Encoding: 108 108 79
Width: 349
GlyphClass: 2
Flags: W
AnchorPoint: "Anchor-0" 144 -8 basechar 0
AnchorPoint: "Anchor-2" 144 760 basechar 0
LayerCount: 2
Fore
SplineSet
232 -8 m 0,0,1
 150 -8 150 -8 115.5 35 c 128,-1,2
 81 78 81 78 81 165 c 2,3,-1
 81 760 l 1,4,-1
 206 760 l 1,5,-1
 206 167 l 2,6,7
 206 132 206 132 217 112.5 c 128,-1,8
 228 93 228 93 259 93 c 0,9,10
 266 93 266 93 280.5 96.5 c 128,-1,11
 295 100 295 100 309 104 c 1,12,-1
 309 7 l 1,13,14
 277 -8 277 -8 232 -8 c 0,0,1
EndSplineSet
Substitution2: "'smcp' Lowercase to Small Capitals lookup 34 subtable" l.sc
Substitution2: "'subs' Subscript lookup 18 subtable" uni2097
EndChar

StartChar: m
Encoding: 109 109 80
Width: 964
GlyphClass: 2
Flags: W
AnchorPoint: "Anchor-3" 914 542 basechar 0
AnchorPoint: "Anchor-2" 493 542 basechar 0
AnchorPoint: "Anchor-0" 485 0 basechar 0
LayerCount: 2
Fore
SplineSet
702 552 m 0,0,1
 794 552 794 552 840.5 505 c 128,-1,2
 887 458 887 458 887 353 c 2,3,-1
 887 0 l 1,4,-1
 761 0 l 1,5,-1
 761 329 l 2,6,7
 761 450 761 450 669 450 c 0,8,9
 603 450 603 450 575 407 c 128,-1,10
 547 364 547 364 547 282 c 2,11,-1
 547 0 l 1,12,-1
 421 0 l 1,13,-1
 421 329 l 2,14,15
 421 450 421 450 328 450 c 0,16,17
 259 450 259 450 233 402 c 128,-1,18
 207 354 207 354 207 265 c 2,19,-1
 207 0 l 1,20,-1
 81 0 l 1,21,-1
 81 542 l 1,22,-1
 178 542 l 1,23,-1
 196 471 l 1,24,-1
 203 471 l 1,25,26
 228 513 228 513 271 532.5 c 128,-1,27
 314 552 314 552 361 552 c 0,28,29
 422 552 422 552 463.5 532 c 128,-1,30
 505 512 505 512 527 468 c 1,31,-1
 537 468 l 1,32,33
 562 512 562 512 607 532 c 128,-1,34
 652 552 652 552 702 552 c 0,0,1
EndSplineSet
Substitution2: "'smcp' Lowercase to Small Capitals lookup 34 subtable" m.sc
Substitution2: "'subs' Subscript lookup 18 subtable" uni2098
EndChar

StartChar: n
Encoding: 110 110 81
Width: 642
GlyphClass: 2
Flags: W
AnchorPoint: "Anchor-3" 590 542 basechar 0
AnchorPoint: "Anchor-2" 321 542 basechar 0
AnchorPoint: "Anchor-0" 321 0 basechar 0
LayerCount: 2
Fore
SplineSet
371 552 m 0,0,1
 462 552 462 552 513.5 505 c 128,-1,2
 565 458 565 458 565 353 c 2,3,-1
 565 0 l 1,4,-1
 439 0 l 1,5,-1
 439 328 l 2,6,7
 439 389 439 389 415 419.5 c 128,-1,8
 391 450 391 450 339 450 c 0,9,10
 263 450 263 450 235 402 c 128,-1,11
 207 354 207 354 207 265 c 2,12,-1
 207 0 l 1,13,-1
 81 0 l 1,14,-1
 81 542 l 1,15,-1
 178 542 l 1,16,-1
 196 471 l 1,17,-1
 203 471 l 1,18,19
 229 513 229 513 274.5 532.5 c 128,-1,20
 320 552 320 552 371 552 c 0,0,1
EndSplineSet
Substitution2: "'smcp' Lowercase to Small Capitals lookup 34 subtable" n.sc
Substitution2: "'sups' Superscript lookup 19 subtable" nsuperior
Substitution2: "'subs' Subscript lookup 18 subtable" uni2099
EndChar

StartChar: o
Encoding: 111 111 82
Width: 614
GlyphClass: 2
Flags: W
AnchorPoint: "Anchor-3" 590 542 basechar 0
AnchorPoint: "Anchor-2" 307 542 basechar 0
AnchorPoint: "Anchor-1" 307 271 basechar 0
AnchorPoint: "Anchor-0" 307 0 basechar 0
LayerCount: 2
Fore
SplineSet
565 272 m 0,0,1
 565 137 565 137 495 63.5 c 128,-1,2
 425 -10 425 -10 305 -10 c 0,3,4
 231 -10 231 -10 173 23 c 128,-1,5
 115 56 115 56 82 119 c 128,-1,6
 49 182 49 182 49 272 c 0,7,8
 49 407 49 407 118.5 479.5 c 128,-1,9
 188 552 188 552 308 552 c 0,10,11
 383 552 383 552 441 519.5 c 128,-1,12
 499 487 499 487 532 424.5 c 128,-1,13
 565 362 565 362 565 272 c 0,0,1
178 272 m 256,14,15
 178 186 178 186 208.5 139 c 128,-1,16
 239 92 239 92 307 92 c 0,17,18
 374 92 374 92 405 139 c 128,-1,19
 436 186 436 186 436 272 c 256,20,21
 436 358 436 358 405 404 c 128,-1,22
 374 450 374 450 306 450 c 256,23,24
 238 450 238 450 208 404 c 128,-1,25
 178 358 178 358 178 272 c 256,14,15
EndSplineSet
Substitution2: "'smcp' Lowercase to Small Capitals lookup 34 subtable" o.sc
Substitution2: "Single Substitution lookup 28 subtable" ordmasculine
EndChar

StartChar: p
Encoding: 112 112 83
Width: 626
GlyphClass: 2
Flags: W
AnchorPoint: "Anchor-3" 602 542 basechar 0
AnchorPoint: "Anchor-2" 337 542 basechar 0
AnchorPoint: "Anchor-0" 145 -240 basechar 0
LayerCount: 2
Fore
SplineSet
366 552 m 0,0,1
 461 552 461 552 519 481.5 c 128,-1,2
 577 411 577 411 577 272 c 256,3,4
 577 133 577 133 517.5 61.5 c 128,-1,5
 458 -10 458 -10 363 -10 c 0,6,7
 303 -10 303 -10 266 12 c 128,-1,8
 229 34 229 34 207 63 c 1,9,-1
 199 63 l 1,10,11
 202 44 202 44 204.5 22 c 128,-1,12
 207 0 207 0 207 -20 c 2,13,-1
 207 -240 l 1,14,-1
 81 -240 l 1,15,-1
 81 542 l 1,16,-1
 183 542 l 1,17,-1
 201 470 l 1,18,-1
 207 470 l 1,19,20
 230 504 230 504 267 528 c 128,-1,21
 304 552 304 552 366 552 c 0,0,1
330 450 m 0,22,23
 263 450 263 450 235.5 410 c 128,-1,24
 208 370 208 370 207 289 c 2,25,-1
 207 273 l 2,26,27
 207 186 207 186 233.5 139.5 c 128,-1,28
 260 93 260 93 332 93 c 0,29,30
 391 93 391 93 419.5 141.5 c 128,-1,31
 448 190 448 190 448 274 c 256,32,33
 448 358 448 358 419.5 404 c 128,-1,34
 391 450 391 450 330 450 c 0,22,23
EndSplineSet
Substitution2: "'smcp' Lowercase to Small Capitals lookup 34 subtable" p.sc
Substitution2: "'subs' Subscript lookup 18 subtable" uni209A
EndChar

StartChar: q
Encoding: 113 113 84
Width: 626
GlyphClass: 2
Flags: W
AnchorPoint: "Anchor-3" 571 542 basechar 0
AnchorPoint: "Anchor-2" 314 542 basechar 0
AnchorPoint: "Anchor-0" 482 -240 basechar 0
LayerCount: 2
Fore
SplineSet
420 -240 m 1,0,-1
 420 -11 l 2,1,2
 420 8 420 8 421 30 c 128,-1,3
 422 52 422 52 425 71 c 1,4,-1
 419 71 l 1,5,6
 397 37 397 37 358.5 13.5 c 128,-1,7
 320 -10 320 -10 259 -10 c 0,8,9
 165 -10 165 -10 107 60.5 c 128,-1,10
 49 131 49 131 49 270 c 256,11,12
 49 409 49 409 108.5 480.5 c 128,-1,13
 168 552 168 552 262 552 c 0,14,15
 324 552 324 552 362 528.5 c 128,-1,16
 400 505 400 505 424 471 c 1,17,-1
 428 471 l 1,18,-1
 441 542 l 1,19,-1
 546 542 l 1,20,-1
 546 -240 l 1,21,-1
 420 -240 l 1,0,-1
299 90 m 0,22,23
 368 90 368 90 396 130 c 128,-1,24
 424 170 424 170 426 251 c 2,25,-1
 426 269 l 2,26,27
 426 357 426 357 398 403 c 128,-1,28
 370 449 370 449 297 449 c 0,29,30
 236 449 236 449 207 401.5 c 128,-1,31
 178 354 178 354 178 268 c 0,32,33
 178 181 178 181 207.5 135.5 c 128,-1,34
 237 90 237 90 299 90 c 0,22,23
EndSplineSet
Substitution2: "'smcp' Lowercase to Small Capitals lookup 34 subtable" q.sc
EndChar

StartChar: r
Encoding: 114 114 85
Width: 439
GlyphClass: 2
Flags: W
AnchorPoint: "Anchor-3" 419 542 basechar 0
AnchorPoint: "Anchor-2" 249 542 basechar 0
AnchorPoint: "Anchor-0" 145 0 basechar 0
LayerCount: 2
Fore
SplineSet
365 552 m 0,0,1
 378 552 378 552 394 550.5 c 128,-1,2
 410 549 410 549 420 547 c 1,3,-1
 409 430 l 1,4,5
 399 432 399 432 384.5 433.5 c 128,-1,6
 370 435 370 435 360 435 c 0,7,8
 320 435 320 435 285 418.5 c 128,-1,9
 250 402 250 402 228.5 368 c 128,-1,10
 207 334 207 334 207 281 c 2,11,-1
 207 0 l 1,12,-1
 81 0 l 1,13,-1
 81 542 l 1,14,-1
 178 542 l 1,15,-1
 196 448 l 1,16,-1
 202 448 l 1,17,18
 226 491 226 491 268 521.5 c 128,-1,19
 310 552 310 552 365 552 c 0,0,1
EndSplineSet
Substitution2: "'smcp' Lowercase to Small Capitals lookup 34 subtable" r.sc
EndChar

StartChar: s
Encoding: 115 115 86
Width: 490
GlyphClass: 2
Flags: W
AnchorPoint: "Anchor-3" 450 542 basechar 0
AnchorPoint: "Anchor-2" 246 542 basechar 0
AnchorPoint: "Anchor-0" 246 0 basechar 0
LayerCount: 2
Fore
SplineSet
450 157 m 0,0,1
 450 75 450 75 391.5 32.5 c 128,-1,2
 333 -10 333 -10 224 -10 c 0,3,4
 167 -10 167 -10 126.5 -2 c 128,-1,5
 86 6 86 6 48 23 c 1,6,-1
 48 130 l 1,7,8
 88 111 88 111 136.5 98 c 128,-1,9
 185 85 185 85 228 85 c 0,10,11
 280 85 280 85 303 101 c 128,-1,12
 326 117 326 117 326 144 c 0,13,14
 326 160 326 160 317 172.5 c 128,-1,15
 308 185 308 185 282 200 c 128,-1,16
 256 215 256 215 203 237 c 0,17,18
 151 258 151 258 116.5 279 c 128,-1,19
 82 300 82 300 64.5 329 c 128,-1,20
 47 358 47 358 47 404 c 0,21,22
 47 477 47 477 105 514.5 c 128,-1,23
 163 552 163 552 258 552 c 0,24,25
 308 552 308 552 352.5 542 c 128,-1,26
 397 532 397 532 442 512 c 1,27,-1
 402 419 l 1,28,29
 364 435 364 435 328 446 c 128,-1,30
 292 457 292 457 254 457 c 0,31,32
 171 457 171 457 171 410 c 0,33,34
 171 393 171 393 181.5 381 c 128,-1,35
 192 369 192 369 218.5 355.5 c 128,-1,36
 245 342 245 342 294 323 c 0,37,38
 342 304 342 304 377 283.5 c 128,-1,39
 412 263 412 263 431 233.5 c 128,-1,40
 450 204 450 204 450 157 c 0,0,1
EndSplineSet
Substitution2: "'smcp' Lowercase to Small Capitals lookup 34 subtable" s.sc
Substitution2: "'subs' Subscript lookup 18 subtable" uni209B
EndChar

StartChar: t
Encoding: 116 116 87
Width: 406
GlyphClass: 2
Flags: W
AnchorPoint: "Anchor-3" 373 661 basechar 0
AnchorPoint: "Anchor-2" 181 661 basechar 0
AnchorPoint: "Anchor-1" 203 271 basechar 0
AnchorPoint: "Anchor-0" 231 0 basechar 0
LayerCount: 2
Fore
SplineSet
291 91 m 0,0,1
 314 91 314 91 336.5 95.5 c 128,-1,2
 359 100 359 100 378 106 c 1,3,-1
 378 12 l 1,4,5
 358 2 358 2 326 -4 c 128,-1,6
 294 -10 294 -10 259 -10 c 0,7,8
 212 -10 212 -10 174.5 5 c 128,-1,9
 137 20 137 20 115 58 c 128,-1,10
 93 96 93 96 93 165 c 2,11,-1
 93 447 l 1,12,-1
 20 447 l 1,13,-1
 20 502 l 1,14,-1
 100 546 l 1,15,-1
 140 661 l 1,16,-1
 219 661 l 1,17,-1
 219 542 l 1,18,-1
 373 542 l 1,19,-1
 373 447 l 1,20,-1
 219 447 l 1,21,-1
 219 166 l 2,22,23
 219 128 219 128 239.5 109.5 c 128,-1,24
 260 91 260 91 291 91 c 0,0,1
EndSplineSet
Substitution2: "'smcp' Lowercase to Small Capitals lookup 34 subtable" t.sc
Substitution2: "'subs' Subscript lookup 18 subtable" uni209C
EndChar

StartChar: u
Encoding: 117 117 88
Width: 642
GlyphClass: 2
Flags: W
AnchorPoint: "Anchor-3" 588 542 basechar 0
AnchorPoint: "Anchor-2" 321 542 basechar 0
AnchorPoint: "Anchor-0" 309 0 basechar 0
LayerCount: 2
Fore
SplineSet
562 542 m 1,0,-1
 562 0 l 1,1,-1
 463 0 l 1,2,-1
 446 70 l 1,3,-1
 440 70 l 1,4,5
 414 28 414 28 368 9 c 128,-1,6
 322 -10 322 -10 271 -10 c 0,7,8
 180 -10 180 -10 128.5 37 c 128,-1,9
 77 84 77 84 77 188 c 2,10,-1
 77 542 l 1,11,-1
 203 542 l 1,12,-1
 203 213 l 2,13,14
 203 152 203 152 227 122 c 128,-1,15
 251 92 251 92 303 92 c 0,16,17
 379 92 379 92 407.5 140 c 128,-1,18
 436 188 436 188 436 277 c 2,19,-1
 436 542 l 1,20,-1
 562 542 l 1,0,-1
EndSplineSet
Substitution2: "'smcp' Lowercase to Small Capitals lookup 34 subtable" u.sc
EndChar

StartChar: v
Encoding: 118 118 89
Width: 546
GlyphClass: 2
Flags: W
AnchorPoint: "Anchor-3" 526 542 basechar 0
AnchorPoint: "Anchor-2" 270 542 basechar 0
AnchorPoint: "Anchor-0" 272 0 basechar 0
LayerCount: 2
Fore
SplineSet
206 0 m 1,0,-1
 0 542 l 1,1,-1
 133 542 l 1,2,-1
 241 229 l 2,3,4
 252 200 252 200 260 165 c 128,-1,5
 268 130 268 130 270 106 c 1,6,-1
 274 106 l 1,7,8
 277 132 277 132 286 166 c 128,-1,9
 295 200 295 200 305 229 c 2,10,-1
 413 542 l 1,11,-1
 546 542 l 1,12,-1
 340 0 l 1,13,-1
 206 0 l 1,0,-1
EndSplineSet
Substitution2: "'smcp' Lowercase to Small Capitals lookup 34 subtable" v.sc
EndChar

StartChar: w
Encoding: 119 119 90
Width: 830
GlyphClass: 2
Flags: W
AnchorPoint: "Anchor-3" 810 542 basechar 0
AnchorPoint: "Anchor-2" 415 542 basechar 0
AnchorPoint: "Anchor-0" 415 0 basechar 0
LayerCount: 2
Fore
SplineSet
525 0 m 1,0,-1
 465 233 l 2,1,2
 460 251 460 251 453 280 c 128,-1,3
 446 309 446 309 438.5 340 c 128,-1,4
 431 371 431 371 425 397.5 c 128,-1,5
 419 424 419 424 416 437 c 1,6,-1
 412 437 l 1,7,8
 409 424 409 424 403 397.5 c 128,-1,9
 397 371 397 371 389.5 340 c 128,-1,10
 382 309 382 309 375 280 c 128,-1,11
 368 251 368 251 363 232 c 2,12,-1
 300 0 l 1,13,-1
 162 0 l 1,14,-1
 10 543 l 1,15,-1
 137 543 l 1,16,-1
 204 284 l 2,17,18
 211 257 211 257 217.5 224 c 128,-1,19
 224 191 224 191 229 161 c 128,-1,20
 234 131 234 131 236 112 c 1,21,-1
 240 112 l 1,22,23
 242 130 242 130 247.5 161 c 128,-1,24
 253 192 253 192 259 221.5 c 128,-1,25
 265 251 265 251 269 266 c 2,26,-1
 347 543 l 1,27,-1
 485 543 l 1,28,-1
 560 266 l 2,29,30
 564 248 564 248 570.5 219 c 128,-1,31
 577 190 577 190 582 161 c 128,-1,32
 587 132 587 132 588 113 c 1,33,-1
 592 113 l 1,34,35
 594 130 594 130 599 159.5 c 128,-1,36
 604 189 604 189 611 222.5 c 128,-1,37
 618 256 618 256 626 284 c 2,38,-1
 694 543 l 1,39,-1
 819 543 l 1,40,-1
 665 0 l 1,41,-1
 525 0 l 1,0,-1
EndSplineSet
Substitution2: "'smcp' Lowercase to Small Capitals lookup 34 subtable" w.sc
EndChar

StartChar: x
Encoding: 120 120 91
Width: 560
GlyphClass: 2
Flags: W
AnchorPoint: "Anchor-3" 540 542 basechar 0
AnchorPoint: "Anchor-2" 279 542 basechar 0
AnchorPoint: "Anchor-0" 280 0 basechar 0
LayerCount: 2
Fore
SplineSet
198 277 m 1,0,-1
 19 542 l 1,1,-1
 162 542 l 1,2,-1
 280 358 l 1,3,-1
 398 542 l 1,4,-1
 541 542 l 1,5,-1
 360 277 l 1,6,-1
 550 0 l 1,7,-1
 407 0 l 1,8,-1
 280 197 l 1,9,-1
 153 0 l 1,10,-1
 10 0 l 1,11,-1
 198 277 l 1,0,-1
EndSplineSet
Substitution2: "'smcp' Lowercase to Small Capitals lookup 34 subtable" x.sc
EndChar

StartChar: y
Encoding: 121 121 92
Width: 547
GlyphClass: 2
Flags: W
AnchorPoint: "Anchor-3" 527 542 basechar 0
AnchorPoint: "Anchor-2" 274 542 basechar 0
AnchorPoint: "Anchor-0" 110 -240 basechar 0
LayerCount: 2
Fore
SplineSet
0 542 m 1,0,-1
 137 542 l 1,1,-1
 245 236 l 2,2,3
 256 207 256 207 263 178.5 c 128,-1,4
 270 150 270 150 273 122 c 1,5,-1
 277 122 l 1,6,7
 281 148 281 148 289 177.5 c 128,-1,8
 297 207 297 207 307 236 c 2,9,-1
 411 542 l 1,10,-1
 547 542 l 1,11,-1
 316 -72 l 2,12,13
 285 -153 285 -153 231.5 -196.5 c 128,-1,14
 178 -240 178 -240 100 -240 c 0,15,16
 75 -240 75 -240 56.5 -237.5 c 128,-1,17
 38 -235 38 -235 25 -232 c 1,18,-1
 25 -132 l 1,19,20
 36 -134 36 -134 51.5 -136 c 128,-1,21
 67 -138 67 -138 84 -138 c 0,22,23
 130 -138 130 -138 158 -110.5 c 128,-1,24
 186 -83 186 -83 201 -42 c 2,25,-1
 217 2 l 1,26,-1
 0 542 l 1,0,-1
EndSplineSet
Substitution2: "'smcp' Lowercase to Small Capitals lookup 34 subtable" y.sc
EndChar

StartChar: z
Encoding: 122 122 93
Width: 481
GlyphClass: 2
Flags: W
AnchorPoint: "Anchor-3" 447 542 basechar 0
AnchorPoint: "Anchor-2" 241 542 basechar 0
AnchorPoint: "Anchor-0" 246 0 basechar 0
LayerCount: 2
Fore
SplineSet
448 0 m 1,0,-1
 32 0 l 1,1,-1
 32 77 l 1,2,-1
 298 446 l 1,3,-1
 47 446 l 1,4,-1
 47 542 l 1,5,-1
 440 542 l 1,6,-1
 440 457 l 1,7,-1
 179 97 l 1,8,-1
 448 97 l 1,9,-1
 448 0 l 1,0,-1
EndSplineSet
Substitution2: "'smcp' Lowercase to Small Capitals lookup 34 subtable" z.sc
EndChar

StartChar: braceleft
Encoding: 123 123 94
Width: 389
Flags: W
LayerCount: 2
Fore
SplineSet
352 -158 m 1,0,1
 237 -158 237 -158 190.5 -123 c 128,-1,2
 144 -88 144 -88 144 -13 c 2,3,-1
 144 138 l 2,4,5
 144 187 144 187 112 207.5 c 128,-1,6
 80 228 80 228 20 228 c 1,7,-1
 20 328 l 1,8,9
 80 328 80 328 112 348.5 c 128,-1,10
 144 369 144 369 144 417 c 2,11,-1
 144 570 l 2,12,13
 144 644 144 644 191.5 679 c 128,-1,14
 239 714 239 714 352 714 c 1,15,-1
 352 618 l 1,16,17
 308 617 308 617 282.5 600.5 c 128,-1,18
 257 584 257 584 257 540 c 2,19,-1
 257 395 l 2,20,21
 257 299 257 299 145 281 c 1,22,-1
 145 275 l 1,23,24
 257 258 257 258 257 162 c 2,25,-1
 257 16 l 2,26,27
 257 -29 257 -29 282.5 -45 c 128,-1,28
 308 -61 308 -61 352 -62 c 1,29,-1
 352 -158 l 1,0,1
EndSplineSet
Substitution2: "'smcp' Lowercase to Small Capitals lookup 34 subtable" braceleft.sc
Substitution2: "'c2sc' Capitals to Small Capitals lookup 33 subtable" braceleft.sc
EndChar

StartChar: bar
Encoding: 124 124 95
Width: 551
Flags: W
LayerCount: 2
Fore
SplineSet
228 758 m 1,0,-1
 323 758 l 1,1,-1
 323 -232 l 1,2,-1
 228 -232 l 1,3,-1
 228 758 l 1,0,-1
EndSplineSet
EndChar

StartChar: braceright
Encoding: 125 125 96
Width: 389
Flags: W
LayerCount: 2
Fore
SplineSet
37 -158 m 1,0,-1
 37 -62 l 1,1,2
 80 -61 80 -61 106 -44.5 c 128,-1,3
 132 -28 132 -28 132 16 c 2,4,-1
 132 162 l 2,5,6
 132 257 132 257 244 275 c 1,7,-1
 244 281 l 1,8,9
 132 299 132 299 132 394 c 2,10,-1
 132 540 l 2,11,12
 132 585 132 585 106.5 601 c 128,-1,13
 81 617 81 617 37 618 c 1,14,-1
 37 714 l 1,15,16
 152 714 152 714 198.5 679 c 128,-1,17
 245 644 245 644 245 569 c 2,18,-1
 245 418 l 2,19,20
 245 369 245 369 277 348.5 c 128,-1,21
 309 328 309 328 369 328 c 1,22,-1
 369 228 l 1,23,24
 309 227 309 227 277 207 c 128,-1,25
 245 187 245 187 245 138 c 2,26,-1
 245 -14 l 2,27,28
 245 -88 245 -88 197.5 -123 c 128,-1,29
 150 -158 150 -158 37 -158 c 1,0,-1
EndSplineSet
Substitution2: "'smcp' Lowercase to Small Capitals lookup 34 subtable" braceright.sc
Substitution2: "'c2sc' Capitals to Small Capitals lookup 33 subtable" braceright.sc
EndChar

StartChar: asciitilde
Encoding: 126 126 97
Width: 572
Flags: W
LayerCount: 2
Fore
SplineSet
268 308 m 0,0,1
 232 324 232 324 207 329.5 c 128,-1,2
 182 335 182 335 160 335 c 0,3,4
 132 335 132 335 101 318 c 128,-1,5
 70 301 70 301 46 276 c 1,6,-1
 46 376 l 1,7,8
 94 429 94 429 169 429 c 0,9,10
 198 429 198 429 227 422.5 c 128,-1,11
 256 416 256 416 303 397 c 0,12,13
 339 381 339 381 364 375.5 c 128,-1,14
 389 370 389 370 411 370 c 0,15,16
 440 370 440 370 470.5 387 c 128,-1,17
 501 404 501 404 525 429 c 1,18,-1
 525 330 l 1,19,20
 476 276 476 276 402 276 c 0,21,22
 374 276 374 276 344 282 c 128,-1,23
 314 288 314 288 268 308 c 0,0,1
EndSplineSet
EndChar

StartChar: exclamdown
Encoding: 161 161 99
Width: 280
Flags: W
LayerCount: 2
Fore
SplineSet
216 469 m 0,0,1
 216 426 216 426 193.5 409 c 128,-1,2
 171 392 171 392 139 392 c 0,3,4
 108 392 108 392 85.5 409 c 128,-1,5
 63 426 63 426 63 469 c 0,6,7
 63 510 63 510 85.5 528 c 128,-1,8
 108 546 108 546 139 546 c 0,9,10
 171 546 171 546 193.5 528 c 128,-1,11
 216 510 216 510 216 469 c 0,0,1
90 309 m 1,12,-1
 186 309 l 1,13,-1
 211 -181 l 1,14,-1
 65 -181 l 1,15,-1
 90 309 l 1,12,-1
EndSplineSet
Substitution2: "'smcp' Lowercase to Small Capitals lookup 34 subtable" exclamdown.sc
Substitution2: "'c2sc' Capitals to Small Capitals lookup 33 subtable" exclamdown.sc
EndChar

StartChar: cent
Encoding: 162 162 100
Width: 572
Flags: W
LayerCount: 2
Fore
SplineSet
359 724 m 1,0,-1
 359 646 l 1,1,2
 402 644 402 644 437.5 634.5 c 128,-1,3
 473 625 473 625 499 613 c 1,4,-1
 462 513 l 1,5,6
 430 526 430 526 399 534.5 c 128,-1,7
 368 543 368 543 339 543 c 0,8,9
 207 543 207 543 207 363 c 0,10,11
 207 273 207 273 240.5 230.5 c 128,-1,12
 274 188 274 188 337 188 c 0,13,14
 383 188 383 188 416 197.5 c 128,-1,15
 449 207 449 207 485 223 c 1,16,-1
 485 116 l 1,17,18
 428 88 428 88 358 84 c 1,19,-1
 358 -10 l 1,20,-1
 279 -10 l 1,21,-1
 279 88 l 1,22,23
 185 102 185 102 131.5 166.5 c 128,-1,24
 78 231 78 231 78 362 c 0,25,26
 78 454 78 454 103 513 c 128,-1,27
 128 572 128 572 173 602.5 c 128,-1,28
 218 633 218 633 279 642 c 1,29,-1
 279 724 l 1,30,-1
 359 724 l 1,0,-1
EndSplineSet
EndChar

StartChar: sterling
Encoding: 163 163 101
Width: 572
Flags: W
LayerCount: 2
Fore
SplineSet
339 724 m 0,0,1
 393 724 393 724 439.5 712 c 128,-1,2
 486 700 486 700 524 683 c 1,3,-1
 484 587 l 1,4,5
 452 601 452 601 417 611 c 128,-1,6
 382 621 382 621 347 621 c 0,7,8
 306 621 306 621 280 598 c 128,-1,9
 254 575 254 575 254 521 c 2,10,-1
 254 410 l 1,11,-1
 445 410 l 1,12,-1
 445 319 l 1,13,-1
 254 319 l 1,14,-1
 254 236 l 2,15,16
 254 180 254 180 231 151.5 c 128,-1,17
 208 123 208 123 182 109 c 1,18,-1
 546 109 l 1,19,-1
 546 0 l 1,20,-1
 37 0 l 1,21,-1
 37 103 l 1,22,23
 79 119 79 119 104 146.5 c 128,-1,24
 129 174 129 174 129 235 c 2,25,-1
 129 319 l 1,26,-1
 39 319 l 1,27,-1
 39 410 l 1,28,-1
 129 410 l 1,29,-1
 129 525 l 2,30,31
 129 594 129 594 156.5 638 c 128,-1,32
 184 682 184 682 231.5 703 c 128,-1,33
 279 724 279 724 339 724 c 0,0,1
EndSplineSet
EndChar

StartChar: currency
Encoding: 164 164 102
Width: 572
Flags: W
LayerCount: 2
Fore
SplineSet
91 353 m 0,0,1
 91 381 91 381 99.5 406.5 c 128,-1,2
 108 432 108 432 121 454 c 1,3,-1
 57 519 l 1,4,-1
 120 581 l 1,5,-1
 183 518 l 1,6,7
 229 548 229 548 285 548 c 0,8,9
 314 548 314 548 339 540 c 128,-1,10
 364 532 364 532 387 518 c 1,11,-1
 451 581 l 1,12,-1
 514 520 l 1,13,-1
 451 455 l 1,14,15
 464 434 464 434 472 407.5 c 128,-1,16
 480 381 480 381 480 353 c 0,17,18
 480 296 480 296 451 250 c 1,19,-1
 512 187 l 1,20,-1
 451 126 l 1,21,-1
 387 188 l 1,22,23
 365 174 365 174 339.5 166.5 c 128,-1,24
 314 159 314 159 285 159 c 0,25,26
 226 159 226 159 183 188 c 1,27,-1
 120 127 l 1,28,-1
 58 188 l 1,29,-1
 121 251 l 1,30,31
 91 298 91 298 91 353 c 0,0,1
179 353 m 0,32,33
 179 309 179 309 210 278 c 128,-1,34
 241 247 241 247 285 247 c 0,35,36
 330 247 330 247 361.5 278 c 128,-1,37
 393 309 393 309 393 353 c 0,38,39
 393 398 393 398 361.5 429 c 128,-1,40
 330 460 330 460 285 460 c 0,41,42
 241 460 241 460 210 429 c 128,-1,43
 179 398 179 398 179 353 c 0,32,33
EndSplineSet
EndChar

StartChar: yen
Encoding: 165 165 103
Width: 572
Flags: W
LayerCount: 2
Fore
SplineSet
285 399 m 1,0,-1
 433 714 l 1,1,-1
 563 714 l 1,2,-1
 371 345 l 1,3,-1
 477 345 l 1,4,-1
 477 267 l 1,5,-1
 345 267 l 1,6,-1
 345 194 l 1,7,-1
 477 194 l 1,8,-1
 477 116 l 1,9,-1
 345 116 l 1,10,-1
 345 0 l 1,11,-1
 225 0 l 1,12,-1
 225 116 l 1,13,-1
 93 116 l 1,14,-1
 93 194 l 1,15,-1
 225 194 l 1,16,-1
 225 267 l 1,17,-1
 93 267 l 1,18,-1
 93 345 l 1,19,-1
 197 345 l 1,20,-1
 7 714 l 1,21,-1
 138 714 l 1,22,-1
 285 399 l 1,0,-1
EndSplineSet
EndChar

StartChar: brokenbar
Encoding: 166 166 104
Width: 551
Flags: W
LayerCount: 2
Fore
SplineSet
228 758 m 1,0,-1
 323 758 l 1,1,-1
 323 367 l 1,2,-1
 228 367 l 1,3,-1
 228 758 l 1,0,-1
228 159 m 1,4,-1
 323 159 l 1,5,-1
 323 -232 l 1,6,-1
 228 -232 l 1,7,-1
 228 159 l 1,4,-1
EndSplineSet
EndChar

StartChar: section
Encoding: 167 167 105
Width: 496
Flags: W
LayerCount: 2
Fore
SplineSet
62 393 m 256,0,1
 62 438 62 438 83 468 c 128,-1,2
 104 498 104 498 132 515 c 1,3,4
 100 534 100 534 81.5 562.5 c 128,-1,5
 63 591 63 591 63 629 c 0,6,7
 63 691 63 691 116.5 728 c 128,-1,8
 170 765 170 765 261 765 c 0,9,10
 313 765 313 765 354.5 754.5 c 128,-1,11
 396 744 396 744 436 727 c 1,12,-1
 400 643 l 1,13,14
 367 658 367 658 332.5 669.5 c 128,-1,15
 298 681 298 681 257 681 c 0,16,17
 209 681 209 681 188.5 668.5 c 128,-1,18
 168 656 168 656 168 631 c 256,19,20
 168 606 168 606 194 587.5 c 128,-1,21
 220 569 220 569 283 545 c 0,22,23
 356 516 356 516 398.5 478.5 c 128,-1,24
 441 441 441 441 441 382 c 0,25,26
 441 332 441 332 421.5 301.5 c 128,-1,27
 402 271 402 271 374 253 c 1,28,29
 406 234 406 234 423 208 c 128,-1,30
 440 182 440 182 440 145 c 0,31,32
 440 74 440 74 382 33 c 128,-1,33
 324 -8 324 -8 224 -8 c 0,34,35
 170 -8 170 -8 129 1.5 c 128,-1,36
 88 11 88 11 55 29 c 1,37,-1
 55 120 l 1,38,39
 91 102 91 102 138 88 c 128,-1,40
 185 74 185 74 226 74 c 0,41,42
 288 74 288 74 311 92.5 c 128,-1,43
 334 111 334 111 334 137 c 0,44,45
 334 154 334 154 326 167 c 128,-1,46
 318 180 318 180 294 193.5 c 128,-1,47
 270 207 270 207 222 226 c 0,48,49
 172 246 172 246 136 267.5 c 128,-1,50
 100 289 100 289 81 318.5 c 128,-1,51
 62 348 62 348 62 393 c 256,0,1
158 403 m 0,52,53
 158 371 158 371 187 346.5 c 128,-1,54
 216 322 216 322 283 296 c 2,55,-1
 295 291 l 1,56,57
 313 302 313 302 328 321 c 128,-1,58
 343 340 343 340 343 369 c 0,59,60
 343 402 343 402 316.5 427 c 128,-1,61
 290 452 290 452 213 477 c 1,62,63
 191 470 191 470 174.5 450.5 c 128,-1,64
 158 431 158 431 158 403 c 0,52,53
EndSplineSet
EndChar

StartChar: dieresis
Encoding: 168 168 106
Width: 597
Flags: W
LayerCount: 2
Fore
SplineSet
141 684 m 0,0,1
 141 716 141 716 158.5 730 c 128,-1,2
 176 744 176 744 201 744 c 0,3,4
 225 744 225 744 243.5 730 c 128,-1,5
 262 716 262 716 262 684 c 0,6,7
 262 654 262 654 243.5 639.5 c 128,-1,8
 225 625 225 625 201 625 c 0,9,10
 176 625 176 625 158.5 639.5 c 128,-1,11
 141 654 141 654 141 684 c 0,0,1
335 684 m 0,12,13
 335 716 335 716 352.5 730 c 128,-1,14
 370 744 370 744 395 744 c 0,15,16
 419 744 419 744 437.5 730 c 128,-1,17
 456 716 456 716 456 684 c 0,18,19
 456 654 456 654 437.5 639.5 c 128,-1,20
 419 625 419 625 395 625 c 0,21,22
 370 625 370 625 352.5 639.5 c 128,-1,23
 335 654 335 654 335 684 c 0,12,13
EndSplineSet
EndChar

StartChar: copyright
Encoding: 169 169 107
Width: 832
Flags: W
LayerCount: 2
Fore
SplineSet
416 -10 m 256,0,1
 336 -10 336 -10 269 17 c 128,-1,2
 202 44 202 44 152.5 93.5 c 128,-1,3
 103 143 103 143 76 210 c 128,-1,4
 49 277 49 277 49 357 c 0,5,6
 49 435 49 435 76.5 501.5 c 128,-1,7
 104 568 104 568 153.5 618 c 128,-1,8
 203 668 203 668 270 696 c 128,-1,9
 337 724 337 724 416 724 c 0,10,11
 492 724 492 724 558.5 697 c 128,-1,12
 625 670 625 670 675.5 620.5 c 128,-1,13
 726 571 726 571 754.5 504 c 128,-1,14
 783 437 783 437 783 357 c 256,15,16
 783 277 783 277 756 210 c 128,-1,17
 729 143 729 143 679.5 93.5 c 128,-1,18
 630 44 630 44 563 17 c 128,-1,19
 496 -10 496 -10 416 -10 c 256,0,1
416 50 m 0,20,21
 479 50 479 50 533.5 72.5 c 128,-1,22
 588 95 588 95 629.5 136.5 c 128,-1,23
 671 178 671 178 694.5 234 c 128,-1,24
 718 290 718 290 718 357 c 0,25,26
 718 420 718 420 695.5 476 c 128,-1,27
 673 532 673 532 632.5 574.5 c 128,-1,28
 592 617 592 617 536.5 641 c 128,-1,29
 481 665 481 665 416 665 c 0,30,31
 328 665 328 665 259.5 625.5 c 128,-1,32
 191 586 191 586 151.5 516 c 128,-1,33
 112 446 112 446 112 357 c 0,34,35
 112 270 112 270 151 200.5 c 128,-1,36
 190 131 190 131 259 90.5 c 128,-1,37
 328 50 328 50 416 50 c 0,20,21
431 130 m 0,38,39
 330 130 330 130 280 192 c 128,-1,40
 230 254 230 254 230 357 c 0,41,42
 230 423 230 423 254 474.5 c 128,-1,43
 278 526 278 526 323.5 555 c 128,-1,44
 369 584 369 584 435 584 c 0,45,46
 500 584 500 584 558 554 c 1,47,-1
 529 489 l 1,48,49
 479 515 479 515 436 515 c 0,50,51
 377 515 377 515 344.5 472.5 c 128,-1,52
 312 430 312 430 312 357 c 0,53,54
 312 280 312 280 340.5 239 c 128,-1,55
 369 198 369 198 435 198 c 0,56,57
 458 198 458 198 486.5 204.5 c 128,-1,58
 515 211 515 211 540 221 c 1,59,-1
 540 154 l 1,60,61
 516 144 516 144 491 137 c 128,-1,62
 466 130 466 130 431 130 c 0,38,39
EndSplineSet
EndChar

StartChar: ordfeminine
Encoding: 170 170 108
Width: 373
Flags: W
LayerCount: 2
Fore
SplineSet
191 722 m 0,0,1
 260 722 260 722 294 689.5 c 128,-1,2
 328 657 328 657 328 597 c 2,3,-1
 328 379 l 1,4,-1
 269 379 l 1,5,-1
 255 429 l 1,6,7
 235 403 235 403 205 388 c 128,-1,8
 175 373 175 373 139 373 c 0,9,10
 88 373 88 373 57 399 c 128,-1,11
 26 425 26 425 26 478 c 0,12,13
 26 534 26 534 69 558.5 c 128,-1,14
 112 583 112 583 192 587 c 2,15,-1
 244 589 l 1,16,-1
 244 602 l 2,17,18
 244 629 244 629 226 642 c 128,-1,19
 208 655 208 655 178 655 c 0,20,21
 153 655 153 655 127 647 c 128,-1,22
 101 639 101 639 74 627 c 1,23,-1
 46 686 l 1,24,25
 75 701 75 701 111.5 711.5 c 128,-1,26
 148 722 148 722 191 722 c 0,0,1
244 536 m 1,27,-1
 196 533 l 2,28,29
 146 531 146 531 129.5 515.5 c 128,-1,30
 113 500 113 500 113 479 c 0,31,32
 113 457 113 457 125.5 447.5 c 128,-1,33
 138 438 138 438 157 438 c 0,34,35
 200 438 200 438 222 460 c 128,-1,36
 244 482 244 482 244 516 c 2,37,-1
 244 536 l 1,27,-1
EndSplineSet
EndChar

StartChar: guillemotleft
Encoding: 171 171 109
Width: 575
Flags: W
LayerCount: 2
Fore
SplineSet
40 276 m 1,0,-1
 216 490 l 1,1,-1
 307 441 l 1,2,-1
 169 270 l 1,3,-1
 307 100 l 1,4,-1
 216 50 l 1,5,-1
 40 263 l 1,6,-1
 40 276 l 1,0,-1
269 276 m 1,7,-1
 445 490 l 1,8,-1
 535 441 l 1,9,-1
 398 270 l 1,10,-1
 535 100 l 1,11,-1
 445 50 l 1,12,-1
 269 263 l 1,13,-1
 269 276 l 1,7,-1
EndSplineSet
EndChar

StartChar: logicalnot
Encoding: 172 172 110
Width: 572
Flags: W
LayerCount: 2
Fore
SplineSet
525 399 m 1,0,-1
 525 124 l 1,1,-1
 432 124 l 1,2,-1
 432 306 l 1,3,-1
 46 306 l 1,4,-1
 46 399 l 1,5,-1
 525 399 l 1,0,-1
EndSplineSet
EndChar

StartChar: registered
Encoding: 174 174 112
Width: 832
Flags: W
LayerCount: 2
Fore
SplineSet
416 -10 m 256,0,1
 336 -10 336 -10 269 17 c 128,-1,2
 202 44 202 44 152.5 93.5 c 128,-1,3
 103 143 103 143 76 210 c 128,-1,4
 49 277 49 277 49 357 c 0,5,6
 49 435 49 435 76.5 501.5 c 128,-1,7
 104 568 104 568 153.5 618 c 128,-1,8
 203 668 203 668 270 696 c 128,-1,9
 337 724 337 724 416 724 c 0,10,11
 492 724 492 724 558.5 697 c 128,-1,12
 625 670 625 670 675.5 620.5 c 128,-1,13
 726 571 726 571 754.5 504 c 128,-1,14
 783 437 783 437 783 357 c 256,15,16
 783 277 783 277 756 210 c 128,-1,17
 729 143 729 143 679.5 93.5 c 128,-1,18
 630 44 630 44 563 17 c 128,-1,19
 496 -10 496 -10 416 -10 c 256,0,1
416 50 m 0,20,21
 479 50 479 50 533.5 72.5 c 128,-1,22
 588 95 588 95 629.5 136.5 c 128,-1,23
 671 178 671 178 694.5 234 c 128,-1,24
 718 290 718 290 718 357 c 0,25,26
 718 420 718 420 695.5 476 c 128,-1,27
 673 532 673 532 632.5 574.5 c 128,-1,28
 592 617 592 617 536.5 641 c 128,-1,29
 481 665 481 665 416 665 c 0,30,31
 328 665 328 665 259.5 625.5 c 128,-1,32
 191 586 191 586 151.5 516 c 128,-1,33
 112 446 112 446 112 357 c 0,34,35
 112 270 112 270 151 200.5 c 128,-1,36
 190 131 190 131 259 90.5 c 128,-1,37
 328 50 328 50 416 50 c 0,20,21
276 138 m 1,38,-1
 276 578 l 1,39,-1
 407 578 l 2,40,41
 489 578 489 578 527 544 c 128,-1,42
 565 510 565 510 565 446 c 0,43,44
 565 399 565 399 541 371.5 c 128,-1,45
 517 344 517 344 487 332 c 1,46,-1
 603 138 l 1,47,-1
 514 138 l 1,48,-1
 417 308 l 1,49,-1
 355 308 l 1,50,-1
 355 138 l 1,51,-1
 276 138 l 1,38,-1
355 373 m 1,52,-1
 405 373 l 2,53,54
 444 373 444 373 464.5 392.5 c 128,-1,55
 485 412 485 412 485 444 c 0,56,57
 485 479 485 479 466.5 495 c 128,-1,58
 448 511 448 511 404 511 c 2,59,-1
 355 511 l 1,60,-1
 355 373 l 1,52,-1
EndSplineSet
EndChar

StartChar: overscore
Encoding: 175 175 113
Width: 500
Flags: W
LayerCount: 2
Fore
SplineSet
503 760 m 1,0,-1
 -3 760 l 1,1,-1
 -3 846 l 1,2,-1
 503 846 l 1,3,-1
 503 760 l 1,0,-1
EndSplineSet
Substitution2: "'smcp' Lowercase to Small Capitals lookup 34 subtable" overscore.sc
Substitution2: "'c2sc' Capitals to Small Capitals lookup 33 subtable" overscore.sc
EndChar

StartChar: degree
Encoding: 176 176 114
Width: 428
Flags: W
LayerCount: 2
Fore
SplineSet
214 398 m 256,0,1
 139 398 139 398 92 443.5 c 128,-1,2
 45 489 45 489 45 561 c 0,3,4
 45 632 45 632 91.5 678 c 128,-1,5
 138 724 138 724 214 724 c 0,6,7
 289 724 289 724 335.5 678.5 c 128,-1,8
 382 633 382 633 382 561 c 256,9,10
 382 489 382 489 335.5 443.5 c 128,-1,11
 289 398 289 398 214 398 c 256,0,1
214 478 m 256,12,13
 252 478 252 478 274.5 501 c 128,-1,14
 297 524 297 524 297 561 c 0,15,16
 297 599 297 599 274.5 622 c 128,-1,17
 252 645 252 645 214 645 c 256,18,19
 176 645 176 645 153.5 622 c 128,-1,20
 131 599 131 599 131 561 c 0,21,22
 131 524 131 524 153.5 501 c 128,-1,23
 176 478 176 478 214 478 c 256,12,13
EndSplineSet
EndChar

StartChar: plusminus
Encoding: 177 177 115
Width: 572
Flags: W
LayerCount: 2
Fore
SplineSet
332 419 m 1,0,-1
 525 419 l 1,1,-1
 525 326 l 1,2,-1
 332 326 l 1,3,-1
 332 131 l 1,4,-1
 238 131 l 1,5,-1
 238 326 l 1,6,-1
 46 326 l 1,7,-1
 46 419 l 1,8,-1
 238 419 l 1,9,-1
 238 616 l 1,10,-1
 332 616 l 1,11,-1
 332 419 l 1,0,-1
46 0 m 1,12,-1
 46 93 l 1,13,-1
 525 93 l 1,14,-1
 525 0 l 1,15,-1
 46 0 l 1,12,-1
EndSplineSet
EndChar

StartChar: uni00B2
Encoding: 178 178 116
Width: 368
Flags: W
LayerCount: 2
Fore
SplineSet
329 416 m 1,0,-1
 26 416 l 1,1,-1
 26 487 l 1,2,-1
 137 596 l 2,3,4
 171 629 171 629 189.5 650.5 c 128,-1,5
 208 672 208 672 215 689 c 128,-1,6
 222 706 222 706 222 725 c 0,7,8
 222 748 222 748 208 760.5 c 128,-1,9
 194 773 194 773 170 773 c 0,10,11
 126 773 126 773 76 730 c 1,12,-1
 25 794 l 1,13,14
 56 820 56 820 94 837 c 128,-1,15
 132 854 132 854 181 854 c 0,16,17
 245 854 245 854 283.5 822.5 c 128,-1,18
 322 791 322 791 322 733 c 0,19,20
 322 686 322 686 295 648.5 c 128,-1,21
 268 611 268 611 211 558 c 2,22,-1
 148 500 l 1,23,-1
 329 500 l 1,24,-1
 329 416 l 1,0,-1
EndSplineSet
EndChar

StartChar: uni00B3
Encoding: 179 179 117
Width: 368
Flags: W
LayerCount: 2
Fore
SplineSet
177 853 m 0,0,1
 242 853 242 853 280.5 822 c 128,-1,2
 319 791 319 791 319 741 c 0,3,4
 319 668 319 668 239 642 c 1,5,-1
 239 637 l 1,6,7
 285 628 285 628 308.5 601 c 128,-1,8
 332 574 332 574 332 537 c 0,9,10
 332 478 332 478 289.5 443 c 128,-1,11
 247 408 247 408 157 408 c 0,12,13
 85 408 85 408 24 440 c 1,14,-1
 24 521 l 1,15,16
 57 503 57 503 90 492 c 128,-1,17
 123 481 123 481 156 481 c 0,18,19
 238 481 238 481 238 542 c 0,20,21
 238 568 238 568 216.5 584.5 c 128,-1,22
 195 601 195 601 146 601 c 2,23,-1
 90 601 l 1,24,-1
 90 670 l 1,25,-1
 140 670 l 2,26,27
 190 670 190 670 208 687.5 c 128,-1,28
 226 705 226 705 226 729 c 256,29,30
 226 753 226 753 210.5 766 c 128,-1,31
 195 779 195 779 169 779 c 256,32,33
 143 779 143 779 120.5 769.5 c 128,-1,34
 98 760 98 760 70 741 c 1,35,-1
 26 802 l 1,36,37
 56 824 56 824 92 838.5 c 128,-1,38
 128 853 128 853 177 853 c 0,0,1
EndSplineSet
EndChar

StartChar: acute
Encoding: 180 180 118
Width: 331
Flags: W
LayerCount: 2
Fore
SplineSet
291 766 m 1,0,-1
 291 756 l 1,1,2
 274 738 274 738 244 709 c 128,-1,3
 214 680 214 680 181 652 c 128,-1,4
 148 624 148 624 124 606 c 1,5,-1
 40 606 l 1,6,-1
 40 619 l 1,7,8
 56 638 56 638 76 663.5 c 128,-1,9
 96 689 96 689 115 716.5 c 128,-1,10
 134 744 134 744 147 766 c 1,11,-1
 291 766 l 1,0,-1
EndSplineSet
EndChar

StartChar: uni00B5
Encoding: 181 181 119
Width: 646
Flags: W
LayerCount: 2
Fore
SplineSet
565 542 m 1,0,-1
 565 0 l 1,1,-1
 468 0 l 1,2,-1
 450 73 l 1,3,-1
 444 73 l 1,4,5
 422 32 422 32 388.5 11 c 128,-1,6
 355 -10 355 -10 307 -10 c 0,7,8
 273 -10 273 -10 247.5 2 c 128,-1,9
 222 14 222 14 205 34 c 1,10,-1
 202 34 l 1,11,12
 204 18 204 18 205.5 -17 c 128,-1,13
 207 -52 207 -52 207 -84 c 2,14,-1
 207 -240 l 1,15,-1
 81 -240 l 1,16,-1
 81 542 l 1,17,-1
 207 542 l 1,18,-1
 207 213 l 2,19,20
 207 92 207 92 307 92 c 0,21,22
 383 92 383 92 411 140 c 128,-1,23
 439 188 439 188 439 277 c 2,24,-1
 439 542 l 1,25,-1
 565 542 l 1,0,-1
EndSplineSet
EndChar

StartChar: paragraph
Encoding: 182 182 120
Width: 655
Flags: W
LayerCount: 2
Fore
SplineSet
562 -127 m 1,0,-1
 491 -127 l 1,1,-1
 491 678 l 1,2,-1
 402 678 l 1,3,-1
 402 -127 l 1,4,-1
 331 -127 l 1,5,-1
 331 273 l 1,6,7
 301 264 301 264 260 264 c 0,8,9
 198 264 198 264 152 287 c 128,-1,10
 106 310 106 310 80.5 364 c 128,-1,11
 55 418 55 418 55 509 c 0,12,13
 55 604 55 604 82.5 659 c 128,-1,14
 110 714 110 714 160 737 c 128,-1,15
 210 760 210 760 275 760 c 2,16,-1
 562 760 l 1,17,-1
 562 -127 l 1,0,-1
EndSplineSet
EndChar

StartChar: cedilla
Encoding: 184 184 122
Width: 213
Flags: W
LayerCount: 2
Fore
SplineSet
207 -128 m 0,0,1
 207 -181 207 -181 172.5 -210.5 c 128,-1,2
 138 -240 138 -240 57 -240 c 0,3,4
 20 -240 20 -240 -6 -232 c 1,5,-1
 -6 -160 l 1,6,7
 6 -163 6 -163 24.5 -165.5 c 128,-1,8
 43 -168 43 -168 58 -168 c 0,9,10
 80 -168 80 -168 93.5 -160.5 c 128,-1,11
 107 -153 107 -153 107 -133 c 0,12,13
 107 -91 107 -91 23 -79 c 1,14,-1
 62 0 l 1,15,-1
 143 0 l 1,16,-1
 125 -39 l 1,17,18
 157 -48 157 -48 182 -69.5 c 128,-1,19
 207 -91 207 -91 207 -128 c 0,0,1
EndSplineSet
EndChar

StartChar: uni00B9
Encoding: 185 185 123
Width: 368
Flags: W
LayerCount: 2
Fore
SplineSet
268 844 m 1,0,-1
 268 416 l 1,1,-1
 169 416 l 1,2,-1
 169 656 l 2,3,4
 169 678 169 678 170.5 707.5 c 128,-1,5
 172 737 172 737 173 752 c 1,6,7
 166 744 166 744 154 733 c 128,-1,8
 142 722 142 722 132 714 c 2,9,-1
 88 681 l 1,10,-1
 42 738 l 1,11,-1
 183 844 l 1,12,-1
 268 844 l 1,0,-1
EndSplineSet
EndChar

StartChar: ordmasculine
Encoding: 186 186 124
Width: 383
Flags: W
LayerCount: 2
Fore
SplineSet
354 548 m 0,0,1
 354 465 354 465 309.5 419 c 128,-1,2
 265 373 265 373 191 373 c 0,3,4
 120 373 120 373 75 418.5 c 128,-1,5
 30 464 30 464 30 548 c 256,6,7
 30 632 30 632 73.5 677 c 128,-1,8
 117 722 117 722 193 722 c 0,9,10
 264 722 264 722 309 677 c 128,-1,11
 354 632 354 632 354 548 c 0,0,1
115 548 m 256,12,13
 115 496 115 496 133.5 469.5 c 128,-1,14
 152 443 152 443 192 443 c 256,15,16
 232 443 232 443 250 469.5 c 128,-1,17
 268 496 268 496 268 548 c 256,18,19
 268 600 268 600 250 626 c 128,-1,20
 232 652 232 652 192 652 c 256,21,22
 152 652 152 652 133.5 626 c 128,-1,23
 115 600 115 600 115 548 c 256,12,13
EndSplineSet
EndChar

StartChar: guillemotright
Encoding: 187 187 125
Width: 575
Flags: W
LayerCount: 2
Fore
SplineSet
535 263 m 1,0,-1
 358 50 l 1,1,-1
 268 100 l 1,2,-1
 406 270 l 1,3,-1
 268 441 l 1,4,-1
 358 490 l 1,5,-1
 535 276 l 1,6,-1
 535 263 l 1,0,-1
306 263 m 1,7,-1
 130 50 l 1,8,-1
 40 100 l 1,9,-1
 177 270 l 1,10,-1
 40 441 l 1,11,-1
 130 490 l 1,12,-1
 306 276 l 1,13,-1
 306 263 l 1,7,-1
EndSplineSet
EndChar

StartChar: onequarter
Encoding: 188 188 126
Width: 798
Flags: W
LayerCount: 2
Fore
SplineSet
145 0 m 1,0,-1
 556 714 l 1,1,-1
 657 714 l 1,2,-1
 246 0 l 1,3,-1
 145 0 l 1,0,-1
154 286 m 1,4,-1
 154 526 l 2,5,6
 154 548 154 548 155 577.5 c 128,-1,7
 156 607 156 607 158 622 c 1,8,9
 150 614 150 614 138.5 603 c 128,-1,10
 127 592 127 592 117 584 c 2,11,-1
 73 551 l 1,12,-1
 27 608 l 1,13,-1
 167 714 l 1,14,-1
 253 714 l 1,15,-1
 253 286 l 1,16,-1
 154 286 l 1,4,-1
627 0 m 1,17,-1
 627 82 l 1,18,-1
 437 82 l 1,19,-1
 437 149 l 1,20,-1
 629 431 l 1,21,-1
 728 431 l 1,22,-1
 728 156 l 1,23,-1
 789 156 l 1,24,-1
 789 82 l 1,25,-1
 728 82 l 1,26,-1
 728 0 l 1,27,-1
 627 0 l 1,17,-1
520 156 m 1,28,-1
 627 156 l 1,29,-1
 627 241 l 2,30,31
 627 261 627 261 627.5 286 c 128,-1,32
 628 311 628 311 630 335 c 1,33,34
 625 322 625 322 612 297.5 c 128,-1,35
 599 273 599 273 589 258 c 2,36,-1
 520 156 l 1,28,-1
EndSplineSet
EndChar

StartChar: onehalf
Encoding: 189 189 127
Width: 835
Flags: W
LayerCount: 2
Fore
SplineSet
133 0 m 1,0,-1
 544 714 l 1,1,-1
 646 714 l 1,2,-1
 235 0 l 1,3,-1
 133 0 l 1,0,-1
149 286 m 1,4,-1
 149 526 l 2,5,6
 149 548 149 548 150.5 577.5 c 128,-1,7
 152 607 152 607 153 622 c 1,8,9
 146 614 146 614 134 603 c 128,-1,10
 122 592 122 592 112 584 c 2,11,-1
 68 551 l 1,12,-1
 22 608 l 1,13,-1
 163 714 l 1,14,-1
 248 714 l 1,15,-1
 248 286 l 1,16,-1
 149 286 l 1,4,-1
493 0 m 1,17,-1
 493 71 l 1,18,-1
 604 180 l 2,19,20
 638 213 638 213 656.5 234.5 c 128,-1,21
 675 256 675 256 682 273 c 128,-1,22
 689 290 689 290 689 309 c 0,23,24
 689 332 689 332 675 344.5 c 128,-1,25
 661 357 661 357 637 357 c 0,26,27
 593 357 593 357 543 314 c 1,28,-1
 492 378 l 1,29,30
 523 404 523 404 560.5 421 c 128,-1,31
 598 438 598 438 648 438 c 0,32,33
 712 438 712 438 750.5 406.5 c 128,-1,34
 789 375 789 375 789 317 c 0,35,36
 789 270 789 270 762 232.5 c 128,-1,37
 735 195 735 195 678 142 c 2,38,-1
 615 84 l 1,39,-1
 796 84 l 1,40,-1
 796 0 l 1,41,-1
 493 0 l 1,17,-1
EndSplineSet
EndChar

StartChar: threequarters
Encoding: 190 190 128
Width: 821
Flags: W
LayerCount: 2
Fore
SplineSet
165 278 m 0,0,1
 93 278 93 278 33 310 c 1,2,-1
 33 391 l 1,3,4
 66 373 66 373 99 362 c 128,-1,5
 132 351 132 351 165 351 c 0,6,7
 246 351 246 351 246 412 c 0,8,9
 246 438 246 438 225 454.5 c 128,-1,10
 204 471 204 471 154 471 c 2,11,-1
 99 471 l 1,12,-1
 99 540 l 1,13,-1
 148 540 l 2,14,15
 199 540 199 540 217 557.5 c 128,-1,16
 235 575 235 575 235 599 c 256,17,18
 235 623 235 623 219.5 636 c 128,-1,19
 204 649 204 649 178 649 c 256,20,21
 152 649 152 649 129 639.5 c 128,-1,22
 106 630 106 630 79 611 c 1,23,-1
 34 672 l 1,24,25
 65 694 65 694 100.5 708.5 c 128,-1,26
 136 723 136 723 185 723 c 0,27,28
 250 723 250 723 288.5 692 c 128,-1,29
 327 661 327 661 327 611 c 0,30,31
 327 538 327 538 248 512 c 1,32,-1
 248 507 l 1,33,34
 294 498 294 498 317.5 471 c 128,-1,35
 341 444 341 444 341 407 c 0,36,37
 341 348 341 348 298 313 c 128,-1,38
 255 278 255 278 165 278 c 0,0,1
183 0 m 1,39,-1
 594 714 l 1,40,-1
 695 714 l 1,41,-1
 284 0 l 1,42,-1
 183 0 l 1,39,-1
650 0 m 1,43,-1
 650 82 l 1,44,-1
 460 82 l 1,45,-1
 460 149 l 1,46,-1
 652 431 l 1,47,-1
 751 431 l 1,48,-1
 751 156 l 1,49,-1
 812 156 l 1,50,-1
 812 82 l 1,51,-1
 751 82 l 1,52,-1
 751 0 l 1,53,-1
 650 0 l 1,43,-1
543 156 m 1,54,-1
 650 156 l 1,55,-1
 650 241 l 2,56,57
 650 261 650 261 651 286 c 128,-1,58
 652 311 652 311 653 335 c 1,59,60
 648 322 648 322 635 297.5 c 128,-1,61
 622 273 622 273 612 258 c 2,62,-1
 543 156 l 1,54,-1
EndSplineSet
EndChar

StartChar: AE
Encoding: 198 198 136
Width: 925
GlyphClass: 2
Flags: W
AnchorPoint: "Anchor-2" 501 714 basechar 0
AnchorPoint: "Anchor-0" 463 0 basechar 0
LayerCount: 2
Fore
SplineSet
866 0 m 1,0,-1
 460 0 l 1,1,-1
 460 189 l 1,2,-1
 216 189 l 1,3,-1
 131 0 l 1,4,-1
 0 0 l 1,5,-1
 327 714 l 1,6,-1
 866 714 l 1,7,-1
 866 607 l 1,8,-1
 588 607 l 1,9,-1
 588 425 l 1,10,-1
 847 425 l 1,11,-1
 847 318 l 1,12,-1
 588 318 l 1,13,-1
 588 108 l 1,14,-1
 866 108 l 1,15,-1
 866 0 l 1,0,-1
264 299 m 1,16,-1
 460 299 l 1,17,-1
 460 603 l 1,18,-1
 400 603 l 1,19,-1
 264 299 l 1,16,-1
EndSplineSet
Substitution2: "'c2sc' Capitals to Small Capitals lookup 33 subtable" ae.sc
EndChar

StartChar: Eth
Encoding: 208 208 146
Width: 736
GlyphClass: 2
Flags: W
AnchorPoint: "Anchor-2" 368 714 basechar 0
AnchorPoint: "Anchor-0" 368 0 basechar 0
LayerCount: 2
Fore
SplineSet
315 714 m 2,0,1
 425 714 425 714 506.5 674 c 128,-1,2
 588 634 588 634 632.5 556 c 128,-1,3
 677 478 677 478 677 364 c 0,4,5
 677 183 677 183 575.5 91.5 c 128,-1,6
 474 0 474 0 293 0 c 2,7,-1
 95 0 l 1,8,-1
 95 300 l 1,9,-1
 26 300 l 1,10,-1
 26 406 l 1,11,-1
 95 406 l 1,12,-1
 95 714 l 1,13,-1
 315 714 l 2,0,1
315 608 m 2,14,-1
 223 608 l 1,15,-1
 223 406 l 1,16,-1
 363 406 l 1,17,-1
 363 300 l 1,18,-1
 223 300 l 1,19,-1
 223 107 l 1,20,-1
 297 107 l 2,21,22
 543 107 543 107 543 360 c 0,23,24
 543 488 543 488 483.5 548 c 128,-1,25
 424 608 424 608 315 608 c 2,14,-1
EndSplineSet
Substitution2: "'c2sc' Capitals to Small Capitals lookup 33 subtable" eth.sc
EndChar

StartChar: multiply
Encoding: 215 215 153
Width: 572
Flags: W
LayerCount: 2
Fore
SplineSet
442 575 m 1,0,-1
 507 510 l 1,1,-1
 350 353 l 1,2,-1
 506 197 l 1,3,-1
 441 131 l 1,4,-1
 284 287 l 1,5,-1
 129 132 l 1,6,-1
 64 197 l 1,7,-1
 218 353 l 1,8,-1
 63 508 l 1,9,-1
 129 575 l 1,10,-1
 284 419 l 1,11,-1
 442 575 l 1,0,-1
EndSplineSet
EndChar

StartChar: Oslash
Encoding: 216 216 154
Width: 790
GlyphClass: 2
Flags: W
AnchorPoint: "Anchor-2" 398 714 basechar 0
AnchorPoint: "Anchor-0" 395 0 basechar 0
LayerCount: 2
Fore
SplineSet
731 358 m 0,0,1
 731 247 731 247 694.5 164.5 c 128,-1,2
 658 82 658 82 583 36 c 128,-1,3
 508 -10 508 -10 395 -10 c 0,4,5
 294 -10 294 -10 223 28 c 1,6,-1
 178 -39 l 1,7,-1
 106 9 l 1,8,-1
 153 78 l 1,9,10
 105 127 105 127 82 198.5 c 128,-1,11
 59 270 59 270 59 359 c 0,12,13
 59 469 59 469 95.5 551.5 c 128,-1,14
 132 634 132 634 206.5 679.5 c 128,-1,15
 281 725 281 725 396 725 c 0,16,17
 446 725 446 725 489.5 715 c 128,-1,18
 533 705 533 705 568 687 c 1,19,-1
 611 750 l 1,20,-1
 683 703 l 1,21,-1
 637 636 l 1,22,23
 684 588 684 588 707.5 517 c 128,-1,24
 731 446 731 446 731 358 c 0,0,1
194 358 m 0,25,26
 194 307 194 307 202.5 264.5 c 128,-1,27
 211 222 211 222 229 190 c 1,28,-1
 503 590 l 1,29,30
 481 603 481 603 454.5 610 c 128,-1,31
 428 617 428 617 396 617 c 0,32,33
 291 617 291 617 242.5 548 c 128,-1,34
 194 479 194 479 194 358 c 0,25,26
596 358 m 0,35,36
 596 462 596 462 562 524 c 1,37,-1
 289 125 l 1,38,39
 332 99 332 99 395 99 c 0,40,41
 502 99 502 99 549 168 c 128,-1,42
 596 237 596 237 596 358 c 0,35,36
EndSplineSet
Substitution2: "'c2sc' Capitals to Small Capitals lookup 33 subtable" oslash.sc
EndChar

StartChar: Thorn
Encoding: 222 222 160
Width: 619
GlyphClass: 2
Flags: W
AnchorPoint: "Anchor-2" 310 714 basechar 0
AnchorPoint: "Anchor-0" 310 0 basechar 0
LayerCount: 2
Fore
SplineSet
572 378 m 0,0,1
 572 318 572 318 546.5 265.5 c 128,-1,2
 521 213 521 213 461.5 180.5 c 128,-1,3
 402 148 402 148 298 148 c 2,4,-1
 221 148 l 1,5,-1
 221 0 l 1,6,-1
 93 0 l 1,7,-1
 93 714 l 1,8,-1
 221 714 l 1,9,-1
 221 597 l 1,10,-1
 311 597 l 2,11,12
 448 597 448 597 510 538 c 128,-1,13
 572 479 572 479 572 378 c 0,0,1
221 252 m 1,14,-1
 278 252 l 2,15,16
 362 252 362 252 402 281 c 128,-1,17
 442 310 442 310 442 376 c 0,18,19
 442 435 442 435 406 463.5 c 128,-1,20
 370 492 370 492 292 492 c 2,21,-1
 221 492 l 1,22,-1
 221 252 l 1,14,-1
EndSplineSet
Substitution2: "'c2sc' Capitals to Small Capitals lookup 33 subtable" thorn.sc
EndChar

StartChar: germandbls
Encoding: 223 223 161
Width: 681
GlyphClass: 2
Flags: W
AnchorPoint: "Anchor-2" 341 765 basechar 0
AnchorPoint: "Anchor-0" 341 0 basechar 0
LayerCount: 2
Fore
SplineSet
577 610 m 0,0,1
 577 574 577 574 563 547.5 c 128,-1,2
 549 521 549 521 528 501.5 c 128,-1,3
 507 482 507 482 486 466.5 c 128,-1,4
 465 451 465 451 451 437.5 c 128,-1,5
 437 424 437 424 437 409 c 0,6,7
 437 390 437 390 458.5 373.5 c 128,-1,8
 480 357 480 357 536 320 c 0,9,10
 586 287 586 287 614 251.5 c 128,-1,11
 642 216 642 216 642 157 c 0,12,13
 642 73 642 73 587 31.5 c 128,-1,14
 532 -10 532 -10 432 -10 c 0,15,16
 339 -10 339 -10 285 22 c 1,17,-1
 285 125 l 1,18,19
 309 109 309 109 348.5 96 c 128,-1,20
 388 83 388 83 424 83 c 0,21,22
 514 83 514 83 514 153 c 0,23,24
 514 173 514 173 506.5 188 c 128,-1,25
 499 203 499 203 479.5 219.5 c 128,-1,26
 460 236 460 236 422 258 c 0,27,28
 360 295 360 295 336.5 324 c 128,-1,29
 313 353 313 353 313 393 c 0,30,31
 313 424 313 424 326.5 446 c 128,-1,32
 340 468 340 468 360.5 484.5 c 128,-1,33
 381 501 381 501 401.5 516 c 128,-1,34
 422 531 422 531 435.5 549 c 128,-1,35
 449 567 449 567 449 592 c 0,36,37
 449 627 449 627 415.5 646 c 128,-1,38
 382 665 382 665 332 665 c 0,39,40
 280 665 280 665 243.5 641.5 c 128,-1,41
 207 618 207 618 207 563 c 2,42,-1
 207 0 l 1,43,-1
 81 0 l 1,44,-1
 81 567 l 2,45,46
 81 636 81 636 114 680 c 128,-1,47
 147 724 147 724 203.5 744.5 c 128,-1,48
 260 765 260 765 332 765 c 0,49,50
 403 765 403 765 458.5 747.5 c 128,-1,51
 514 730 514 730 545.5 695 c 128,-1,52
 577 660 577 660 577 610 c 0,0,1
EndSplineSet
Substitution2: "'smcp' Lowercase to Small Capitals lookup 34 subtable" germandbls.sc
EndChar

StartChar: ae
Encoding: 230 230 168
Width: 897
GlyphClass: 2
Flags: W
AnchorPoint: "Anchor-2" 456 542 basechar 0
AnchorPoint: "Anchor-0" 449 0 basechar 0
LayerCount: 2
Fore
SplineSet
627 552 m 0,0,1
 728 552 728 552 789.5 487 c 128,-1,2
 851 422 851 422 851 307 c 2,3,-1
 851 242 l 1,4,-1
 502 242 l 1,5,6
 504 166 504 166 541 126.5 c 128,-1,7
 578 87 578 87 645 87 c 0,8,9
 694 87 694 87 737 97.5 c 128,-1,10
 780 108 780 108 823 128 c 1,11,-1
 823 27 l 1,12,13
 782 8 782 8 740 -1 c 128,-1,14
 698 -10 698 -10 639 -10 c 0,15,16
 572 -10 572 -10 518 16.5 c 128,-1,17
 464 43 464 43 430 96 c 1,18,19
 403 61 403 61 374.5 37.5 c 128,-1,20
 346 14 346 14 308 2 c 128,-1,21
 270 -10 270 -10 216 -10 c 0,22,23
 168 -10 168 -10 129 8 c 128,-1,24
 90 26 90 26 67 63 c 128,-1,25
 44 100 44 100 44 158 c 0,26,27
 44 242 44 242 103.5 284 c 128,-1,28
 163 326 163 326 283 331 c 2,29,-1
 374 334 l 1,30,-1
 374 372 l 2,31,32
 374 418 374 418 349 437.5 c 128,-1,33
 324 457 324 457 282 457 c 0,34,35
 242 457 242 457 204.5 446 c 128,-1,36
 167 435 167 435 132 418 c 1,37,-1
 92 505 l 1,38,39
 132 526 132 526 184 539 c 128,-1,40
 236 552 236 552 290 552 c 0,41,42
 348 552 348 552 389 535 c 128,-1,43
 430 518 430 518 456 480 c 1,44,45
 486 515 486 515 528 533.5 c 128,-1,46
 570 552 570 552 627 552 c 0,0,1
624 459 m 256,47,48
 572 459 572 459 540.5 426.5 c 128,-1,49
 509 394 509 394 504 330 c 1,50,-1
 729 330 l 1,51,52
 728 387 728 387 702 423 c 128,-1,53
 676 459 676 459 624 459 c 256,47,48
374 256 m 1,54,-1
 311 254 l 2,55,56
 233 251 233 251 203 225.5 c 128,-1,57
 173 200 173 200 173 157 c 0,58,59
 173 118 173 118 194.5 101.5 c 128,-1,60
 216 85 216 85 251 85 c 0,61,62
 303 85 303 85 338.5 116.5 c 128,-1,63
 374 148 374 148 374 210 c 2,64,-1
 374 256 l 1,54,-1
EndSplineSet
Substitution2: "'smcp' Lowercase to Small Capitals lookup 34 subtable" ae.sc
EndChar

StartChar: eth
Encoding: 240 240 178
Width: 614
GlyphClass: 2
Flags: W
AnchorPoint: "Anchor-2" 307 765 basechar 0
AnchorPoint: "Anchor-0" 307 0 basechar 0
LayerCount: 2
Fore
SplineSet
221 765 m 1,0,1
 255 749 255 749 286.5 731.5 c 128,-1,2
 318 714 318 714 347 695 c 1,3,-1
 459 762 l 1,4,-1
 504 695 l 1,5,-1
 415 642 l 1,6,7
 486 577 486 577 525.5 487.5 c 128,-1,8
 565 398 565 398 565 278 c 0,9,10
 565 138 565 138 495 64 c 128,-1,11
 425 -10 425 -10 305 -10 c 0,12,13
 230 -10 230 -10 172.5 19.5 c 128,-1,14
 115 49 115 49 82 104 c 128,-1,15
 49 159 49 159 49 237 c 0,16,17
 49 314 49 314 78.5 368.5 c 128,-1,18
 108 423 108 423 161 452 c 128,-1,19
 214 481 214 481 284 481 c 0,20,21
 387 481 387 481 426 429 c 1,22,-1
 430 431 l 1,23,24
 414 478 414 478 387 516 c 128,-1,25
 360 554 360 554 325 587 c 1,26,-1
 206 516 l 1,27,-1
 161 584 l 1,28,-1
 257 641 l 1,29,30
 238 653 238 653 218 665 c 128,-1,31
 198 677 198 677 177 689 c 1,32,-1
 221 765 l 1,0,1
307 386 m 0,33,34
 238 386 238 386 207.5 347.5 c 128,-1,35
 177 309 177 309 177 235 c 0,36,37
 177 169 177 169 208 127.5 c 128,-1,38
 239 86 239 86 307 86 c 0,39,40
 376 86 376 86 406.5 129 c 128,-1,41
 437 172 437 172 437 257 c 0,42,43
 437 309 437 309 405.5 347.5 c 128,-1,44
 374 386 374 386 307 386 c 0,33,34
EndSplineSet
Substitution2: "'smcp' Lowercase to Small Capitals lookup 34 subtable" eth.sc
EndChar

StartChar: divide
Encoding: 247 247 185
Width: 572
Flags: W
LayerCount: 2
Fore
SplineSet
285 454 m 0,0,1
 259 454 259 454 240.5 470 c 128,-1,2
 222 486 222 486 222 523 c 0,3,4
 222 561 222 561 240.5 576.5 c 128,-1,5
 259 592 259 592 285 592 c 0,6,7
 310 592 310 592 329 576.5 c 128,-1,8
 348 561 348 561 348 523 c 0,9,10
 348 486 348 486 329 470 c 128,-1,11
 310 454 310 454 285 454 c 0,0,1
46 306 m 1,12,-1
 46 399 l 1,13,-1
 525 399 l 1,14,-1
 525 306 l 1,15,-1
 46 306 l 1,12,-1
285 113 m 0,16,17
 259 113 259 113 240.5 129 c 128,-1,18
 222 145 222 145 222 182 c 0,19,20
 222 220 222 220 240.5 235.5 c 128,-1,21
 259 251 259 251 285 251 c 0,22,23
 310 251 310 251 329 235.5 c 128,-1,24
 348 220 348 220 348 182 c 0,25,26
 348 145 348 145 329 129 c 128,-1,27
 310 113 310 113 285 113 c 0,16,17
EndSplineSet
EndChar

StartChar: oslash
Encoding: 248 248 186
Width: 614
GlyphClass: 2
Flags: W
AnchorPoint: "Anchor-2" 308 542 basechar 0
AnchorPoint: "Anchor-0" 307 0 basechar 0
LayerCount: 2
Fore
SplineSet
565 272 m 0,0,1
 565 137 565 137 495 63.5 c 128,-1,2
 425 -10 425 -10 305 -10 c 0,3,4
 240 -10 240 -10 186 16 c 1,5,-1
 150 -35 l 1,6,-1
 81 11 l 1,7,-1
 119 65 l 1,8,9
 85 102 85 102 67 153 c 128,-1,10
 49 204 49 204 49 272 c 0,11,12
 49 407 49 407 118.5 479.5 c 128,-1,13
 188 552 188 552 308 552 c 0,14,15
 378 552 378 552 433 523 c 1,16,-1
 465 569 l 1,17,-1
 533 522 l 1,18,-1
 499 472 l 1,19,20
 530 437 530 437 547.5 386.5 c 128,-1,21
 565 336 565 336 565 272 c 0,0,1
178 272 m 0,22,23
 178 243 178 243 181 218 c 128,-1,24
 184 193 184 193 192 173 c 1,25,-1
 372 433 l 1,26,27
 346 450 346 450 306 450 c 0,28,29
 238 450 238 450 208 404 c 128,-1,30
 178 358 178 358 178 272 c 0,22,23
436 272 m 0,31,32
 436 325 436 325 424 361 c 1,33,-1
 247 105 l 1,34,35
 273 92 273 92 307 92 c 0,36,37
 374 92 374 92 405 139 c 128,-1,38
 436 186 436 186 436 272 c 0,31,32
EndSplineSet
Substitution2: "'smcp' Lowercase to Small Capitals lookup 34 subtable" oslash.sc
EndChar

StartChar: thorn
Encoding: 254 254 192
Width: 626
GlyphClass: 2
Flags: W
AnchorPoint: "Anchor-2" 314 760 basechar 0
AnchorPoint: "Anchor-0" 314 -240 basechar 0
LayerCount: 2
Fore
SplineSet
577 272 m 0,0,1
 577 133 577 133 519 61.5 c 128,-1,2
 461 -10 461 -10 366 -10 c 0,3,4
 305 -10 305 -10 267.5 11 c 128,-1,5
 230 32 230 32 207 61 c 1,6,-1
 200 61 l 1,7,8
 202 48 202 48 204.5 23 c 128,-1,9
 207 -2 207 -2 207 -18 c 2,10,-1
 207 -240 l 1,11,-1
 81 -240 l 1,12,-1
 81 760 l 1,13,-1
 207 760 l 1,14,-1
 207 557 l 2,15,16
 207 536 207 536 204.5 510.5 c 128,-1,17
 202 485 202 485 201 471 c 1,18,-1
 207 471 l 1,19,20
 230 505 230 505 267.5 528.5 c 128,-1,21
 305 552 305 552 366 552 c 0,22,23
 460 552 460 552 518.5 481 c 128,-1,24
 577 410 577 410 577 272 c 0,0,1
448 274 m 256,25,26
 448 362 448 362 420 406 c 128,-1,27
 392 450 392 450 331 450 c 0,28,29
 264 450 264 450 236 410 c 128,-1,30
 208 370 208 370 207 290 c 2,31,-1
 207 273 l 2,32,33
 207 186 207 186 233.5 139.5 c 128,-1,34
 260 93 260 93 332 93 c 0,35,36
 392 93 392 93 420 139.5 c 128,-1,37
 448 186 448 186 448 274 c 256,25,26
EndSplineSet
Substitution2: "'smcp' Lowercase to Small Capitals lookup 34 subtable" thorn.sc
EndChar

StartChar: dcroat
Encoding: 273 273 211
Width: 637
GlyphClass: 2
Flags: W
AnchorPoint: "Anchor-2" 319 760 basechar 0
AnchorPoint: "Anchor-0" 319 0 basechar 0
LayerCount: 2
Fore
SplineSet
260 -10 m 0,0,1
 166 -10 166 -10 107.5 58 c 128,-1,2
 49 126 49 126 49 260 c 0,3,4
 49 396 49 396 108 464 c 128,-1,5
 167 532 167 532 263 532 c 0,6,7
 323 532 323 532 361.5 509 c 128,-1,8
 400 486 400 486 423 453 c 1,9,-1
 429 453 l 2,10,11
 428 456 428 456 426 473 c 128,-1,12
 424 490 424 490 422 512 c 128,-1,13
 420 534 420 534 420 553 c 2,14,-1
 420 592 l 1,15,-1
 243 592 l 1,16,-1
 243 677 l 1,17,-1
 420 677 l 1,18,-1
 420 760 l 1,19,-1
 546 760 l 1,20,-1
 546 677 l 1,21,-1
 622 677 l 1,22,-1
 622 592 l 1,23,-1
 546 592 l 1,24,-1
 546 0 l 1,25,-1
 447 0 l 1,26,-1
 424 71 l 1,27,-1
 419 71 l 1,28,29
 396 37 396 37 358.5 13.5 c 128,-1,30
 321 -10 321 -10 260 -10 c 0,0,1
298 92 m 0,31,32
 368 92 368 92 396.5 130 c 128,-1,33
 425 168 425 168 426 244 c 2,34,-1
 426 259 l 2,35,36
 426 342 426 342 398.5 386 c 128,-1,37
 371 430 371 430 296 430 c 0,38,39
 238 430 238 430 208 385 c 128,-1,40
 178 340 178 340 178 258 c 0,41,42
 178 177 178 177 208.5 134.5 c 128,-1,43
 239 92 239 92 298 92 c 0,31,32
EndSplineSet
Substitution2: "'smcp' Lowercase to Small Capitals lookup 34 subtable" dcroat.sc
EndChar

StartChar: eogonek
Encoding: 281 281 219
Width: 581
GlyphClass: 2
Flags: W
AnchorPoint: "Anchor-3" 561 542 basechar 0
AnchorPoint: "Anchor-2" 292 542 basechar 0
AnchorPoint: "Anchor-0" 298 -232 basechar 0
LayerCount: 2
Fore
SplineSet
404 -113 m 0,0,1
 404 -134 404 -134 415 -144.5 c 128,-1,2
 426 -155 426 -155 445 -155 c 0,3,4
 462 -155 462 -155 475.5 -152 c 128,-1,5
 489 -149 489 -149 498 -147 c 1,6,-1
 498 -222 l 1,7,8
 483 -226 483 -226 466.5 -229 c 128,-1,9
 450 -232 450 -232 427 -232 c 0,10,11
 372 -232 372 -232 342.5 -203.5 c 128,-1,12
 313 -175 313 -175 313 -127 c 0,13,14
 313 -93 313 -93 333.5 -62 c 128,-1,15
 354 -31 354 -31 383 -7 c 1,16,17
 354 -10 354 -10 320 -10 c 0,18,19
 240 -10 240 -10 179 20.5 c 128,-1,20
 118 51 118 51 83.5 112.5 c 128,-1,21
 49 174 49 174 49 267 c 0,22,23
 49 406 49 406 117.5 479 c 128,-1,24
 186 552 186 552 299 552 c 0,25,26
 408 552 408 552 471.5 487 c 128,-1,27
 535 422 535 422 535 306 c 2,28,-1
 535 242 l 1,29,-1
 177 242 l 1,30,31
 179 168 179 168 218 127.5 c 128,-1,32
 257 87 257 87 326 87 c 0,33,34
 378 87 378 87 420 97.5 c 128,-1,35
 462 108 462 108 506 128 c 1,36,-1
 506 27 l 1,37,38
 446 -24 446 -24 425 -54.5 c 128,-1,39
 404 -85 404 -85 404 -113 c 0,0,1
299 459 m 0,40,41
 248 459 248 459 216.5 426.5 c 128,-1,42
 185 394 185 394 180 330 c 1,43,-1
 413 330 l 1,44,45
 412 386 412 386 384.5 422.5 c 128,-1,46
 357 459 357 459 299 459 c 0,40,41
EndSplineSet
Substitution2: "'smcp' Lowercase to Small Capitals lookup 34 subtable" eogonek.sc
Substitution2: "'locl' Localized Forms in Latin lookup 9 subtable" eogonek.loclNAV
Ligature2: "'ccmp' Glyph Composition/Decomposition lookup 6 subtable" e uni0328
EndChar

StartChar: Hbar
Encoding: 294 294 232
Width: 756
GlyphClass: 2
Flags: W
AnchorPoint: "Anchor-2" 378 714 basechar 0
AnchorPoint: "Anchor-0" 378 0 basechar 0
LayerCount: 2
Fore
SplineSet
93 0 m 1,0,-1
 93 522 l 1,1,-1
 0 522 l 1,2,-1
 0 610 l 1,3,-1
 93 610 l 1,4,-1
 93 714 l 1,5,-1
 221 714 l 1,6,-1
 221 610 l 1,7,-1
 535 610 l 1,8,-1
 535 714 l 1,9,-1
 663 714 l 1,10,-1
 663 610 l 1,11,-1
 756 610 l 1,12,-1
 756 522 l 1,13,-1
 663 522 l 1,14,-1
 663 0 l 1,15,-1
 535 0 l 1,16,-1
 535 317 l 1,17,-1
 221 317 l 1,18,-1
 221 0 l 1,19,-1
 93 0 l 1,0,-1
221 426 m 1,20,-1
 535 426 l 1,21,-1
 535 522 l 1,22,-1
 221 522 l 1,23,-1
 221 426 l 1,20,-1
EndSplineSet
Substitution2: "'c2sc' Capitals to Small Capitals lookup 33 subtable" hbar.sc
EndChar

StartChar: hbar
Encoding: 295 295 233
Width: 642
GlyphClass: 2
Flags: W
AnchorPoint: "Anchor-2" 146 760 basechar 0
AnchorPoint: "Anchor-0" 321 0 basechar 0
LayerCount: 2
Fore
SplineSet
207 760 m 1,0,-1
 207 677 l 1,1,-1
 383 677 l 1,2,-1
 383 592 l 1,3,-1
 207 592 l 1,4,-1
 207 553 l 2,5,6
 207 521 207 521 204.5 490.5 c 128,-1,7
 202 460 202 460 200 445 c 1,8,-1
 208 445 l 1,9,10
 234 486 234 486 276 506 c 128,-1,11
 318 526 318 526 370 526 c 0,12,13
 462 526 462 526 513.5 478.5 c 128,-1,14
 565 431 565 431 565 327 c 2,15,-1
 565 0 l 1,16,-1
 439 0 l 1,17,-1
 439 302 l 2,18,19
 439 363 439 363 415 393.5 c 128,-1,20
 391 424 391 424 339 424 c 0,21,22
 263 424 263 424 235 376 c 128,-1,23
 207 328 207 328 207 239 c 2,24,-1
 207 0 l 1,25,-1
 81 0 l 1,26,-1
 81 592 l 1,27,-1
 5 592 l 1,28,-1
 5 677 l 1,29,-1
 81 677 l 1,30,-1
 81 760 l 1,31,-1
 207 760 l 1,0,-1
EndSplineSet
Substitution2: "'smcp' Lowercase to Small Capitals lookup 34 subtable" hbar.sc
EndChar

StartChar: kgreenlandic
Encoding: 312 312 249
Width: 588
GlyphClass: 2
Flags: W
AnchorPoint: "Anchor-2" 294 542 basechar 0
AnchorPoint: "Anchor-0" 294 0 basechar 0
LayerCount: 2
Fore
SplineSet
570 542 m 1,0,-1
 360 297 l 1,1,-1
 584 0 l 1,2,-1
 439 0 l 1,3,-1
 277 221 l 1,4,-1
 209 173 l 1,5,-1
 209 0 l 1,6,-1
 81 0 l 1,7,-1
 81 542 l 1,8,-1
 209 542 l 1,9,-1
 209 401 l 2,10,11
 208 367 208 367 207 334 c 128,-1,12
 206 301 206 301 204 275 c 1,13,-1
 206 275 l 1,14,15
 220 293 220 293 235 311 c 128,-1,16
 250 329 250 329 264 346 c 2,17,-1
 431 542 l 1,18,-1
 570 542 l 1,0,-1
EndSplineSet
EndChar

StartChar: Lslash
Encoding: 321 321 258
Width: 550
GlyphClass: 2
Flags: W
AnchorPoint: "Anchor-2" 155 714 basechar 0
AnchorPoint: "Anchor-0" 305 0 basechar 0
LayerCount: 2
Fore
SplineSet
93 0 m 1,0,-1
 93 243 l 1,1,-1
 53 220 l 1,2,-1
 6 302 l 1,3,-1
 93 355 l 1,4,-1
 93 714 l 1,5,-1
 221 714 l 1,6,-1
 221 432 l 1,7,-1
 316 489 l 1,8,-1
 365 406 l 1,9,-1
 221 320 l 1,10,-1
 221 108 l 1,11,-1
 519 108 l 1,12,-1
 519 0 l 1,13,-1
 93 0 l 1,0,-1
EndSplineSet
Substitution2: "'c2sc' Capitals to Small Capitals lookup 33 subtable" lslash.sc
EndChar

StartChar: lslash
Encoding: 322 322 259
Width: 287
GlyphClass: 2
Flags: W
AnchorPoint: "Anchor-2" 144 760 basechar 0
AnchorPoint: "Anchor-0" 144 0 basechar 0
LayerCount: 2
Fore
SplineSet
78 0 m 1,0,-1
 78 253 l 1,1,-1
 37 227 l 1,2,-1
 -11 310 l 1,3,-1
 78 365 l 1,4,-1
 78 760 l 1,5,-1
 204 760 l 1,6,-1
 204 443 l 1,7,-1
 249 473 l 1,8,-1
 299 391 l 1,9,-1
 204 331 l 1,10,-1
 204 0 l 1,11,-1
 78 0 l 1,0,-1
EndSplineSet
Substitution2: "'smcp' Lowercase to Small Capitals lookup 34 subtable" lslash.sc
EndChar

StartChar: Eng
Encoding: 330 330 267
Width: 793
GlyphClass: 2
Flags: W
AnchorPoint: "Anchor-2" 397 714 basechar 0
AnchorPoint: "Anchor-0" 397 -202 basechar 0
LayerCount: 2
Fore
SplineSet
488 -202 m 0,0,1
 459 -202 459 -202 437 -199 c 128,-1,2
 415 -196 415 -196 400 -191 c 1,3,-1
 400 -89 l 1,4,5
 416 -93 416 -93 436 -96 c 128,-1,6
 456 -99 456 -99 479 -99 c 0,7,8
 528 -99 528 -99 556 -76.5 c 128,-1,9
 584 -54 584 -54 586 1 c 1,10,-1
 203 560 l 1,11,-1
 199 560 l 1,12,13
 200 554 200 554 201.5 532 c 128,-1,14
 203 510 203 510 204.5 479 c 128,-1,15
 206 448 206 448 207 415 c 128,-1,16
 208 382 208 382 208 355 c 2,17,-1
 208 0 l 1,18,-1
 93 0 l 1,19,-1
 93 714 l 1,20,-1
 251 714 l 1,21,-1
 588 224 l 1,22,-1
 591 224 l 1,23,24
 590 230 590 230 589 251.5 c 128,-1,25
 588 273 588 273 587 303 c 128,-1,26
 586 333 586 333 585 364.5 c 128,-1,27
 584 396 584 396 584 422 c 2,28,-1
 584 714 l 1,29,-1
 700 714 l 1,30,-1
 700 2 l 2,31,32
 700 -104 700 -104 642 -153 c 128,-1,33
 584 -202 584 -202 488 -202 c 0,0,1
EndSplineSet
Substitution2: "'c2sc' Capitals to Small Capitals lookup 33 subtable" eng.sc
AlternateSubs2: "'aalt' Access All Alternates lookup 1 subtable" Eng.alt1 Eng.alt2 Eng.alt3
EndChar

StartChar: eng
Encoding: 331 331 268
Width: 642
GlyphClass: 2
Flags: W
AnchorPoint: "Anchor-2" 321 542 basechar 0
AnchorPoint: "Anchor-0" 321 -240 basechar 0
LayerCount: 2
Fore
SplineSet
401 -240 m 0,0,1
 377 -240 377 -240 355 -236.5 c 128,-1,2
 333 -233 333 -233 318 -228 c 1,3,-1
 318 -128 l 1,4,5
 332 -132 332 -132 346 -135 c 128,-1,6
 360 -138 360 -138 377 -138 c 0,7,8
 403 -138 403 -138 421 -121 c 128,-1,9
 439 -104 439 -104 439 -54 c 2,10,-1
 439 335 l 2,11,12
 439 450 439 450 340 450 c 0,13,14
 264 450 264 450 235.5 402.5 c 128,-1,15
 207 355 207 355 207 265 c 2,16,-1
 207 0 l 1,17,-1
 81 0 l 1,18,-1
 81 542 l 1,19,-1
 178 542 l 1,20,-1
 196 471 l 1,21,-1
 204 471 l 1,22,23
 230 513 230 513 275 532.5 c 128,-1,24
 320 552 320 552 371 552 c 0,25,26
 462 552 462 552 513.5 505 c 128,-1,27
 565 458 565 458 565 354 c 2,28,-1
 565 -67 l 2,29,30
 565 -142 565 -142 527 -191 c 128,-1,31
 489 -240 489 -240 401 -240 c 0,0,1
EndSplineSet
Substitution2: "'smcp' Lowercase to Small Capitals lookup 34 subtable" eng.sc
EndChar

StartChar: OE
Encoding: 338 338 275
Width: 956
GlyphClass: 2
Flags: W
AnchorPoint: "Anchor-2" 478 714 basechar 0
AnchorPoint: "Anchor-0" 478 0 basechar 0
LayerCount: 2
Fore
SplineSet
382 725 m 0,0,1
 408 725 408 725 436.5 722 c 128,-1,2
 465 719 465 719 487 714 c 1,3,-1
 897 714 l 1,4,-1
 897 607 l 1,5,-1
 617 607 l 1,6,-1
 617 425 l 1,7,-1
 878 425 l 1,8,-1
 878 318 l 1,9,-1
 617 318 l 1,10,-1
 617 108 l 1,11,-1
 897 108 l 1,12,-1
 897 0 l 1,13,-1
 488 0 l 1,14,15
 466 -4 466 -4 437 -7 c 128,-1,16
 408 -10 408 -10 383 -10 c 0,17,18
 272 -10 272 -10 200.5 36 c 128,-1,19
 129 82 129 82 94 165 c 128,-1,20
 59 248 59 248 59 359 c 256,21,22
 59 470 59 470 94 552 c 128,-1,23
 129 634 129 634 200.5 679.5 c 128,-1,24
 272 725 272 725 382 725 c 0,0,1
385 617 m 0,25,26
 285 617 285 617 238.5 548 c 128,-1,27
 192 479 192 479 192 358 c 256,28,29
 192 237 192 237 238.5 168 c 128,-1,30
 285 99 285 99 384 99 c 0,31,32
 412 99 412 99 441 103.5 c 128,-1,33
 470 108 470 108 490 117 c 1,34,-1
 490 598 l 1,35,36
 470 607 470 607 442 612 c 128,-1,37
 414 617 414 617 385 617 c 0,25,26
EndSplineSet
Substitution2: "'c2sc' Capitals to Small Capitals lookup 33 subtable" oe.sc
EndChar

StartChar: oe
Encoding: 339 339 276
Width: 966
GlyphClass: 2
Flags: W
AnchorPoint: "Anchor-2" 483 542 basechar 0
AnchorPoint: "Anchor-0" 483 0 basechar 0
LayerCount: 2
Fore
SplineSet
681 552 m 0,0,1
 791 552 791 552 855.5 487 c 128,-1,2
 920 422 920 422 920 306 c 2,3,-1
 920 242 l 1,4,-1
 559 242 l 1,5,6
 561 166 561 166 599.5 126.5 c 128,-1,7
 638 87 638 87 707 87 c 0,8,9
 761 87 761 87 804 97.5 c 128,-1,10
 847 108 847 108 891 128 c 1,11,-1
 891 27 l 1,12,13
 850 8 850 8 807 -1 c 128,-1,14
 764 -10 764 -10 703 -10 c 0,15,16
 638 -10 638 -10 586 12 c 128,-1,17
 534 34 534 34 499 79 c 1,18,19
 466 35 466 35 416 12.5 c 128,-1,20
 366 -10 366 -10 305 -10 c 0,21,22
 230 -10 230 -10 172 23 c 128,-1,23
 114 56 114 56 81 119 c 128,-1,24
 48 182 48 182 48 272 c 0,25,26
 48 406 48 406 116 479 c 128,-1,27
 184 552 184 552 305 552 c 0,28,29
 363 552 363 552 412.5 529 c 128,-1,30
 462 506 462 506 494 463 c 1,31,32
 560 552 560 552 681 552 c 0,0,1
682 459 m 0,33,34
 631 459 631 459 599 426.5 c 128,-1,35
 567 394 567 394 562 330 c 1,36,-1
 797 330 l 1,37,38
 797 387 797 387 769 423 c 128,-1,39
 741 459 741 459 682 459 c 0,33,34
304 450 m 256,40,41
 237 450 237 450 207.5 405 c 128,-1,42
 178 360 178 360 178 272 c 256,43,44
 178 184 178 184 208 138 c 128,-1,45
 238 92 238 92 305 92 c 256,46,47
 372 92 372 92 401.5 137 c 128,-1,48
 431 182 431 182 431 271 c 256,49,50
 431 360 431 360 401 405 c 128,-1,51
 371 450 371 450 304 450 c 256,40,41
EndSplineSet
Substitution2: "'smcp' Lowercase to Small Capitals lookup 34 subtable" oe.sc
EndChar

StartChar: Tbar
Encoding: 358 358 295
Width: 570
GlyphClass: 2
Flags: W
AnchorPoint: "Anchor-2" 285 714 basechar 0
AnchorPoint: "Anchor-0" 285 0 basechar 0
LayerCount: 2
Fore
SplineSet
221 0 m 1,0,-1
 221 304 l 1,1,-1
 89 304 l 1,2,-1
 89 409 l 1,3,-1
 221 409 l 1,4,-1
 221 605 l 1,5,-1
 16 605 l 1,6,-1
 16 714 l 1,7,-1
 554 714 l 1,8,-1
 554 605 l 1,9,-1
 349 605 l 1,10,-1
 349 409 l 1,11,-1
 480 409 l 1,12,-1
 480 304 l 1,13,-1
 349 304 l 1,14,-1
 349 0 l 1,15,-1
 221 0 l 1,0,-1
EndSplineSet
Substitution2: "'c2sc' Capitals to Small Capitals lookup 33 subtable" tbar.sc
EndChar

StartChar: tbar
Encoding: 359 359 296
Width: 406
GlyphClass: 2
Flags: W
AnchorPoint: "Anchor-3" 373 661 basechar 0
AnchorPoint: "Anchor-2" 181 661 basechar 0
AnchorPoint: "Anchor-1" 203 271 basechar 0
AnchorPoint: "Anchor-0" 231 0 basechar 0
LayerCount: 2
Fore
SplineSet
29 257 m 1,0,-1
 29 342 l 1,1,-1
 93 342 l 1,2,-1
 93 447 l 1,3,-1
 20 447 l 1,4,-1
 20 502 l 1,5,-1
 100 546 l 1,6,-1
 140 661 l 1,7,-1
 219 661 l 1,8,-1
 219 542 l 1,9,-1
 373 542 l 1,10,-1
 373 447 l 1,11,-1
 219 447 l 1,12,-1
 219 342 l 1,13,-1
 359 342 l 1,14,-1
 359 257 l 1,15,-1
 219 257 l 1,16,-1
 219 166 l 2,17,18
 219 128 219 128 239.5 109.5 c 128,-1,19
 260 91 260 91 291 91 c 0,20,21
 314 91 314 91 336.5 95.5 c 128,-1,22
 359 100 359 100 378 106 c 1,23,-1
 378 12 l 1,24,25
 358 2 358 2 326 -4 c 128,-1,26
 294 -10 294 -10 259 -10 c 0,27,28
 212 -10 212 -10 174.5 5 c 128,-1,29
 137 20 137 20 115 58 c 128,-1,30
 93 96 93 96 93 165 c 2,31,-1
 93 257 l 1,32,-1
 29 257 l 1,0,-1
EndSplineSet
Substitution2: "'smcp' Lowercase to Small Capitals lookup 34 subtable" tbar.sc
EndChar

StartChar: Uogonek
Encoding: 370 370 307
Width: 747
GlyphClass: 2
Flags: W
AnchorPoint: "Anchor-3" 727 714 basechar 0
AnchorPoint: "Anchor-2" 373 714 basechar 0
AnchorPoint: "Anchor-0" 371 -232 basechar 0
LayerCount: 2
Fore
SplineSet
478 -103 m 0,0,1
 478 -130 478 -130 489.5 -142.5 c 128,-1,2
 501 -155 501 -155 520 -155 c 0,3,4
 536 -155 536 -155 549.5 -152 c 128,-1,5
 563 -149 563 -149 572 -147 c 1,6,-1
 572 -222 l 1,7,8
 557 -226 557 -226 540.5 -229 c 128,-1,9
 524 -232 524 -232 501 -232 c 0,10,11
 446 -232 446 -232 416.5 -202.5 c 128,-1,12
 387 -173 387 -173 387 -119 c 0,13,14
 387 -88 387 -88 401 -58.5 c 128,-1,15
 415 -29 415 -29 436 -5 c 1,16,17
 405 -10 405 -10 370 -10 c 0,18,19
 231 -10 231 -10 159 62.5 c 128,-1,20
 87 135 87 135 87 254 c 2,21,-1
 87 714 l 1,22,-1
 215 714 l 1,23,-1
 215 267 l 2,24,25
 215 179 215 179 254.5 139 c 128,-1,26
 294 99 294 99 374 99 c 0,27,28
 457 99 457 99 494.5 142.5 c 128,-1,29
 532 186 532 186 532 268 c 2,30,-1
 532 714 l 1,31,-1
 659 714 l 1,32,-1
 659 252 l 2,33,34
 659 189 659 189 636 135.5 c 128,-1,35
 613 82 613 82 566 47 c 1,36,37
 520 0 520 0 499 -35.5 c 128,-1,38
 478 -71 478 -71 478 -103 c 0,0,1
EndSplineSet
Substitution2: "'c2sc' Capitals to Small Capitals lookup 33 subtable" uogonek.sc
Substitution2: "'locl' Localized Forms in Latin lookup 9 subtable" Uogonek.loclNAV
Ligature2: "'ccmp' Glyph Composition/Decomposition lookup 6 subtable" U uni0328
EndChar

StartChar: longs
Encoding: 383 383 320
Width: 362
GlyphClass: 2
Flags: W
AnchorPoint: "Anchor-2" 225 765 basechar 0
AnchorPoint: "Anchor-0" 181 0 basechar 0
LayerCount: 2
Fore
SplineSet
278 664 m 0,0,1
 207 664 207 664 207 579 c 2,2,-1
 207 0 l 1,3,-1
 81 0 l 1,4,-1
 81 583 l 2,5,6
 81 652 81 652 104 691.5 c 128,-1,7
 127 731 127 731 168.5 748 c 128,-1,8
 210 765 210 765 267 765 c 0,9,10
 308 765 308 765 338 758.5 c 128,-1,11
 368 752 368 752 389 744 c 1,12,-1
 359 650 l 1,13,14
 342 655 342 655 322 659.5 c 128,-1,15
 302 664 302 664 278 664 c 0,0,1
EndSplineSet
EndChar

StartChar: florin
Encoding: 402 402 321
Width: 572
GlyphClass: 2
Flags: W
AnchorPoint: "Anchor-2" 365 724 basechar 0
AnchorPoint: "Anchor-0" 286 -240 basechar 0
LayerCount: 2
Fore
SplineSet
400 724 m 0,0,1
 440 724 440 724 469 717 c 128,-1,2
 498 710 498 710 518 702 c 1,3,-1
 488 608 l 1,4,5
 472 613 472 613 454 618 c 128,-1,6
 436 623 436 623 414 623 c 0,7,8
 380 623 380 623 365 602.5 c 128,-1,9
 350 582 350 582 350 541 c 2,10,-1
 350 493 l 1,11,-1
 470 493 l 1,12,-1
 470 398 l 1,13,-1
 350 398 l 1,14,-1
 350 -61 l 2,15,16
 350 -144 350 -144 308.5 -192 c 128,-1,17
 267 -240 267 -240 177 -240 c 0,18,19
 155 -240 155 -240 132.5 -237 c 128,-1,20
 110 -234 110 -234 95 -229 c 1,21,-1
 95 -129 l 1,22,23
 110 -133 110 -133 124 -135.5 c 128,-1,24
 138 -138 138 -138 155 -138 c 0,25,26
 186 -138 186 -138 205 -119 c 128,-1,27
 224 -100 224 -100 224 -47 c 2,28,-1
 224 398 l 1,29,-1
 133 398 l 1,30,-1
 133 458 l 1,31,-1
 224 494 l 1,32,-1
 224 544 l 2,33,34
 224 613 224 613 245 652.5 c 128,-1,35
 266 692 266 692 305.5 708 c 128,-1,36
 345 724 345 724 400 724 c 0,0,1
EndSplineSet
EndChar

StartChar: Aringacute
Encoding: 506 506 322
Width: 671
GlyphClass: 2
Flags: W
AnchorPoint: "Anchor-2" 336 958 basechar 0
AnchorPoint: "Anchor-0" 336 0 basechar 0
LayerCount: 2
Fore
SplineSet
280 846 m 1,0,-1
 280 854 l 1,1,2
 301 875 301 875 325 904.5 c 128,-1,3
 349 934 349 934 365 958 c 1,4,-1
 509 958 l 1,5,-1
 509 951 l 1,6,7
 498 938 498 938 472 918 c 128,-1,8
 446 898 446 898 416 878 c 128,-1,9
 386 858 386 858 364 846 c 1,10,-1
 280 846 l 1,0,-1
0 0 m 1,11,-1
 249 629 l 1,12,13
 218 657 218 657 218 707 c 0,14,15
 218 760 218 760 250 790 c 128,-1,16
 282 820 282 820 334 820 c 0,17,18
 384 820 384 820 419 790 c 128,-1,19
 454 760 454 760 454 708 c 0,20,21
 454 682 454 682 445 663 c 128,-1,22
 436 644 436 644 421 630 c 1,23,-1
 671 0 l 1,24,-1
 535 0 l 1,25,-1
 472 173 l 1,26,-1
 198 173 l 1,27,-1
 136 0 l 1,28,-1
 0 0 l 1,11,-1
334 658 m 0,29,30
 385 658 385 658 385 707 c 0,31,32
 385 731 385 731 370.5 744.5 c 128,-1,33
 356 758 356 758 334 758 c 256,34,35
 312 758 312 758 298 744.5 c 128,-1,36
 284 731 284 731 284 707 c 0,37,38
 284 684 284 684 297 671 c 128,-1,39
 310 658 310 658 334 658 c 0,29,30
230 282 m 1,40,-1
 442 282 l 1,41,-1
 379 448 l 2,42,43
 374 462 374 462 365.5 486 c 128,-1,44
 357 510 357 510 348.5 535 c 128,-1,45
 340 560 340 560 335 577 c 1,46,47
 330 561 330 561 321.5 534 c 128,-1,48
 313 507 313 507 304.5 482.5 c 128,-1,49
 296 458 296 458 292 447 c 2,50,-1
 230 282 l 1,40,-1
EndSplineSet
Substitution2: "'c2sc' Capitals to Small Capitals lookup 33 subtable" aringacute.sc
EndChar

StartChar: aringacute
Encoding: 507 507 323
Width: 588
GlyphClass: 2
Flags: W
AnchorPoint: "Anchor-2" 294 958 basechar 0
AnchorPoint: "Anchor-0" 294 0 basechar 0
LayerCount: 2
Fore
SplineSet
468 958 m 1,0,-1
 468 952 l 1,1,2
 458 940 458 940 430 922 c 128,-1,3
 402 904 402 904 370 886 c 128,-1,4
 338 868 338 868 315 856 c 1,5,-1
 230 856 l 1,6,-1
 230 864 l 1,7,8
 251 883 251 883 275 909.5 c 128,-1,9
 299 936 299 936 315 958 c 1,10,-1
 468 958 l 1,0,-1
298 817 m 0,11,12
 348 817 348 817 382.5 787.5 c 128,-1,13
 417 758 417 758 417 706 c 0,14,15
 417 653 417 653 383 623 c 128,-1,16
 349 593 349 593 298 593 c 0,17,18
 246 593 246 593 214 622.5 c 128,-1,19
 182 652 182 652 182 705 c 256,20,21
 182 758 182 758 214 787.5 c 128,-1,22
 246 817 246 817 298 817 c 0,11,12
298 756 m 256,23,24
 276 756 276 756 262 742 c 128,-1,25
 248 728 248 728 248 705 c 256,26,27
 248 682 248 682 260.5 668.5 c 128,-1,28
 273 655 273 655 298 655 c 0,29,30
 320 655 320 655 334 668.5 c 128,-1,31
 348 682 348 682 348 705 c 256,32,33
 348 728 348 728 334 742 c 128,-1,34
 320 756 320 756 298 756 c 256,23,24
297 552 m 0,35,36
 402 552 402 552 456.5 506 c 128,-1,37
 511 460 511 460 511 364 c 2,38,-1
 511 0 l 1,39,-1
 422 0 l 1,40,-1
 397 75 l 1,41,-1
 393 75 l 1,42,43
 358 31 358 31 319 10.5 c 128,-1,44
 280 -10 280 -10 213 -10 c 0,45,46
 140 -10 140 -10 92 31 c 128,-1,47
 44 72 44 72 44 158 c 0,48,49
 44 242 44 242 105.5 284 c 128,-1,50
 167 326 167 326 292 331 c 2,51,-1
 386 334 l 1,52,-1
 386 361 l 2,53,54
 386 413 386 413 361 435 c 128,-1,55
 336 457 336 457 291 457 c 0,56,57
 250 457 250 457 212.5 445.5 c 128,-1,58
 175 434 175 434 138 417 c 1,59,-1
 98 505 l 1,60,61
 138 526 138 526 189.5 539 c 128,-1,62
 241 552 241 552 297 552 c 0,35,36
386 256 m 1,63,-1
 320 254 l 2,64,65
 237 251 237 251 205 225.5 c 128,-1,66
 173 200 173 200 173 157 c 0,67,68
 173 118 173 118 195.5 101.5 c 128,-1,69
 218 85 218 85 255 85 c 0,70,71
 310 85 310 85 348 116.5 c 128,-1,72
 386 148 386 148 386 210 c 2,73,-1
 386 256 l 1,63,-1
EndSplineSet
Substitution2: "'smcp' Lowercase to Small Capitals lookup 34 subtable" aringacute.sc
EndChar

StartChar: circumflex
Encoding: 710 710 330
Width: 472
Flags: W
LayerCount: 2
Fore
SplineSet
307 766 m 1,0,1
 320 744 320 744 342.5 716.5 c 128,-1,2
 365 689 365 689 389.5 662.5 c 128,-1,3
 414 636 414 636 432 618 c 1,4,-1
 432 606 l 1,5,-1
 347 606 l 1,6,7
 321 622 321 622 290.5 644.5 c 128,-1,8
 260 667 260 667 234 694 c 1,9,10
 208 667 208 667 179 644.5 c 128,-1,11
 150 622 150 622 124 606 c 1,12,-1
 40 606 l 1,13,-1
 40 618 l 1,14,15
 58 637 58 637 82 663 c 128,-1,16
 106 689 106 689 128 716.5 c 128,-1,17
 150 744 150 744 164 766 c 1,18,-1
 307 766 l 1,0,1
EndSplineSet
EndChar

StartChar: caron
Encoding: 711 711 331
Width: 472
Flags: W
LayerCount: 2
Fore
SplineSet
164 606 m 1,0,1
 150 628 150 628 128 655.5 c 128,-1,2
 106 683 106 683 82 708.5 c 128,-1,3
 58 734 58 734 40 753 c 1,4,-1
 40 766 l 1,5,-1
 124 766 l 1,6,7
 150 750 150 750 179 727.5 c 128,-1,8
 208 705 208 705 234 678 c 1,9,10
 260 705 260 705 290.5 727.5 c 128,-1,11
 321 750 321 750 347 766 c 1,12,-1
 432 766 l 1,13,-1
 432 753 l 1,14,15
 414 734 414 734 389.5 708.5 c 128,-1,16
 365 683 365 683 342.5 655.5 c 128,-1,17
 320 628 320 628 307 606 c 1,18,-1
 164 606 l 1,0,1
EndSplineSet
EndChar

StartChar: macron
Encoding: 713 713 332
Width: 398
Flags: W
LayerCount: 2
Fore
SplineSet
358 697 m 1,0,-1
 358 606 l 1,1,-1
 40 606 l 1,2,-1
 40 697 l 1,3,-1
 358 697 l 1,0,-1
EndSplineSet
EndChar

StartChar: breve
Encoding: 728 728 333
Width: 436
Flags: W
LayerCount: 2
Fore
SplineSet
396 759 m 1,0,1
 391 692 391 692 343 649 c 128,-1,2
 295 606 295 606 216 606 c 0,3,4
 134 606 134 606 89 647.5 c 128,-1,5
 44 689 44 689 40 759 c 1,6,-1
 112 759 l 1,7,8
 116 718 116 718 145 708 c 128,-1,9
 174 698 174 698 217 698 c 0,10,11
 242 698 242 698 265 702.5 c 128,-1,12
 288 707 288 707 304 720 c 128,-1,13
 320 733 320 733 323 759 c 1,14,-1
 396 759 l 1,0,1
EndSplineSet
EndChar

StartChar: dotaccent
Encoding: 729 729 334
Width: 220
Flags: W
LayerCount: 2
Fore
SplineSet
110 751 m 0,0,1
 138 751 138 751 159 736.5 c 128,-1,2
 180 722 180 722 180 685 c 256,3,4
 180 648 180 648 159 633 c 128,-1,5
 138 618 138 618 110 618 c 0,6,7
 81 618 81 618 60.5 633 c 128,-1,8
 40 648 40 648 40 685 c 256,9,10
 40 722 40 722 60.5 736.5 c 128,-1,11
 81 751 81 751 110 751 c 0,0,1
EndSplineSet
EndChar

StartChar: ring
Encoding: 730 730 335
Width: 316
Flags: W
LayerCount: 2
Fore
SplineSet
156 605 m 0,0,1
 104 605 104 605 72 635 c 128,-1,2
 40 665 40 665 40 718 c 0,3,4
 40 770 40 770 72 799.5 c 128,-1,5
 104 829 104 829 156 829 c 0,6,7
 206 829 206 829 241 799.5 c 128,-1,8
 276 770 276 770 276 719 c 0,9,10
 276 665 276 665 241.5 635 c 128,-1,11
 207 605 207 605 156 605 c 0,0,1
156 667 m 0,12,13
 178 667 178 667 192.5 680.5 c 128,-1,14
 207 694 207 694 207 718 c 0,15,16
 207 741 207 741 192.5 754.5 c 128,-1,17
 178 768 178 768 156 768 c 0,18,19
 135 768 135 768 120.5 754.5 c 128,-1,20
 106 741 106 741 106 718 c 0,21,22
 106 667 106 667 156 667 c 0,12,13
EndSplineSet
EndChar

StartChar: ogonek
Encoding: 731 731 336
Width: 266
Flags: W
LayerCount: 2
Fore
SplineSet
131 -113 m 0,0,1
 131 -134 131 -134 142.5 -144.5 c 128,-1,2
 154 -155 154 -155 173 -155 c 0,3,4
 189 -155 189 -155 202.5 -152 c 128,-1,5
 216 -149 216 -149 226 -147 c 1,6,-1
 226 -222 l 1,7,8
 210 -226 210 -226 194 -229 c 128,-1,9
 178 -232 178 -232 155 -232 c 0,10,11
 100 -232 100 -232 70 -203.5 c 128,-1,12
 40 -175 40 -175 40 -127 c 0,13,14
 40 -84 40 -84 71.5 -45.5 c 128,-1,15
 103 -7 103 -7 143 16 c 1,16,-1
 202 0 l 1,17,18
 168 -32 168 -32 149.5 -58.5 c 128,-1,19
 131 -85 131 -85 131 -113 c 0,0,1
EndSplineSet
EndChar

StartChar: tilde
Encoding: 732 732 337
Width: 471
Flags: W
LayerCount: 2
Fore
SplineSet
40 605 m 1,0,1
 46 676 46 676 80 712 c 128,-1,2
 114 748 114 748 164 748 c 0,3,4
 192 748 192 748 218 734.5 c 128,-1,5
 244 721 244 721 268 707.5 c 128,-1,6
 292 694 292 694 315 694 c 0,7,8
 354 694 354 694 366 749 c 1,9,-1
 431 749 l 1,10,11
 425 678 425 678 390.5 642 c 128,-1,12
 356 606 356 606 307 606 c 0,13,14
 280 606 280 606 254 619.5 c 128,-1,15
 228 633 228 633 203.5 646.5 c 128,-1,16
 179 660 179 660 156 660 c 0,17,18
 117 660 117 660 105 605 c 1,19,-1
 40 605 l 1,0,1
EndSplineSet
EndChar

StartChar: hungarumlaut
Encoding: 733 733 338
Width: 487
Flags: W
LayerCount: 2
Fore
SplineSet
447 766 m 1,0,-1
 447 756 l 1,1,2
 439 743 439 743 421.5 723 c 128,-1,3
 404 703 404 703 381.5 681 c 128,-1,4
 359 659 359 659 336 639.5 c 128,-1,5
 313 620 313 620 295 606 c 1,6,-1
 227 606 l 1,7,-1
 227 619 l 1,8,9
 241 638 241 638 258 664 c 128,-1,10
 275 690 275 690 291.5 717 c 128,-1,11
 308 744 308 744 319 766 c 1,12,-1
 447 766 l 1,0,-1
260 766 m 1,13,-1
 260 756 l 1,14,15
 252 743 252 743 234.5 723 c 128,-1,16
 217 703 217 703 194.5 681 c 128,-1,17
 172 659 172 659 149 639.5 c 128,-1,18
 126 620 126 620 108 606 c 1,19,-1
 40 606 l 1,20,-1
 40 619 l 1,21,22
 54 638 54 638 71 664 c 128,-1,23
 88 690 88 690 104 717 c 128,-1,24
 120 744 120 744 132 766 c 1,25,-1
 260 766 l 1,13,-1
EndSplineSet
EndChar

StartChar: tonos
Encoding: 900 900 339
Width: 577
Flags: W
AnchorPoint: "Anchor-10" 291 542 mark 0
AnchorPoint: "Anchor-6" 291 542 mark 0
AnchorPoint: "Anchor-2" 291 542 mark 0
LayerCount: 2
Fore
SplineSet
242 606 m 1,0,-1
 242 621 l 1,1,2
 250 644 250 644 258 676 c 128,-1,3
 266 708 266 708 273 740.5 c 128,-1,4
 280 773 280 773 284 799 c 1,5,-1
 405 799 l 1,6,-1
 405 788 l 1,7,8
 392 751 392 751 368 701 c 128,-1,9
 344 651 344 651 316 606 c 1,10,-1
 242 606 l 1,0,-1
EndSplineSet
EndChar

StartChar: dieresistonos
Encoding: 901 901 340
Width: 577
Flags: W
AnchorPoint: "Anchor-10" 289 542 mark 0
AnchorPoint: "Anchor-6" 289 542 mark 0
AnchorPoint: "Anchor-2" 289 542 mark 0
LayerCount: 2
Fore
SplineSet
401 838 m 1,0,-1
 401 828 l 1,1,2
 385 796 385 796 360 756 c 128,-1,3
 335 716 335 716 307 678 c 1,4,-1
 249 678 l 1,5,-1
 249 691 l 1,6,7
 259 720 259 720 269.5 762.5 c 128,-1,8
 280 805 280 805 285 838 c 1,9,-1
 401 838 l 1,0,-1
170 744 m 256,10,11
 195 744 195 744 211.5 730 c 128,-1,12
 228 716 228 716 228 684 c 0,13,14
 228 654 228 654 211.5 639.5 c 128,-1,15
 195 625 195 625 170 625 c 256,16,17
 145 625 145 625 129.5 639.5 c 128,-1,18
 114 654 114 654 114 684 c 0,19,20
 114 716 114 716 129.5 730 c 128,-1,21
 145 744 145 744 170 744 c 256,10,11
420 744 m 0,22,23
 444 744 444 744 460.5 730 c 128,-1,24
 477 716 477 716 477 684 c 0,25,26
 477 654 477 654 460.5 639.5 c 128,-1,27
 444 625 444 625 420 625 c 0,28,29
 394 625 394 625 378.5 639.5 c 128,-1,30
 363 654 363 654 363 684 c 0,31,32
 363 716 363 716 378.5 730 c 128,-1,33
 394 744 394 744 420 744 c 0,22,23
EndSplineSet
EndChar

StartChar: Gamma
Encoding: 915 915 352
Width: 547
GlyphClass: 2
Flags: W
AnchorPoint: "Anchor-2" 318 714 basechar 0
AnchorPoint: "Anchor-0" 274 0 basechar 0
LayerCount: 2
Fore
SplineSet
526 714 m 1,0,-1
 526 606 l 1,1,-1
 221 606 l 1,2,-1
 221 0 l 1,3,-1
 93 0 l 1,4,-1
 93 714 l 1,5,-1
 526 714 l 1,0,-1
EndSplineSet
EndChar

StartChar: uni0394
Encoding: 916 916 353
Width: 629
GlyphClass: 2
Flags: W
AnchorPoint: "Anchor-2" 315 714 basechar 0
AnchorPoint: "Anchor-0" 315 0 basechar 0
LayerCount: 2
Fore
SplineSet
385 716 m 1,0,-1
 604 74 l 1,1,-1
 604 0 l 1,2,-1
 25 0 l 1,3,-1
 25 75 l 1,4,-1
 244 716 l 1,5,-1
 385 716 l 1,0,-1
471 108 m 1,6,-1
 347 482 l 2,7,8
 342 498 342 498 335 521 c 128,-1,9
 328 544 328 544 322 566.5 c 128,-1,10
 316 589 316 589 314 602 c 1,11,12
 312 589 312 589 306 566.5 c 128,-1,13
 300 544 300 544 293.5 521 c 128,-1,14
 287 498 287 498 282 483 c 2,15,-1
 157 108 l 1,16,-1
 471 108 l 1,6,-1
EndSplineSet
EndChar

StartChar: Theta
Encoding: 920 920 357
Width: 790
GlyphClass: 2
Flags: W
AnchorPoint: "Anchor-3" 770 714 basechar 0
AnchorPoint: "Anchor-2" 395 714 basechar 0
AnchorPoint: "Anchor-1" 395 357 basechar 0
AnchorPoint: "Anchor-0" 396 0 basechar 0
LayerCount: 2
Fore
SplineSet
731 358 m 256,0,1
 731 247 731 247 694.5 164.5 c 128,-1,2
 658 82 658 82 583 36 c 128,-1,3
 508 -10 508 -10 395 -10 c 0,4,5
 280 -10 280 -10 206 36 c 128,-1,6
 132 82 132 82 95.5 165 c 128,-1,7
 59 248 59 248 59 359 c 0,8,9
 59 469 59 469 95.5 551.5 c 128,-1,10
 132 634 132 634 206.5 679.5 c 128,-1,11
 281 725 281 725 396 725 c 0,12,13
 509 725 509 725 583.5 679.5 c 128,-1,14
 658 634 658 634 694.5 551.5 c 128,-1,15
 731 469 731 469 731 358 c 256,0,1
194 358 m 256,16,17
 194 237 194 237 242.5 168 c 128,-1,18
 291 99 291 99 395 99 c 0,19,20
 502 99 502 99 549 168 c 128,-1,21
 596 237 596 237 596 358 c 256,22,23
 596 479 596 479 549 548 c 128,-1,24
 502 617 502 617 396 617 c 0,25,26
 291 617 291 617 242.5 548 c 128,-1,27
 194 479 194 479 194 358 c 256,16,17
531 416 m 1,28,-1
 531 310 l 1,29,-1
 259 310 l 1,30,-1
 259 416 l 1,31,-1
 531 416 l 1,28,-1
EndSplineSet
EndChar

StartChar: Lambda
Encoding: 923 923 360
Width: 634
GlyphClass: 2
Flags: W
AnchorPoint: "Anchor-2" 317 714 basechar 0
AnchorPoint: "Anchor-0" 317 0 basechar 0
LayerCount: 2
Fore
SplineSet
386 714 m 1,0,-1
 634 0 l 1,1,-1
 503 0 l 1,2,-1
 360 437 l 2,3,4
 353 458 353 458 344.5 487.5 c 128,-1,5
 336 517 336 517 328 547 c 128,-1,6
 320 577 320 577 316 598 c 1,7,8
 312 576 312 576 304.5 546 c 128,-1,9
 297 516 297 516 289 486.5 c 128,-1,10
 281 457 281 457 274 437 c 2,11,-1
 131 0 l 1,12,-1
 0 0 l 1,13,-1
 247 714 l 1,14,-1
 386 714 l 1,0,-1
EndSplineSet
EndChar

StartChar: Xi
Encoding: 926 926 363
Width: 565
GlyphClass: 2
Flags: W
AnchorPoint: "Anchor-2" 283 714 basechar 0
AnchorPoint: "Anchor-0" 283 0 basechar 0
LayerCount: 2
Fore
SplineSet
58 607 m 1,0,-1
 58 714 l 1,1,-1
 506 714 l 1,2,-1
 506 607 l 1,3,-1
 58 607 l 1,0,-1
98 318 m 1,4,-1
 98 425 l 1,5,-1
 466 425 l 1,6,-1
 466 318 l 1,7,-1
 98 318 l 1,4,-1
38 0 m 1,8,-1
 38 108 l 1,9,-1
 526 108 l 1,10,-1
 526 0 l 1,11,-1
 38 0 l 1,8,-1
EndSplineSet
EndChar

StartChar: Pi
Encoding: 928 928 365
Width: 740
GlyphClass: 2
Flags: W
AnchorPoint: "Anchor-2" 370 714 basechar 0
AnchorPoint: "Anchor-0" 370 0 basechar 0
LayerCount: 2
Fore
SplineSet
93 0 m 1,0,-1
 93 714 l 1,1,-1
 647 714 l 1,2,-1
 647 0 l 1,3,-1
 519 0 l 1,4,-1
 519 606 l 1,5,-1
 221 606 l 1,6,-1
 221 0 l 1,7,-1
 93 0 l 1,0,-1
EndSplineSet
EndChar

StartChar: Sigma
Encoding: 931 931 367
Width: 584
GlyphClass: 2
Flags: W
AnchorPoint: "Anchor-2" 292 714 basechar 0
AnchorPoint: "Anchor-0" 292 0 basechar 0
LayerCount: 2
Fore
SplineSet
37 0 m 1,0,-1
 37 102 l 1,1,-1
 269 374 l 1,2,-1
 43 613 l 1,3,-1
 43 714 l 1,4,-1
 525 714 l 1,5,-1
 525 607 l 1,6,-1
 295 607 l 2,7,8
 270 607 270 607 237.5 607.5 c 128,-1,9
 205 608 205 608 182 610 c 1,10,-1
 406 375 l 1,11,-1
 172 104 l 1,12,13
 207 106 207 106 243 107 c 128,-1,14
 279 108 279 108 315 108 c 2,15,-1
 554 108 l 1,16,-1
 554 0 l 1,17,-1
 37 0 l 1,0,-1
EndSplineSet
EndChar

StartChar: Phi
Encoding: 934 934 370
Width: 839
GlyphClass: 2
Flags: W
AnchorPoint: "Anchor-2" 419 714 basechar 0
AnchorPoint: "Anchor-0" 419 0 basechar 0
LayerCount: 2
Fore
SplineSet
478 724 m 1,0,-1
 478 636 l 1,1,2
 594 634 594 634 663 597 c 128,-1,3
 732 560 732 560 761.5 500 c 128,-1,4
 791 440 791 440 791 370 c 0,5,6
 791 324 791 324 775.5 277 c 128,-1,7
 760 230 760 230 724.5 190.5 c 128,-1,8
 689 151 689 151 628.5 126.5 c 128,-1,9
 568 102 568 102 478 100 c 1,10,-1
 478 -10 l 1,11,-1
 360 -10 l 1,12,-1
 360 100 l 1,13,14
 268 102 268 102 207.5 127 c 128,-1,15
 147 152 147 152 111.5 191.5 c 128,-1,16
 76 231 76 231 61.5 278 c 128,-1,17
 47 325 47 325 47 370 c 0,18,19
 47 440 47 440 77 499.5 c 128,-1,20
 107 559 107 559 175.5 596.5 c 128,-1,21
 244 634 244 634 360 636 c 1,22,-1
 360 724 l 1,23,-1
 478 724 l 1,0,-1
360 534 m 1,24,25
 289 532 289 532 247.5 510.5 c 128,-1,26
 206 489 206 489 188 453.5 c 128,-1,27
 170 418 170 418 170 371 c 0,28,29
 170 295 170 295 215.5 250 c 128,-1,30
 261 205 261 205 360 201 c 1,31,-1
 360 534 l 1,24,25
478 534 m 1,32,-1
 478 201 l 1,33,34
 578 205 578 205 623 251 c 128,-1,35
 668 297 668 297 668 371 c 0,36,37
 668 418 668 418 650 454 c 128,-1,38
 632 490 632 490 590.5 511 c 128,-1,39
 549 532 549 532 478 534 c 1,32,-1
EndSplineSet
EndChar

StartChar: Psi
Encoding: 936 936 372
Width: 849
GlyphClass: 2
Flags: W
AnchorPoint: "Anchor-2" 424 714 basechar 0
AnchorPoint: "Anchor-0" 424 0 basechar 0
LayerCount: 2
Fore
SplineSet
796 714 m 1,0,-1
 796 480 l 2,1,2
 796 399 796 399 767.5 339.5 c 128,-1,3
 739 280 739 280 670.5 247.5 c 128,-1,4
 602 215 602 215 483 215 c 1,5,-1
 483 0 l 1,6,-1
 365 0 l 1,7,-1
 365 215 l 1,8,9
 244 215 244 215 176 248.5 c 128,-1,10
 108 282 108 282 80.5 341 c 128,-1,11
 53 400 53 400 53 478 c 2,12,-1
 53 714 l 1,13,-1
 175 714 l 1,14,-1
 175 480 l 2,15,16
 175 390 175 390 221.5 355 c 128,-1,17
 268 320 268 320 365 320 c 1,18,-1
 365 714 l 1,19,-1
 483 714 l 1,20,-1
 483 320 l 1,21,22
 577 320 577 320 625 354.5 c 128,-1,23
 673 389 673 389 673 478 c 2,24,-1
 673 714 l 1,25,-1
 796 714 l 1,0,-1
EndSplineSet
EndChar

StartChar: uni03A9
Encoding: 937 937 373
Width: 784
GlyphClass: 2
Flags: W
AnchorPoint: "Anchor-2" 392 714 basechar 0
AnchorPoint: "Anchor-0" 392 0 basechar 0
LayerCount: 2
Fore
SplineSet
392 617 m 0,0,1
 294 617 294 617 242 559.5 c 128,-1,2
 190 502 190 502 190 397 c 0,3,4
 190 306 190 306 221.5 234 c 128,-1,5
 253 162 253 162 334 112 c 1,6,-1
 334 0 l 1,7,-1
 31 0 l 1,8,-1
 31 109 l 1,9,-1
 211 109 l 1,10,11
 143 154 143 154 100 233.5 c 128,-1,12
 57 313 57 313 57 418 c 0,13,14
 57 511 57 511 97 580 c 128,-1,15
 137 649 137 649 212.5 687 c 128,-1,16
 288 725 288 725 392 725 c 0,17,18
 497 725 497 725 572.5 687 c 128,-1,19
 648 649 648 649 688 580 c 128,-1,20
 728 511 728 511 728 417 c 0,21,22
 728 312 728 312 685 233.5 c 128,-1,23
 642 155 642 155 573 109 c 1,24,-1
 754 109 l 1,25,-1
 754 0 l 1,26,-1
 450 0 l 1,27,-1
 450 112 l 1,28,29
 532 161 532 161 563.5 233.5 c 128,-1,30
 595 306 595 306 595 397 c 0,31,32
 595 502 595 502 543 559.5 c 128,-1,33
 491 617 491 617 392 617 c 0,0,1
EndSplineSet
EndChar

StartChar: alpha
Encoding: 945 945 381
Width: 635
GlyphClass: 2
Flags: W
AnchorPoint: "Anchor-2" 317 542 basechar 0
AnchorPoint: "Anchor-0" 311 0 basechar 0
LayerCount: 2
Fore
SplineSet
265 -10 m 0,0,1
 168 -10 168 -10 108.5 60.5 c 128,-1,2
 49 131 49 131 49 269 c 256,3,4
 49 407 49 407 109.5 479.5 c 128,-1,5
 170 552 170 552 275 552 c 0,6,7
 334 552 334 552 372 531 c 128,-1,8
 410 510 410 510 435 470 c 1,9,-1
 441 470 l 1,10,11
 446 487 446 487 454 507 c 128,-1,12
 462 527 462 527 474 542 c 1,13,-1
 576 542 l 1,14,15
 568 520 568 520 561 485 c 128,-1,16
 554 450 554 450 549.5 408 c 128,-1,17
 545 366 545 366 545 325 c 2,18,-1
 545 152 l 2,19,20
 545 120 545 120 557.5 107.5 c 128,-1,21
 570 95 570 95 586 95 c 0,22,23
 594 95 594 95 603 96.5 c 128,-1,24
 612 98 612 98 616 100 c 1,25,-1
 616 3 l 1,26,27
 608 -2 608 -2 589 -6 c 128,-1,28
 570 -10 570 -10 553 -10 c 0,29,30
 508 -10 508 -10 479.5 8 c 128,-1,31
 451 26 451 26 437 72 c 1,32,-1
 428 72 l 1,33,34
 405 38 405 38 367 14 c 128,-1,35
 329 -10 329 -10 265 -10 c 0,0,1
299 92 m 0,36,37
 368 92 368 92 396.5 133.5 c 128,-1,38
 425 175 425 175 426 264 c 2,39,-1
 426 270 l 2,40,41
 426 357 426 357 398 403.5 c 128,-1,42
 370 450 370 450 297 450 c 0,43,44
 236 450 236 450 207 403 c 128,-1,45
 178 356 178 356 178 268 c 256,46,47
 178 180 178 180 207.5 136 c 128,-1,48
 237 92 237 92 299 92 c 0,36,37
EndSplineSet
EndChar

StartChar: beta
Encoding: 946 946 382
Width: 649
GlyphClass: 2
Flags: W
AnchorPoint: "Anchor-3" 574 765 basechar 0
AnchorPoint: "Anchor-2" 333 765 basechar 0
AnchorPoint: "Anchor-0" 400 0 basechar 0
LayerCount: 2
Fore
SplineSet
333 765 m 0,0,1
 403 765 403 765 457.5 743.5 c 128,-1,2
 512 722 512 722 543 679.5 c 128,-1,3
 574 637 574 637 574 573 c 0,4,5
 574 501 574 501 536 459 c 128,-1,6
 498 417 498 417 428 405 c 1,7,-1
 428 402 l 1,8,9
 515 392 515 392 562.5 345.5 c 128,-1,10
 610 299 610 299 610 208 c 0,11,12
 610 104 610 104 545 47 c 128,-1,13
 480 -10 480 -10 369 -10 c 0,14,15
 317 -10 317 -10 277.5 -1.5 c 128,-1,16
 238 7 238 7 207 22 c 1,17,-1
 207 -240 l 1,18,-1
 81 -240 l 1,19,-1
 81 535 l 2,20,21
 81 616 81 616 114 666.5 c 128,-1,22
 147 717 147 717 204 741 c 128,-1,23
 261 765 261 765 333 765 c 0,0,1
330 665 m 0,24,25
 296 665 296 665 268.5 653 c 128,-1,26
 241 641 241 641 224 610.5 c 128,-1,27
 207 580 207 580 207 525 c 2,28,-1
 207 128 l 1,29,30
 236 112 236 112 271 101.5 c 128,-1,31
 306 91 306 91 343 91 c 0,32,33
 414 91 414 91 447.5 124.5 c 128,-1,34
 481 158 481 158 481 218 c 0,35,36
 481 286 481 286 439.5 315 c 128,-1,37
 398 344 398 344 336 344 c 2,38,-1
 295 344 l 1,39,-1
 295 446 l 1,40,-1
 327 446 l 2,41,42
 389 446 389 446 418 477.5 c 128,-1,43
 447 509 447 509 447 561 c 0,44,45
 447 614 447 614 415 639.5 c 128,-1,46
 383 665 383 665 330 665 c 0,24,25
EndSplineSet
EndChar

StartChar: gamma
Encoding: 947 947 383
Width: 549
GlyphClass: 2
Flags: W
AnchorPoint: "Anchor-3" 539 542 basechar 0
AnchorPoint: "Anchor-2" 275 542 basechar 0
AnchorPoint: "Anchor-0" 275 -240 basechar 0
LayerCount: 2
Fore
SplineSet
547 542 m 1,0,-1
 347 11 l 2,1,2
 332 -30 332 -30 321 -75 c 128,-1,3
 310 -120 310 -120 304 -163 c 128,-1,4
 298 -206 298 -206 298 -240 c 1,5,-1
 164 -240 l 1,6,7
 164 -212 164 -212 170.5 -170 c 128,-1,8
 177 -128 177 -128 188.5 -81.5 c 128,-1,9
 200 -35 200 -35 214 6 c 1,10,-1
 3 542 l 1,11,-1
 133 542 l 1,12,-1
 226 286 l 2,13,14
 236 260 236 260 246.5 225 c 128,-1,15
 257 190 257 190 265.5 158 c 128,-1,16
 274 126 274 126 277 109 c 1,17,-1
 280 109 l 1,18,19
 282 124 282 124 289 154 c 128,-1,20
 296 184 296 184 306 218 c 128,-1,21
 316 252 316 252 327 280 c 2,22,-1
 416 542 l 1,23,-1
 547 542 l 1,0,-1
EndSplineSet
EndChar

StartChar: delta
Encoding: 948 948 384
Width: 613
GlyphClass: 2
Flags: W
AnchorPoint: "Anchor-2" 307 763 basechar 0
AnchorPoint: "Anchor-0" 307 0 basechar 0
LayerCount: 2
Fore
SplineSet
334 763 m 0,0,1
 402 763 402 763 453 747.5 c 128,-1,2
 504 732 504 732 552 709 c 1,3,-1
 501 618 l 1,4,5
 458 639 458 639 416.5 653 c 128,-1,6
 375 667 375 667 329 667 c 0,7,8
 287 667 287 667 269 650.5 c 128,-1,9
 251 634 251 634 251 611 c 0,10,11
 251 581 251 581 283.5 555 c 128,-1,12
 316 529 316 529 386 492 c 0,13,14
 476 445 476 445 520.5 385.5 c 128,-1,15
 565 326 565 326 565 245 c 0,16,17
 565 116 565 116 493.5 53 c 128,-1,18
 422 -10 422 -10 304 -10 c 0,19,20
 230 -10 230 -10 172 16 c 128,-1,21
 114 42 114 42 81 92 c 128,-1,22
 48 142 48 142 48 214 c 0,23,24
 48 281 48 281 74.5 328 c 128,-1,25
 101 375 101 375 146 405 c 128,-1,26
 191 435 191 435 247 451 c 1,27,28
 198 482 198 482 163 522 c 128,-1,29
 128 562 128 562 128 617 c 0,30,31
 128 688 128 688 185 725.5 c 128,-1,32
 242 763 242 763 334 763 c 0,0,1
327 399 m 1,33,34
 295 390 295 390 260.5 370 c 128,-1,35
 226 350 226 350 202 313 c 128,-1,36
 178 276 178 276 178 217 c 0,37,38
 178 163 178 163 211.5 127.5 c 128,-1,39
 245 92 245 92 305 92 c 0,40,41
 367 92 367 92 401.5 130 c 128,-1,42
 436 168 436 168 436 238 c 0,43,44
 436 296 436 296 406.5 334 c 128,-1,45
 377 372 377 372 327 399 c 1,33,34
EndSplineSet
EndChar

StartChar: epsilon
Encoding: 949 949 385
Width: 528
GlyphClass: 2
Flags: W
AnchorPoint: "Anchor-2" 297 542 basechar 0
AnchorPoint: "Anchor-0" 264 0 basechar 0
LayerCount: 2
Fore
SplineSet
389 328 m 1,0,-1
 389 237 l 1,1,-1
 311 237 l 2,2,3
 234 237 234 237 199.5 217.5 c 128,-1,4
 165 198 165 198 165 160 c 0,5,6
 165 89 165 89 300 89 c 0,7,8
 358 89 358 89 407 102 c 128,-1,9
 456 115 456 115 491 131 c 1,10,-1
 491 28 l 1,11,12
 456 11 456 11 406 0.5 c 128,-1,13
 356 -10 356 -10 291 -10 c 0,14,15
 160 -10 160 -10 100 34 c 128,-1,16
 40 78 40 78 40 149 c 0,17,18
 40 209 40 209 76 238.5 c 128,-1,19
 112 268 112 268 168 280 c 1,20,-1
 168 285 l 1,21,22
 65 311 65 311 65 410 c 0,23,24
 65 459 65 459 95 490.5 c 128,-1,25
 125 522 125 522 176.5 537 c 128,-1,26
 228 552 228 552 291 552 c 0,27,28
 348 552 348 552 399.5 541.5 c 128,-1,29
 451 531 451 531 492 512 c 1,30,-1
 451 419 l 1,31,32
 416 434 416 434 379 445 c 128,-1,33
 342 456 342 456 293 456 c 0,34,35
 180 456 180 456 180 396 c 0,36,37
 180 359 180 359 215.5 343.5 c 128,-1,38
 251 328 251 328 321 328 c 2,39,-1
 389 328 l 1,0,-1
EndSplineSet
EndChar

StartChar: zeta
Encoding: 950 950 386
Width: 493
GlyphClass: 2
Flags: W
AnchorPoint: "Anchor-2" 246 760 basechar 0
AnchorPoint: "Anchor-0" 246 -189 basechar 0
LayerCount: 2
Fore
SplineSet
479 -26 m 256,0,1
 479 -70 479 -70 459 -112.5 c 128,-1,2
 439 -155 439 -155 414 -189 c 1,3,-1
 288 -189 l 1,4,5
 314 -153 314 -153 335 -113.5 c 128,-1,6
 356 -74 356 -74 356 -49 c 0,7,8
 356 -38 356 -38 349 -29 c 128,-1,9
 342 -20 342 -20 320.5 -12 c 128,-1,10
 299 -4 299 -4 255 4 c 0,11,12
 157 22 157 22 103 74.5 c 128,-1,13
 49 127 49 127 49 226 c 0,14,15
 49 316 49 316 88.5 393 c 128,-1,16
 128 470 128 470 193 538 c 128,-1,17
 258 606 258 606 334 671 c 1,18,19
 325 669 325 669 303.5 667.5 c 128,-1,20
 282 666 282 666 257 665.5 c 128,-1,21
 232 665 232 665 211 665 c 2,22,-1
 78 665 l 1,23,-1
 78 760 l 1,24,-1
 478 760 l 1,25,-1
 478 680 l 1,26,27
 377 596 377 596 317 529 c 128,-1,28
 257 462 257 462 227 408 c 128,-1,29
 197 354 197 354 187.5 311 c 128,-1,30
 178 268 178 268 178 233 c 0,31,32
 178 182 178 182 196 156 c 128,-1,33
 214 130 214 130 248 118 c 128,-1,34
 282 106 282 106 328 96 c 0,35,36
 412 79 412 79 445.5 48.5 c 128,-1,37
 479 18 479 18 479 -26 c 256,0,1
EndSplineSet
EndChar

StartChar: eta
Encoding: 951 951 387
Width: 642
GlyphClass: 2
Flags: W
AnchorPoint: "Anchor-2" 335 542 basechar 0
AnchorPoint: "Anchor-0" 321 -240 basechar 0
LayerCount: 2
Fore
SplineSet
371 552 m 0,0,1
 462 552 462 552 513.5 505 c 128,-1,2
 565 458 565 458 565 353 c 2,3,-1
 565 -240 l 1,4,-1
 439 -240 l 1,5,-1
 439 328 l 2,6,7
 439 389 439 389 415.5 419.5 c 128,-1,8
 392 450 392 450 339 450 c 0,9,10
 263 450 263 450 235 402 c 128,-1,11
 207 354 207 354 207 265 c 2,12,-1
 207 0 l 1,13,-1
 81 0 l 1,14,-1
 81 542 l 1,15,-1
 178 542 l 1,16,-1
 196 471 l 1,17,-1
 203 471 l 1,18,19
 229 513 229 513 274.5 532.5 c 128,-1,20
 320 552 320 552 371 552 c 0,0,1
EndSplineSet
EndChar

StartChar: theta
Encoding: 952 952 388
Width: 609
GlyphClass: 2
Flags: W
AnchorPoint: "Anchor-3" 529 765 basechar 0
AnchorPoint: "Anchor-2" 305 765 basechar 0
AnchorPoint: "Anchor-0" 305 0 basechar 0
LayerCount: 2
Fore
SplineSet
561 378 m 0,0,1
 561 256 561 256 535.5 169.5 c 128,-1,2
 510 83 510 83 453 36.5 c 128,-1,3
 396 -10 396 -10 303 -10 c 0,4,5
 173 -10 173 -10 111 93 c 128,-1,6
 49 196 49 196 49 378 c 0,7,8
 49 500 49 500 74.5 586.5 c 128,-1,9
 100 673 100 673 156 719 c 128,-1,10
 212 765 212 765 303 765 c 0,11,12
 434 765 434 765 497.5 663.5 c 128,-1,13
 561 562 561 562 561 378 c 0,0,1
304 671 m 256,14,15
 240 671 240 671 211 610.5 c 128,-1,16
 182 550 182 550 178 431 c 1,17,-1
 431 431 l 1,18,19
 427 550 427 550 397.5 610.5 c 128,-1,20
 368 671 368 671 304 671 c 256,14,15
303 84 m 256,21,22
 368 84 368 84 398.5 146.5 c 128,-1,23
 429 209 429 209 432 335 c 1,24,-1
 177 335 l 1,25,26
 178 210 178 210 208 147 c 128,-1,27
 238 84 238 84 303 84 c 256,21,22
EndSplineSet
EndChar

StartChar: iota
Encoding: 953 953 389
Width: 384
GlyphClass: 2
Flags: W
AnchorPoint: "Anchor-2" 149 542 basechar 0
AnchorPoint: "Anchor-0" 216 0 basechar 0
LayerCount: 2
Fore
SplineSet
205 542 m 1,0,-1
 205 166 l 2,1,2
 205 91 205 91 275 91 c 0,3,4
 298 91 298 91 321 95.5 c 128,-1,5
 344 100 344 100 364 106 c 1,6,-1
 364 12 l 1,7,8
 344 2 344 2 314 -4 c 128,-1,9
 284 -10 284 -10 249 -10 c 0,10,11
 200 -10 200 -10 162 5 c 128,-1,12
 124 20 124 20 102 58.5 c 128,-1,13
 80 97 80 97 80 166 c 2,14,-1
 80 542 l 1,15,-1
 205 542 l 1,0,-1
EndSplineSet
EndChar

StartChar: lambda
Encoding: 955 955 391
Width: 587
GlyphClass: 2
Flags: W
AnchorPoint: "Anchor-2" 294 766 basechar 0
AnchorPoint: "Anchor-0" 294 0 basechar 0
LayerCount: 2
Fore
SplineSet
0 0 m 1,0,-1
 231 520 l 1,1,-1
 210 576 l 2,2,3
 191 625 191 625 168.5 643 c 128,-1,4
 146 661 146 661 106 661 c 0,5,6
 91 661 91 661 77.5 659 c 128,-1,7
 64 657 64 657 54 655 c 1,8,-1
 54 758 l 1,9,10
 68 761 68 761 89.5 763.5 c 128,-1,11
 111 766 111 766 129 766 c 0,12,13
 188 766 188 766 225 746.5 c 128,-1,14
 262 727 262 727 286.5 688.5 c 128,-1,15
 311 650 311 650 331 594 c 2,16,-1
 482 177 l 2,17,18
 500 128 500 128 516 111.5 c 128,-1,19
 532 95 532 95 552 95 c 0,20,21
 567 95 567 95 584 100 c 1,22,-1
 584 4 l 1,23,24
 573 -2 573 -2 550.5 -6 c 128,-1,25
 528 -10 528 -10 509 -10 c 0,26,27
 457 -10 457 -10 429.5 16 c 128,-1,28
 402 42 402 42 385 90 c 2,29,-1
 328 250 l 2,30,31
 316 284 316 284 304 320.5 c 128,-1,32
 292 357 292 357 287 381 c 1,33,-1
 283 381 l 1,34,35
 275 352 275 352 263.5 317.5 c 128,-1,36
 252 283 252 283 239 254 c 2,37,-1
 130 0 l 1,38,-1
 0 0 l 1,0,-1
EndSplineSet
EndChar

StartChar: nu
Encoding: 957 957 393
Width: 577
GlyphClass: 2
Flags: W
AnchorPoint: "Anchor-2" 289 542 basechar 0
AnchorPoint: "Anchor-0" 289 0 basechar 0
LayerCount: 2
Fore
SplineSet
2 542 m 1,0,-1
 131 542 l 1,1,-1
 238 245 l 2,2,3
 244 226 244 226 252.5 200.5 c 128,-1,4
 261 175 261 175 268.5 150.5 c 128,-1,5
 276 126 276 126 281 110 c 1,6,-1
 285 110 l 1,7,8
 356 192 356 192 383.5 295.5 c 128,-1,9
 411 399 411 399 411 542 c 1,10,-1
 537 542 l 1,11,12
 537 435 537 435 518.5 343 c 128,-1,13
 500 251 500 251 454 167.5 c 128,-1,14
 408 84 408 84 324 0 c 1,15,-1
 205 0 l 1,16,-1
 2 542 l 1,0,-1
EndSplineSet
EndChar

StartChar: xi
Encoding: 958 958 394
Width: 490
GlyphClass: 2
Flags: W
AnchorPoint: "Anchor-2" 245 760 basechar 0
AnchorPoint: "Anchor-0" 245 -189 basechar 0
LayerCount: 2
Fore
SplineSet
48 211 m 0,0,1
 48 281 48 281 88 327 c 128,-1,2
 128 373 128 373 187 395 c 1,3,-1
 187 400 l 1,4,5
 137 414 137 414 109 445 c 128,-1,6
 81 476 81 476 81 529 c 0,7,8
 81 589 81 589 118.5 621.5 c 128,-1,9
 156 654 156 654 224 671 c 1,10,11
 224 671 224 671 209.5 670 c 128,-1,12
 195 669 195 669 174 668 c 128,-1,13
 153 667 153 667 131.5 666 c 128,-1,14
 110 665 110 665 96 665 c 2,15,-1
 78 665 l 1,16,-1
 78 760 l 1,17,-1
 453 760 l 1,18,-1
 453 670 l 1,19,-1
 420 670 l 2,20,21
 365 670 365 670 316 655 c 128,-1,22
 267 640 267 640 236 610 c 128,-1,23
 205 580 205 580 205 535 c 256,24,25
 205 490 205 490 236.5 466 c 128,-1,26
 268 442 268 442 350 442 c 2,27,-1
 432 442 l 1,28,-1
 432 352 l 1,29,-1
 349 352 l 2,30,31
 261 352 261 352 219.5 317 c 128,-1,32
 178 282 178 282 178 220 c 0,33,34
 178 174 178 174 196.5 150.5 c 128,-1,35
 215 127 215 127 249 115.5 c 128,-1,36
 283 104 283 104 329 95 c 0,37,38
 414 78 414 78 446.5 47.5 c 128,-1,39
 479 17 479 17 479 -26 c 0,40,41
 479 -70 479 -70 459 -112.5 c 128,-1,42
 439 -155 439 -155 415 -189 c 1,43,-1
 290 -189 l 1,44,45
 317 -153 317 -153 337 -113.5 c 128,-1,46
 357 -74 357 -74 357 -49 c 0,47,48
 357 -38 357 -38 350 -29 c 128,-1,49
 343 -20 343 -20 321.5 -12 c 128,-1,50
 300 -4 300 -4 257 4 c 0,51,52
 157 22 157 22 102.5 72 c 128,-1,53
 48 122 48 122 48 211 c 0,0,1
EndSplineSet
EndChar

StartChar: pi
Encoding: 960 960 396
Width: 709
GlyphClass: 2
Flags: W
AnchorPoint: "Anchor-2" 355 542 basechar 0
AnchorPoint: "Anchor-0" 355 0 basechar 0
LayerCount: 2
Fore
SplineSet
610 90 m 0,0,1
 626 90 626 90 640 94 c 128,-1,2
 654 98 654 98 666 104 c 1,3,-1
 666 12 l 1,4,5
 652 4 652 4 627 -3 c 128,-1,6
 602 -10 602 -10 573 -10 c 0,7,8
 510 -10 510 -10 474 26 c 128,-1,9
 438 62 438 62 438 138 c 2,10,-1
 438 444 l 1,11,-1
 250 444 l 1,12,-1
 250 0 l 1,13,-1
 124 0 l 1,14,-1
 124 444 l 1,15,-1
 12 444 l 1,16,-1
 12 498 l 1,17,-1
 93 542 l 1,18,-1
 675 542 l 1,19,-1
 675 444 l 1,20,-1
 564 444 l 1,21,-1
 564 144 l 2,22,23
 564 116 564 116 577 103 c 128,-1,24
 590 90 590 90 610 90 c 0,0,1
EndSplineSet
EndChar

StartChar: rho
Encoding: 961 961 397
Width: 613
GlyphClass: 2
Flags: W
AnchorPoint: "Anchor-2" 307 542 basechar 0
AnchorPoint: "Anchor-0" 307 -240 basechar 0
LayerCount: 2
Fore
SplineSet
564 271 m 0,0,1
 564 135 564 135 502 62.5 c 128,-1,2
 440 -10 440 -10 334 -10 c 0,3,4
 295 -10 295 -10 258.5 1 c 128,-1,5
 222 12 222 12 194 31 c 1,6,-1
 187 31 l 1,7,8
 188 26 188 26 189.5 6 c 128,-1,9
 191 -14 191 -14 192.5 -43 c 128,-1,10
 194 -72 194 -72 194 -101 c 2,11,-1
 194 -240 l 1,12,-1
 67 -240 l 1,13,-1
 67 274 l 2,14,15
 67 410 67 410 133.5 481 c 128,-1,16
 200 552 200 552 319 552 c 0,17,18
 390 552 390 552 445.5 519 c 128,-1,19
 501 486 501 486 532.5 423.5 c 128,-1,20
 564 361 564 361 564 271 c 0,0,1
315 450 m 0,21,22
 254 450 254 450 224 408.5 c 128,-1,23
 194 367 194 367 194 278 c 2,24,-1
 194 137 l 1,25,26
 217 114 217 114 249 103 c 128,-1,27
 281 92 281 92 314 92 c 0,28,29
 378 92 378 92 406.5 135.5 c 128,-1,30
 435 179 435 179 435 271 c 0,31,32
 435 364 435 364 407 407 c 128,-1,33
 379 450 379 450 315 450 c 0,21,22
EndSplineSet
EndChar

StartChar: sigma1
Encoding: 962 962 398
Width: 493
GlyphClass: 2
Flags: W
AnchorPoint: "Anchor-2" 246 542 basechar 0
AnchorPoint: "Anchor-0" 246 -189 basechar 0
LayerCount: 2
Fore
SplineSet
316 552 m 0,0,1
 359 552 359 552 401.5 543 c 128,-1,2
 444 534 444 534 479 517 c 1,3,-1
 442 419 l 1,4,5
 409 432 409 432 376.5 440 c 128,-1,6
 344 448 344 448 312 448 c 0,7,8
 241 448 241 448 209.5 397.5 c 128,-1,9
 178 347 178 347 178 248 c 0,10,11
 178 198 178 198 194 170.5 c 128,-1,12
 210 143 210 143 243 128.5 c 128,-1,13
 276 114 276 114 329 103 c 0,14,15
 414 85 414 85 446.5 53.5 c 128,-1,16
 479 22 479 22 479 -22 c 0,17,18
 479 -67 479 -67 459 -111 c 128,-1,19
 439 -155 439 -155 415 -189 c 1,20,-1
 290 -189 l 1,21,22
 317 -152 317 -152 337.5 -111.5 c 128,-1,23
 358 -71 358 -71 358 -44 c 0,24,25
 358 -33 358 -33 351 -23.5 c 128,-1,26
 344 -14 344 -14 322.5 -5 c 128,-1,27
 301 4 301 4 257 12 c 0,28,29
 163 30 163 30 106 85 c 128,-1,30
 49 140 49 140 49 246 c 0,31,32
 49 358 49 358 82.5 425.5 c 128,-1,33
 116 493 116 493 176 522.5 c 128,-1,34
 236 552 236 552 316 552 c 0,0,1
EndSplineSet
EndChar

StartChar: sigma
Encoding: 963 963 399
Width: 639
GlyphClass: 2
Flags: W
AnchorPoint: "Anchor-2" 320 542 basechar 0
AnchorPoint: "Anchor-0" 320 0 basechar 0
LayerCount: 2
Fore
SplineSet
570 237 m 256,0,1
 570 167 570 167 540 111 c 128,-1,2
 510 55 510 55 452 22.5 c 128,-1,3
 394 -10 394 -10 308 -10 c 0,4,5
 191 -10 191 -10 120 59 c 128,-1,6
 49 128 49 128 49 262 c 0,7,8
 49 362 49 362 85.5 424 c 128,-1,9
 122 486 122 486 189.5 514.5 c 128,-1,10
 257 543 257 543 350 543 c 2,11,-1
 618 543 l 1,12,-1
 618 447 l 1,13,-1
 482 447 l 1,14,15
 520 410 520 410 545 358.5 c 128,-1,16
 570 307 570 307 570 237 c 256,0,1
178 262 m 0,17,18
 178 186 178 186 209 139 c 128,-1,19
 240 92 240 92 310 92 c 0,20,21
 379 92 379 92 410 136 c 128,-1,22
 441 180 441 180 441 251 c 0,23,24
 441 312 441 312 423 360 c 128,-1,25
 405 408 405 408 371 447 c 1,26,-1
 344 447 l 2,27,28
 259 447 259 447 218.5 406.5 c 128,-1,29
 178 366 178 366 178 262 c 0,17,18
EndSplineSet
EndChar

StartChar: tau
Encoding: 964 964 400
Width: 516
GlyphClass: 2
Flags: W
AnchorPoint: "Anchor-2" 258 542 basechar 0
AnchorPoint: "Anchor-0" 258 0 basechar 0
LayerCount: 2
Fore
SplineSet
482 542 m 1,0,-1
 482 445 l 1,1,-1
 282 445 l 1,2,-1
 282 168 l 2,3,4
 282 127 282 127 303 109 c 128,-1,5
 324 91 324 91 359 91 c 0,6,7
 382 91 382 91 405.5 95 c 128,-1,8
 429 99 429 99 450 105 c 1,9,-1
 450 11 l 1,10,11
 430 2 430 2 399 -4 c 128,-1,12
 368 -10 368 -10 333 -10 c 0,13,14
 284 -10 284 -10 244 5 c 128,-1,15
 204 20 204 20 180 58 c 128,-1,16
 156 96 156 96 156 165 c 2,17,-1
 156 445 l 1,18,-1
 16 445 l 1,19,-1
 16 498 l 1,20,-1
 97 542 l 1,21,-1
 482 542 l 1,0,-1
EndSplineSet
EndChar

StartChar: upsilon
Encoding: 965 965 401
Width: 633
GlyphClass: 2
Flags: W
AnchorPoint: "Anchor-2" 313 542 basechar 0
AnchorPoint: "Anchor-0" 317 0 basechar 0
LayerCount: 2
Fore
SplineSet
316 -9 m 0,0,1
 222 -9 222 -9 169 25 c 128,-1,2
 116 59 116 59 94.5 116.5 c 128,-1,3
 73 174 73 174 73 247 c 2,4,-1
 73 542 l 1,5,-1
 199 542 l 1,6,-1
 199 245 l 2,7,8
 199 168 199 168 228.5 130 c 128,-1,9
 258 92 258 92 321 92 c 0,10,11
 388 92 388 92 420.5 140 c 128,-1,12
 453 188 453 188 453 298 c 0,13,14
 453 365 453 365 444 421.5 c 128,-1,15
 435 478 435 478 420 542 c 1,16,-1
 546 542 l 1,17,18
 562 479 562 479 571 422.5 c 128,-1,19
 580 366 580 366 580 294 c 0,20,21
 580 138 580 138 513 64.5 c 128,-1,22
 446 -9 446 -9 316 -9 c 0,0,1
EndSplineSet
EndChar

StartChar: phi
Encoding: 966 966 402
Width: 767
GlyphClass: 2
Flags: W
AnchorPoint: "Anchor-2" 384 542 basechar 0
AnchorPoint: "Anchor-0" 384 -240 basechar 0
LayerCount: 2
Fore
SplineSet
157 551 m 1,0,-1
 250 490 l 1,1,2
 212 439 212 439 190.5 386.5 c 128,-1,3
 169 334 169 334 169 267 c 0,4,5
 169 208 169 208 189 171 c 128,-1,6
 209 134 209 134 242.5 115 c 128,-1,7
 276 96 276 96 316 90 c 1,8,-1
 316 360 l 2,9,10
 316 454 316 454 366.5 502.5 c 128,-1,11
 417 551 417 551 497 551 c 0,12,13
 600 551 600 551 659 479.5 c 128,-1,14
 718 408 718 408 718 286 c 0,15,16
 718 191 718 191 678 128 c 128,-1,17
 638 65 638 65 573.5 32 c 128,-1,18
 509 -1 509 -1 434 -7 c 1,19,-1
 434 -240 l 1,20,-1
 316 -240 l 1,21,-1
 316 -7 l 1,22,23
 240 0 240 0 179.5 29.5 c 128,-1,24
 119 59 119 59 84 118 c 128,-1,25
 49 177 49 177 49 270 c 0,26,27
 49 354 49 354 79 423 c 128,-1,28
 109 492 109 492 157 551 c 1,0,-1
499 456 m 0,29,30
 470 456 470 456 452 435 c 128,-1,31
 434 414 434 414 434 361 c 2,32,-1
 434 90 l 1,33,34
 505 97 505 97 550 148 c 128,-1,35
 595 199 595 199 595 285 c 0,36,37
 595 361 595 361 571.5 408.5 c 128,-1,38
 548 456 548 456 499 456 c 0,29,30
EndSplineSet
EndChar

StartChar: chi
Encoding: 967 967 403
Width: 577
GlyphClass: 2
Flags: W
AnchorPoint: "Anchor-3" 557 542 basechar 0
AnchorPoint: "Anchor-2" 288 542 basechar 0
AnchorPoint: "Anchor-0" 288 -240 basechar 0
LayerCount: 2
Fore
SplineSet
107 548 m 0,0,1
 149 548 149 548 175 533.5 c 128,-1,2
 201 519 201 519 218 489.5 c 128,-1,3
 235 460 235 460 251 415 c 2,4,-1
 299 282 l 1,5,-1
 442 542 l 1,6,-1
 570 542 l 1,7,-1
 353 169 l 1,8,-1
 447 -65 l 2,9,10
 463 -102 463 -102 481.5 -118.5 c 128,-1,11
 500 -135 500 -135 531 -135 c 0,12,13
 542 -135 542 -135 553 -134 c 128,-1,14
 564 -133 564 -133 578 -130 c 1,15,-1
 578 -228 l 1,16,17
 561 -233 561 -233 542 -236.5 c 128,-1,18
 523 -240 523 -240 495 -240 c 0,19,20
 429 -240 429 -240 393.5 -204 c 128,-1,21
 358 -168 358 -168 335 -100 c 2,22,-1
 276 70 l 1,23,-1
 115 -240 l 1,24,-1
 -19 -240 l 1,25,-1
 219 184 l 1,26,-1
 148 371 l 2,27,28
 134 409 134 409 116 426 c 128,-1,29
 98 443 98 443 74 443 c 0,30,31
 64 443 64 443 52 441.5 c 128,-1,32
 40 440 40 440 27 435 c 1,33,-1
 27 535 l 1,34,35
 44 540 44 540 63 544 c 128,-1,36
 82 548 82 548 107 548 c 0,0,1
EndSplineSet
EndChar

StartChar: psi
Encoding: 968 968 404
Width: 808
GlyphClass: 2
Flags: W
AnchorPoint: "Anchor-2" 405 759 basechar 0
AnchorPoint: "Anchor-0" 405 -240 basechar 0
LayerCount: 2
Fore
SplineSet
467 759 m 1,0,-1
 467 91 l 1,1,2
 549 98 549 98 592 140.5 c 128,-1,3
 635 183 635 183 635 281 c 0,4,5
 635 348 635 348 624.5 410 c 128,-1,6
 614 472 614 472 598 542 c 1,7,-1
 717 542 l 1,8,9
 735 473 735 473 743.5 410.5 c 128,-1,10
 752 348 752 348 752 282 c 0,11,12
 752 179 752 179 714 116.5 c 128,-1,13
 676 54 676 54 611 25 c 128,-1,14
 546 -4 546 -4 467 -9 c 1,15,-1
 467 -240 l 1,16,-1
 349 -240 l 1,17,-1
 349 -9 l 1,18,19
 268 -6 268 -6 206 22 c 128,-1,20
 144 50 144 50 108.5 110.5 c 128,-1,21
 73 171 73 171 73 271 c 2,22,-1
 73 542 l 1,23,-1
 195 542 l 1,24,-1
 195 267 l 2,25,26
 195 172 195 172 234 133.5 c 128,-1,27
 273 95 273 95 349 90 c 1,28,-1
 349 759 l 1,29,-1
 467 759 l 1,0,-1
EndSplineSet
EndChar

StartChar: omega
Encoding: 969 969 405
Width: 832
GlyphClass: 2
Flags: W
AnchorPoint: "Anchor-2" 418 542 basechar 0
AnchorPoint: "Anchor-0" 417 0 basechar 0
LayerCount: 2
Fore
SplineSet
722 542 m 1,0,1
 751 471 751 471 764.5 406.5 c 128,-1,2
 778 342 778 342 778 263 c 0,3,4
 778 182 778 182 754.5 120.5 c 128,-1,5
 731 59 731 59 684.5 24.5 c 128,-1,6
 638 -10 638 -10 569 -10 c 0,7,8
 508 -10 508 -10 472 16 c 128,-1,9
 436 42 436 42 419 88 c 1,10,-1
 414 88 l 1,11,12
 396 42 396 42 360 16 c 128,-1,13
 324 -10 324 -10 263 -10 c 0,14,15
 194 -10 194 -10 147.5 24.5 c 128,-1,16
 101 59 101 59 77.5 120.5 c 128,-1,17
 54 182 54 182 54 263 c 0,18,19
 54 342 54 342 68 406.5 c 128,-1,20
 82 471 82 471 111 542 c 1,21,-1
 234 542 l 1,22,23
 202 474 202 474 187.5 408 c 128,-1,24
 173 342 173 342 173 266 c 0,25,26
 173 184 173 184 198 137 c 128,-1,27
 223 90 223 90 273 90 c 0,28,29
 320 90 320 90 339 123.5 c 128,-1,30
 358 157 358 157 358 215 c 2,31,-1
 358 361 l 1,32,-1
 475 361 l 1,33,-1
 475 215 l 2,34,35
 475 155 475 155 494.5 122.5 c 128,-1,36
 514 90 514 90 559 90 c 0,37,38
 609 90 609 90 634.5 137 c 128,-1,39
 660 184 660 184 660 265 c 0,40,41
 660 341 660 341 645 407.5 c 128,-1,42
 630 474 630 474 599 542 c 1,43,-1
 722 542 l 1,0,1
EndSplineSet
EndChar

StartChar: afii10051
Encoding: 1026 1026 412
Width: 781
GlyphClass: 2
Flags: W
AnchorPoint: "Anchor-2" 391 714 basechar 0
AnchorPoint: "Anchor-0" 391 0 basechar 0
LayerCount: 2
Fore
SplineSet
527 -9 m 0,0,1
 502 -9 502 -9 478.5 -5 c 128,-1,2
 455 -1 455 -1 437 7 c 1,3,-1
 437 114 l 1,4,5
 456 106 456 106 476 101.5 c 128,-1,6
 496 97 496 97 516 97 c 0,7,8
 534 97 534 97 551.5 103 c 128,-1,9
 569 109 569 109 580.5 128 c 128,-1,10
 592 147 592 147 592 186 c 2,11,-1
 592 249 l 2,12,13
 592 298 592 298 568 319 c 128,-1,14
 544 340 544 340 489 340 c 2,15,-1
 318 340 l 1,16,-1
 318 0 l 1,17,-1
 190 0 l 1,18,-1
 190 606 l 1,19,-1
 16 606 l 1,20,-1
 16 714 l 1,21,-1
 533 714 l 1,22,-1
 533 606 l 1,23,-1
 318 606 l 1,24,-1
 318 449 l 1,25,-1
 496 449 l 2,26,27
 604 449 604 449 662 399.5 c 128,-1,28
 720 350 720 350 720 260 c 2,29,-1
 720 194 l 2,30,31
 720 94 720 94 669 42.5 c 128,-1,32
 618 -9 618 -9 527 -9 c 0,0,1
EndSplineSet
EndChar

StartChar: afii10053
Encoding: 1028 1028 414
Width: 664
GlyphClass: 2
Flags: W
AnchorPoint: "Anchor-2" 333 714 basechar 0
AnchorPoint: "Anchor-0" 333 0 basechar 0
LayerCount: 2
Fore
SplineSet
409 616 m 0,0,1
 319 616 319 616 261 565.5 c 128,-1,2
 203 515 203 515 195 418 c 1,3,-1
 519 418 l 1,4,-1
 519 311 l 1,5,-1
 194 311 l 1,6,7
 200 209 200 209 254 153.5 c 128,-1,8
 308 98 308 98 411 98 c 0,9,10
 459 98 459 98 506 107.5 c 128,-1,11
 553 117 553 117 604 133 c 1,12,-1
 604 24 l 1,13,14
 557 6 557 6 508.5 -2 c 128,-1,15
 460 -10 460 -10 401 -10 c 0,16,17
 283 -10 283 -10 207.5 35.5 c 128,-1,18
 132 81 132 81 95.5 163.5 c 128,-1,19
 59 246 59 246 59 357 c 0,20,21
 59 466 59 466 100 548.5 c 128,-1,22
 141 631 141 631 220.5 677.5 c 128,-1,23
 300 724 300 724 415 724 c 0,24,25
 479 724 479 724 531 711.5 c 128,-1,26
 583 699 583 699 631 677 c 1,27,-1
 584 571 l 1,28,29
 543 589 543 589 502 602.5 c 128,-1,30
 461 616 461 616 409 616 c 0,0,1
EndSplineSet
EndChar

StartChar: afii10058
Encoding: 1033 1033 419
Width: 975
GlyphClass: 2
Flags: W
AnchorPoint: "Anchor-2" 488 714 basechar 0
AnchorPoint: "Anchor-0" 488 0 basechar 0
LayerCount: 2
Fore
SplineSet
75 -10 m 0,0,1
 36 -10 36 -10 5 1 c 1,2,-1
 5 107 l 1,3,4
 18 102 18 102 31 99 c 128,-1,5
 44 96 44 96 59 96 c 0,6,7
 94 96 94 96 110.5 134 c 128,-1,8
 127 172 127 172 141 246 c 0,9,10
 148 281 148 281 159 351 c 128,-1,11
 170 421 170 421 183.5 514.5 c 128,-1,12
 197 608 197 608 210 714 c 1,13,-1
 599 714 l 1,14,-1
 599 429 l 1,15,-1
 656 429 l 2,16,17
 755 429 755 429 816 401.5 c 128,-1,18
 877 374 877 374 905 326 c 128,-1,19
 933 278 933 278 933 218 c 0,20,21
 933 116 933 116 866.5 58 c 128,-1,22
 800 0 800 0 657 0 c 2,23,-1
 471 0 l 1,24,-1
 471 606 l 1,25,-1
 317 606 l 1,26,27
 311 556 311 556 303.5 499.5 c 128,-1,28
 296 443 296 443 288 386.5 c 128,-1,29
 280 330 280 330 272 279.5 c 128,-1,30
 264 229 264 229 256 191 c 0,31,32
 243 126 243 126 222.5 81.5 c 128,-1,33
 202 37 202 37 167 13.5 c 128,-1,34
 132 -10 132 -10 75 -10 c 0,0,1
599 106 m 1,35,-1
 651 106 l 2,36,37
 724 106 724 106 763.5 132.5 c 128,-1,38
 803 159 803 159 803 218 c 0,39,40
 803 280 803 280 760.5 301.5 c 128,-1,41
 718 323 718 323 639 323 c 2,42,-1
 599 323 l 1,43,-1
 599 106 l 1,35,-1
EndSplineSet
EndChar

StartChar: afii10059
Encoding: 1034 1034 420
Width: 985
GlyphClass: 2
Flags: W
AnchorPoint: "Anchor-2" 493 714 basechar 0
AnchorPoint: "Anchor-0" 493 0 basechar 0
LayerCount: 2
Fore
SplineSet
93 0 m 1,0,-1
 93 714 l 1,1,-1
 221 714 l 1,2,-1
 221 426 l 1,3,-1
 481 426 l 1,4,-1
 481 714 l 1,5,-1
 610 714 l 1,6,-1
 610 429 l 1,7,-1
 666 429 l 2,8,9
 765 429 765 429 826 401.5 c 128,-1,10
 887 374 887 374 915 326 c 128,-1,11
 943 278 943 278 943 218 c 0,12,13
 943 116 943 116 876.5 58 c 128,-1,14
 810 0 810 0 667 0 c 2,15,-1
 481 0 l 1,16,-1
 481 317 l 1,17,-1
 221 317 l 1,18,-1
 221 0 l 1,19,-1
 93 0 l 1,0,-1
610 106 m 1,20,-1
 662 106 l 2,21,22
 735 106 735 106 774 132.5 c 128,-1,23
 813 159 813 159 813 218 c 0,24,25
 813 280 813 280 770.5 301.5 c 128,-1,26
 728 323 728 323 649 323 c 2,27,-1
 610 323 l 1,28,-1
 610 106 l 1,20,-1
EndSplineSet
EndChar

StartChar: afii10060
Encoding: 1035 1035 421
Width: 781
GlyphClass: 2
Flags: W
AnchorPoint: "Anchor-2" 391 714 basechar 0
AnchorPoint: "Anchor-0" 391 0 basechar 0
LayerCount: 2
Fore
SplineSet
544 714 m 1,0,-1
 544 605 l 1,1,-1
 318 605 l 1,2,-1
 318 448 l 1,3,-1
 508 448 l 2,4,5
 608 448 608 448 664 399 c 128,-1,6
 720 350 720 350 720 260 c 2,7,-1
 720 0 l 1,8,-1
 592 0 l 1,9,-1
 592 249 l 2,10,11
 592 298 592 298 571 319 c 128,-1,12
 550 340 550 340 500 340 c 2,13,-1
 318 340 l 1,14,-1
 318 0 l 1,15,-1
 190 0 l 1,16,-1
 190 605 l 1,17,-1
 16 605 l 1,18,-1
 16 714 l 1,19,-1
 544 714 l 1,0,-1
EndSplineSet
EndChar

StartChar: afii10145
Encoding: 1039 1039 424
Width: 740
GlyphClass: 2
Flags: W
AnchorPoint: "Anchor-2" 370 714 basechar 0
AnchorPoint: "Anchor-0" 370 -200 basechar 0
LayerCount: 2
Fore
SplineSet
647 0 m 1,0,-1
 432 0 l 1,1,-1
 432 -200 l 1,2,-1
 306 -200 l 1,3,-1
 306 0 l 1,4,-1
 93 0 l 1,5,-1
 93 714 l 1,6,-1
 221 714 l 1,7,-1
 221 109 l 1,8,-1
 519 109 l 1,9,-1
 519 714 l 1,10,-1
 647 714 l 1,11,-1
 647 0 l 1,0,-1
EndSplineSet
EndChar

StartChar: afii10018
Encoding: 1041 1041 426
Width: 629
GlyphClass: 2
Flags: W
AnchorPoint: "Anchor-2" 315 714 basechar 0
AnchorPoint: "Anchor-0" 315 0 basechar 0
LayerCount: 2
Fore
SplineSet
93 0 m 1,0,-1
 93 714 l 1,1,-1
 533 714 l 1,2,-1
 533 606 l 1,3,-1
 221 606 l 1,4,-1
 221 429 l 1,5,-1
 298 429 l 2,6,7
 401 429 401 429 463.5 401.5 c 128,-1,8
 526 374 526 374 554 326.5 c 128,-1,9
 582 279 582 279 582 218 c 0,10,11
 582 114 582 114 516 57 c 128,-1,12
 450 0 450 0 301 0 c 2,13,-1
 93 0 l 1,0,-1
221 106 m 1,14,-1
 294 106 l 2,15,16
 373 106 373 106 412.5 132.5 c 128,-1,17
 452 159 452 159 452 218 c 0,18,19
 452 280 452 280 409 301.5 c 128,-1,20
 366 323 366 323 281 323 c 2,21,-1
 221 323 l 1,22,-1
 221 106 l 1,14,-1
EndSplineSet
EndChar

StartChar: afii10021
Encoding: 1044 1044 429
Width: 736
GlyphClass: 2
Flags: W
AnchorPoint: "Anchor-2" 368 714 basechar 0
AnchorPoint: "Anchor-0" 368 -200 basechar 0
LayerCount: 2
Fore
SplineSet
622 714 m 1,0,-1
 622 109 l 1,1,-1
 716 109 l 1,2,-1
 716 -200 l 1,3,-1
 592 -200 l 1,4,-1
 592 0 l 1,5,-1
 129 0 l 1,6,-1
 129 -200 l 1,7,-1
 5 -200 l 1,8,-1
 5 109 l 1,9,-1
 60 109 l 1,10,11
 123 225 123 225 171.5 378 c 128,-1,12
 220 531 220 531 239 714 c 1,13,-1
 622 714 l 1,0,-1
495 605 m 1,14,-1
 343 605 l 1,15,16
 337 551 337 551 323.5 487 c 128,-1,17
 310 423 310 423 290 356.5 c 128,-1,18
 270 290 270 290 246 226.5 c 128,-1,19
 222 163 222 163 195 109 c 1,20,-1
 495 109 l 1,21,-1
 495 605 l 1,14,-1
EndSplineSet
EndChar

StartChar: afii10024
Encoding: 1046 1046 431
Width: 909
GlyphClass: 2
Flags: W
AnchorPoint: "Anchor-2" 455 714 basechar 0
AnchorPoint: "Anchor-0" 455 0 basechar 0
LayerCount: 2
Fore
SplineSet
267 369 m 1,0,-1
 13 714 l 1,1,-1
 148 714 l 1,2,-1
 395 368 l 1,3,-1
 395 714 l 1,4,-1
 515 714 l 1,5,-1
 515 368 l 1,6,-1
 762 714 l 1,7,-1
 897 714 l 1,8,-1
 643 370 l 1,9,-1
 909 0 l 1,10,-1
 769 0 l 1,11,-1
 515 362 l 1,12,-1
 515 0 l 1,13,-1
 395 0 l 1,14,-1
 395 362 l 1,15,-1
 140 0 l 1,16,-1
 0 0 l 1,17,-1
 267 369 l 1,0,-1
EndSplineSet
EndChar

StartChar: afii10025
Encoding: 1047 1047 432
Width: 625
GlyphClass: 2
Flags: W
AnchorPoint: "Anchor-2" 310 714 basechar 0
AnchorPoint: "Anchor-0" 313 0 basechar 0
LayerCount: 2
Fore
SplineSet
559 547 m 0,0,1
 559 475 559 475 510 431.5 c 128,-1,2
 461 388 461 388 382 376 c 1,3,-1
 382 373 l 1,4,5
 477 362 477 362 527.5 318 c 128,-1,6
 578 274 578 274 578 203 c 0,7,8
 578 108 578 108 503 49 c 128,-1,9
 428 -10 428 -10 282 -10 c 0,10,11
 210 -10 210 -10 151 -0.5 c 128,-1,12
 92 9 92 9 47 29 c 1,13,-1
 47 139 l 1,14,15
 94 116 94 116 153.5 104 c 128,-1,16
 213 92 213 92 264 92 c 0,17,18
 358 92 358 92 403.5 123 c 128,-1,19
 449 154 449 154 449 209 c 0,20,21
 449 267 449 267 388.5 293.5 c 128,-1,22
 328 320 328 320 224 320 c 2,23,-1
 144 320 l 1,24,-1
 144 421 l 1,25,-1
 217 421 l 2,26,27
 337 421 337 421 384.5 450 c 128,-1,28
 432 479 432 479 432 529 c 0,29,30
 432 572 432 572 397 596.5 c 128,-1,31
 362 621 362 621 297 621 c 0,32,33
 237 621 237 621 190 604.5 c 128,-1,34
 143 588 143 588 101 562 c 1,35,-1
 44 648 l 1,36,37
 94 682 94 682 159 703 c 128,-1,38
 224 724 224 724 310 724 c 0,39,40
 429 724 429 724 494 674 c 128,-1,41
 559 624 559 624 559 547 c 0,0,1
EndSplineSet
EndChar

StartChar: afii10026
Encoding: 1048 1048 433
Width: 802
GlyphClass: 2
Flags: W
AnchorPoint: "Anchor-2" 413 714 basechar 0
AnchorPoint: "Anchor-0" 401 0 basechar 0
LayerCount: 2
Fore
SplineSet
93 714 m 1,0,-1
 209 714 l 1,1,-1
 209 351 l 2,2,3
 209 318 209 318 208 276.5 c 128,-1,4
 207 235 207 235 205.5 200.5 c 128,-1,5
 204 166 204 166 202 154 c 1,6,-1
 206 154 l 1,7,-1
 560 714 l 1,8,-1
 710 714 l 1,9,-1
 710 0 l 1,10,-1
 594 0 l 1,11,-1
 594 360 l 2,12,13
 594 396 594 396 596 439.5 c 128,-1,14
 598 483 598 483 600 518 c 128,-1,15
 602 553 602 553 603 565 c 1,16,-1
 599 565 l 1,17,-1
 244 0 l 1,18,-1
 93 0 l 1,19,-1
 93 714 l 1,0,-1
EndSplineSet
EndChar

StartChar: afii10028
Encoding: 1050 1050 435
Width: 652
GlyphClass: 2
Flags: W
AnchorPoint: "Anchor-2" 354 714 basechar 0
AnchorPoint: "Anchor-0" 326 0 basechar 0
LayerCount: 2
Fore
SplineSet
652 0 m 1,0,-1
 504 0 l 1,1,-1
 221 362 l 1,2,-1
 221 0 l 1,3,-1
 93 0 l 1,4,-1
 93 714 l 1,5,-1
 221 714 l 1,6,-1
 221 368 l 1,7,-1
 499 714 l 1,8,-1
 638 714 l 1,9,-1
 359 369 l 1,10,-1
 652 0 l 1,0,-1
EndSplineSet
EndChar

StartChar: afii10029
Encoding: 1051 1051 436
Width: 731
GlyphClass: 2
Flags: W
AnchorPoint: "Anchor-2" 366 714 basechar 0
AnchorPoint: "Anchor-0" 366 0 basechar 0
LayerCount: 2
Fore
SplineSet
638 0 m 1,0,-1
 510 0 l 1,1,-1
 510 606 l 1,2,-1
 316 606 l 1,3,4
 310 556 310 556 303 499.5 c 128,-1,5
 296 443 296 443 288 386.5 c 128,-1,6
 280 330 280 330 272 279.5 c 128,-1,7
 264 229 264 229 256 191 c 0,8,9
 243 126 243 126 222.5 81.5 c 128,-1,10
 202 37 202 37 167 13.5 c 128,-1,11
 132 -10 132 -10 75 -10 c 0,12,13
 36 -10 36 -10 5 1 c 1,14,-1
 5 107 l 1,15,16
 18 102 18 102 31 99 c 128,-1,17
 44 96 44 96 59 96 c 0,18,19
 94 96 94 96 110.5 134 c 128,-1,20
 127 172 127 172 141 246 c 0,21,22
 148 280 148 280 159 350 c 128,-1,23
 170 420 170 420 183.5 514 c 128,-1,24
 197 608 197 608 210 714 c 1,25,-1
 638 714 l 1,26,-1
 638 0 l 1,0,-1
EndSplineSet
EndChar

StartChar: afii10037
Encoding: 1059 1059 444
Width: 648
GlyphClass: 2
Flags: W
AnchorPoint: "Anchor-2" 333 714 basechar 0
AnchorPoint: "Anchor-0" 324 0 basechar 0
LayerCount: 2
Fore
SplineSet
648 714 m 1,0,-1
 425 207 l 2,1,2
 394 137 394 137 361 88.5 c 128,-1,3
 328 40 328 40 279 15 c 128,-1,4
 230 -10 230 -10 152 -10 c 0,5,6
 125 -10 125 -10 96.5 -6 c 128,-1,7
 68 -2 68 -2 44 5 c 1,8,-1
 44 120 l 1,9,10
 66 110 66 110 93 105.5 c 128,-1,11
 120 101 120 101 145 101 c 0,12,13
 197 101 197 101 223 125 c 128,-1,14
 249 149 249 149 268 194 c 1,15,-1
 10 714 l 1,16,-1
 147 714 l 1,17,-1
 305 373 l 2,18,19
 312 360 312 360 322 337 c 128,-1,20
 332 314 332 314 337 297 c 1,21,-1
 342 297 l 1,22,23
 347 312 347 312 356.5 336 c 128,-1,24
 366 360 366 360 373 378 c 2,25,-1
 515 714 l 1,26,-1
 648 714 l 1,0,-1
EndSplineSet
EndChar

StartChar: afii10040
Encoding: 1062 1062 447
Width: 766
GlyphClass: 2
Flags: W
AnchorPoint: "Anchor-2" 383 714 basechar 0
AnchorPoint: "Anchor-0" 383 -200 basechar 0
LayerCount: 2
Fore
SplineSet
746 105 m 1,0,-1
 746 -200 l 1,1,-1
 622 -200 l 1,2,-1
 622 0 l 1,3,-1
 93 0 l 1,4,-1
 93 714 l 1,5,-1
 221 714 l 1,6,-1
 221 109 l 1,7,-1
 519 109 l 1,8,-1
 519 714 l 1,9,-1
 647 714 l 1,10,-1
 647 105 l 1,11,-1
 746 105 l 1,0,-1
EndSplineSet
EndChar

StartChar: afii10041
Encoding: 1063 1063 448
Width: 717
GlyphClass: 2
Flags: W
AnchorPoint: "Anchor-2" 342 714 basechar 0
AnchorPoint: "Anchor-0" 358 0 basechar 0
LayerCount: 2
Fore
SplineSet
624 0 m 1,0,-1
 496 0 l 1,1,-1
 496 282 l 1,2,3
 435 261 435 261 383 249.5 c 128,-1,4
 331 238 331 238 275 238 c 0,5,6
 174 238 174 238 118.5 286 c 128,-1,7
 63 334 63 334 63 423 c 2,8,-1
 63 714 l 1,9,-1
 191 714 l 1,10,-1
 191 454 l 2,11,12
 191 400 191 400 217.5 373 c 128,-1,13
 244 346 244 346 305 346 c 0,14,15
 354 346 354 346 397.5 355.5 c 128,-1,16
 441 365 441 365 496 384 c 1,17,-1
 496 714 l 1,18,-1
 624 714 l 1,19,-1
 624 0 l 1,0,-1
EndSplineSet
EndChar

StartChar: afii10042
Encoding: 1064 1064 449
Width: 1063
GlyphClass: 2
Flags: W
AnchorPoint: "Anchor-2" 531 714 basechar 0
AnchorPoint: "Anchor-0" 531 0 basechar 0
LayerCount: 2
Fore
SplineSet
970 0 m 1,0,-1
 93 0 l 1,1,-1
 93 714 l 1,2,-1
 221 714 l 1,3,-1
 221 109 l 1,4,-1
 466 109 l 1,5,-1
 466 714 l 1,6,-1
 595 714 l 1,7,-1
 595 109 l 1,8,-1
 841 109 l 1,9,-1
 841 714 l 1,10,-1
 970 714 l 1,11,-1
 970 0 l 1,0,-1
EndSplineSet
EndChar

StartChar: afii10043
Encoding: 1065 1065 450
Width: 1086
GlyphClass: 2
Flags: W
AnchorPoint: "Anchor-2" 543 714 basechar 0
AnchorPoint: "Anchor-0" 543 0 basechar 0
LayerCount: 2
Fore
SplineSet
1063 105 m 1,0,-1
 1063 -200 l 1,1,-1
 939 -200 l 1,2,-1
 939 0 l 1,3,-1
 93 0 l 1,4,-1
 93 714 l 1,5,-1
 221 714 l 1,6,-1
 221 109 l 1,7,-1
 464 109 l 1,8,-1
 464 714 l 1,9,-1
 593 714 l 1,10,-1
 593 109 l 1,11,-1
 836 109 l 1,12,-1
 836 714 l 1,13,-1
 964 714 l 1,14,-1
 964 105 l 1,15,-1
 1063 105 l 1,0,-1
EndSplineSet
EndChar

StartChar: afii10044
Encoding: 1066 1066 451
Width: 714
GlyphClass: 2
Flags: W
AnchorPoint: "Anchor-2" 357 714 basechar 0
AnchorPoint: "Anchor-0" 357 0 basechar 0
LayerCount: 2
Fore
SplineSet
177 0 m 1,0,-1
 177 606 l 1,1,-1
 3 606 l 1,2,-1
 3 714 l 1,3,-1
 305 714 l 1,4,-1
 305 429 l 1,5,-1
 385 429 l 2,6,7
 485 429 485 429 547 401.5 c 128,-1,8
 609 374 609 374 638 326 c 128,-1,9
 667 278 667 278 667 218 c 0,10,11
 667 116 667 116 599.5 58 c 128,-1,12
 532 0 532 0 387 0 c 2,13,-1
 177 0 l 1,0,-1
305 106 m 1,14,-1
 380 106 l 2,15,16
 456 106 456 106 496 132.5 c 128,-1,17
 536 159 536 159 536 218 c 0,18,19
 536 280 536 280 492.5 301.5 c 128,-1,20
 449 323 449 323 367 323 c 2,21,-1
 305 323 l 1,22,-1
 305 106 l 1,14,-1
EndSplineSet
EndChar

StartChar: afii10045
Encoding: 1067 1067 452
Width: 888
GlyphClass: 2
Flags: W
AnchorPoint: "Anchor-2" 444 714 basechar 0
AnchorPoint: "Anchor-0" 444 0 basechar 0
LayerCount: 2
Fore
SplineSet
93 0 m 1,0,-1
 93 714 l 1,1,-1
 221 714 l 1,2,-1
 221 429 l 1,3,-1
 293 429 l 2,4,5
 392 429 392 429 453.5 401.5 c 128,-1,6
 515 374 515 374 543.5 326 c 128,-1,7
 572 278 572 278 572 218 c 0,8,9
 572 116 572 116 505.5 58 c 128,-1,10
 439 0 439 0 294 0 c 2,11,-1
 93 0 l 1,0,-1
667 0 m 1,12,-1
 667 714 l 1,13,-1
 795 714 l 1,14,-1
 795 0 l 1,15,-1
 667 0 l 1,12,-1
221 106 m 1,16,-1
 288 106 l 2,17,18
 362 106 362 106 401.5 132.5 c 128,-1,19
 441 159 441 159 441 218 c 0,20,21
 441 280 441 280 399.5 301 c 128,-1,22
 358 322 358 322 279 322 c 2,23,-1
 221 322 l 1,24,-1
 221 106 l 1,16,-1
EndSplineSet
EndChar

StartChar: afii10046
Encoding: 1068 1068 453
Width: 640
GlyphClass: 2
Flags: W
AnchorPoint: "Anchor-2" 320 714 basechar 0
AnchorPoint: "Anchor-0" 320 0 basechar 0
LayerCount: 2
Fore
SplineSet
93 0 m 1,0,-1
 93 714 l 1,1,-1
 221 714 l 1,2,-1
 221 429 l 1,3,-1
 309 429 l 2,4,5
 409 429 409 429 471.5 401.5 c 128,-1,6
 534 374 534 374 563 326 c 128,-1,7
 592 278 592 278 592 218 c 0,8,9
 592 116 592 116 524 58 c 128,-1,10
 456 0 456 0 311 0 c 2,11,-1
 93 0 l 1,0,-1
221 106 m 1,12,-1
 304 106 l 2,13,14
 380 106 380 106 421 132.5 c 128,-1,15
 462 159 462 159 462 218 c 0,16,17
 462 280 462 280 417 301.5 c 128,-1,18
 372 323 372 323 291 323 c 2,19,-1
 221 323 l 1,20,-1
 221 106 l 1,12,-1
EndSplineSet
EndChar

StartChar: afii10047
Encoding: 1069 1069 454
Width: 652
GlyphClass: 2
Flags: W
AnchorPoint: "Anchor-2" 259 714 basechar 0
AnchorPoint: "Anchor-0" 326 0 basechar 0
LayerCount: 2
Fore
SplineSet
256 616 m 0,0,1
 207 616 207 616 162.5 603 c 128,-1,2
 118 590 118 590 77 573 c 1,3,-1
 33 677 l 1,4,5
 81 700 81 700 138 712 c 128,-1,6
 195 724 195 724 258 724 c 0,7,8
 366 724 366 724 440.5 679.5 c 128,-1,9
 515 635 515 635 553.5 553.5 c 128,-1,10
 592 472 592 472 592 361 c 0,11,12
 592 248 592 248 554.5 165 c 128,-1,13
 517 82 517 82 440.5 36 c 128,-1,14
 364 -10 364 -10 247 -10 c 0,15,16
 185 -10 185 -10 138 -2 c 128,-1,17
 91 6 91 6 43 24 c 1,18,-1
 43 133 l 1,19,20
 95 117 95 117 141.5 107.5 c 128,-1,21
 188 98 188 98 236 98 c 0,22,23
 342 98 342 98 397.5 152.5 c 128,-1,24
 453 207 453 207 457 312 c 1,25,-1
 133 312 l 1,26,-1
 133 419 l 1,27,-1
 456 419 l 1,28,29
 451 512 451 512 397 564 c 128,-1,30
 343 616 343 616 256 616 c 0,0,1
EndSplineSet
EndChar

StartChar: afii10048
Encoding: 1070 1070 455
Width: 1063
GlyphClass: 2
Flags: W
AnchorPoint: "Anchor-2" 532 714 basechar 0
AnchorPoint: "Anchor-0" 532 0 basechar 0
LayerCount: 2
Fore
SplineSet
1004 358 m 256,0,1
 1004 247 1004 247 969 164.5 c 128,-1,2
 934 82 934 82 864 36 c 128,-1,3
 794 -10 794 -10 687 -10 c 0,4,5
 586 -10 586 -10 517.5 30.5 c 128,-1,6
 449 71 449 71 412.5 144.5 c 128,-1,7
 376 218 376 218 370 317 c 1,8,-1
 221 317 l 1,9,-1
 221 0 l 1,10,-1
 93 0 l 1,11,-1
 93 714 l 1,12,-1
 221 714 l 1,13,-1
 221 426 l 1,14,-1
 372 426 l 1,15,16
 386 562 386 562 464 643.5 c 128,-1,17
 542 725 542 725 687 725 c 0,18,19
 793 725 793 725 863.5 679.5 c 128,-1,20
 934 634 934 634 969 551.5 c 128,-1,21
 1004 469 1004 469 1004 358 c 256,0,1
502 358 m 256,22,23
 502 237 502 237 546.5 168 c 128,-1,24
 591 99 591 99 686 99 c 0,25,26
 784 99 784 99 827.5 168 c 128,-1,27
 871 237 871 237 871 358 c 256,28,29
 871 479 871 479 827.5 548 c 128,-1,30
 784 617 784 617 688 617 c 0,31,32
 591 617 591 617 546.5 548 c 128,-1,33
 502 479 502 479 502 358 c 256,22,23
EndSplineSet
EndChar

StartChar: afii10049
Encoding: 1071 1071 456
Width: 655
GlyphClass: 2
Flags: W
AnchorPoint: "Anchor-2" 328 714 basechar 0
AnchorPoint: "Anchor-0" 328 0 basechar 0
LayerCount: 2
Fore
SplineSet
323 282 m 1,0,-1
 149 0 l 1,1,-1
 5 0 l 1,2,-1
 207 313 l 1,3,4
 174 326 174 326 143.5 349 c 128,-1,5
 113 372 113 372 93.5 412 c 128,-1,6
 74 452 74 452 74 512 c 0,7,8
 74 610 74 610 143 662 c 128,-1,9
 212 714 212 714 343 714 c 2,10,-1
 563 714 l 1,11,-1
 563 0 l 1,12,-1
 435 0 l 1,13,-1
 435 282 l 1,14,-1
 323 282 l 1,0,-1
435 608 m 1,15,-1
 347 608 l 2,16,17
 279 608 279 608 241.5 583.5 c 128,-1,18
 204 559 204 559 204 503 c 0,19,20
 204 449 204 449 240 418.5 c 128,-1,21
 276 388 276 388 351 388 c 2,22,-1
 435 388 l 1,23,-1
 435 608 l 1,15,-1
EndSplineSet
EndChar

StartChar: afii10066
Encoding: 1073 1073 458
Width: 613
GlyphClass: 2
Flags: W
AnchorPoint: "Anchor-2" 307 765 basechar 0
AnchorPoint: "Anchor-0" 307 0 basechar 0
LayerCount: 2
Fore
SplineSet
50 325 m 0,0,1
 50 504 50 504 112.5 603.5 c 128,-1,2
 175 703 175 703 318 730 c 0,3,4
 375 740 375 740 432.5 748.5 c 128,-1,5
 490 757 490 757 546 765 c 1,6,-1
 563 655 l 1,7,8
 528 650 528 650 486 644.5 c 128,-1,9
 444 639 444 639 403 633 c 128,-1,10
 362 627 362 627 332 622 c 0,11,12
 284 614 284 614 251.5 593.5 c 128,-1,13
 219 573 219 573 201.5 532 c 128,-1,14
 184 491 184 491 180 421 c 1,15,-1
 187 421 l 1,16,17
 200 440 200 440 222.5 459 c 128,-1,18
 245 478 245 478 277.5 491.5 c 128,-1,19
 310 505 310 505 353 505 c 0,20,21
 453 505 453 505 509 442.5 c 128,-1,22
 565 380 565 380 565 265 c 0,23,24
 565 174 565 174 532 112.5 c 128,-1,25
 499 51 499 51 440.5 20.5 c 128,-1,26
 382 -10 382 -10 306 -10 c 0,27,28
 189 -10 189 -10 119.5 76 c 128,-1,29
 50 162 50 162 50 325 c 0,0,1
314 93 m 0,30,31
 369 93 369 93 402 129 c 128,-1,32
 435 165 435 165 435 254 c 0,33,34
 435 325 435 325 410 367 c 128,-1,35
 385 409 385 409 326 409 c 0,36,37
 290 409 290 409 259 392 c 128,-1,38
 228 375 228 375 207 353.5 c 128,-1,39
 186 332 186 332 178 317 c 1,40,41
 178 260 178 260 189.5 209 c 128,-1,42
 201 158 201 158 230.5 125.5 c 128,-1,43
 260 93 260 93 314 93 c 0,30,31
EndSplineSet
Substitution2: "'locl' Localized Forms in Cyrillic lookup 17 subtable" afii10066.loclSRB
EndChar

StartChar: afii10067
Encoding: 1074 1074 459
Width: 609
GlyphClass: 2
Flags: W
AnchorPoint: "Anchor-2" 305 542 basechar 0
AnchorPoint: "Anchor-0" 305 0 basechar 0
LayerCount: 2
Fore
SplineSet
545 402 m 0,0,1
 545 356 545 356 516.5 326 c 128,-1,2
 488 296 488 296 436 287 c 1,3,-1
 436 283 l 1,4,5
 491 276 491 276 526.5 245 c 128,-1,6
 562 214 562 214 562 161 c 0,7,8
 562 91 562 91 508 45.5 c 128,-1,9
 454 0 454 0 330 0 c 2,10,-1
 81 0 l 1,11,-1
 81 542 l 1,12,-1
 329 542 l 2,13,14
 390 542 390 542 439 529 c 128,-1,15
 488 516 488 516 516.5 485 c 128,-1,16
 545 454 545 454 545 402 c 0,0,1
417 391 m 0,17,18
 417 449 417 449 324 449 c 2,19,-1
 207 449 l 1,20,-1
 207 327 l 1,21,-1
 307 327 l 2,22,23
 361 327 361 327 389 342 c 128,-1,24
 417 357 417 357 417 391 c 0,17,18
431 166 m 0,25,26
 431 204 431 204 402 220 c 128,-1,27
 373 236 373 236 317 236 c 2,28,-1
 207 236 l 1,29,-1
 207 91 l 1,30,-1
 320 91 l 2,31,32
 371 91 371 91 401 108 c 128,-1,33
 431 125 431 125 431 166 c 0,25,26
EndSplineSet
EndChar

StartChar: afii10068
Encoding: 1075 1075 460
Width: 461
GlyphClass: 2
Flags: W
AnchorPoint: "Anchor-2" 265 542 basechar 0
AnchorPoint: "Anchor-0" 231 0 basechar 0
LayerCount: 2
Fore
SplineSet
439 542 m 1,0,-1
 439 445 l 1,1,-1
 207 445 l 1,2,-1
 207 0 l 1,3,-1
 81 0 l 1,4,-1
 81 542 l 1,5,-1
 439 542 l 1,0,-1
EndSplineSet
EndChar

StartChar: afii10069
Encoding: 1076 1076 461
Width: 633
GlyphClass: 2
Flags: W
AnchorPoint: "Anchor-2" 317 542 basechar 0
AnchorPoint: "Anchor-0" 317 -192 basechar 0
LayerCount: 2
Fore
SplineSet
537 542 m 1,0,-1
 537 96 l 1,1,-1
 616 96 l 1,2,-1
 616 -192 l 1,3,-1
 500 -192 l 1,4,-1
 500 0 l 1,5,-1
 131 0 l 1,6,-1
 131 -192 l 1,7,-1
 16 -192 l 1,8,-1
 16 96 l 1,9,-1
 61 96 l 1,10,11
 120 183 120 183 151 301 c 128,-1,12
 182 419 182 419 190 542 c 1,13,-1
 537 542 l 1,0,-1
412 446 m 1,14,-1
 297 446 l 1,15,16
 287 352 287 352 261.5 259.5 c 128,-1,17
 236 167 236 167 192 96 c 1,18,-1
 412 96 l 1,19,-1
 412 446 l 1,14,-1
EndSplineSet
EndChar

StartChar: afii10072
Encoding: 1078 1078 463
Width: 827
GlyphClass: 2
Flags: W
AnchorPoint: "Anchor-2" 412 542 basechar 0
AnchorPoint: "Anchor-0" 414 0 basechar 0
LayerCount: 2
Fore
SplineSet
806 542 m 1,0,-1
 598 281 l 1,1,-1
 825 0 l 1,2,-1
 689 0 l 1,3,-1
 472 275 l 1,4,-1
 472 0 l 1,5,-1
 354 0 l 1,6,-1
 354 275 l 1,7,-1
 137 0 l 1,8,-1
 0 0 l 1,9,-1
 228 281 l 1,10,-1
 19 542 l 1,11,-1
 152 542 l 1,12,-1
 354 279 l 1,13,-1
 354 542 l 1,14,-1
 472 542 l 1,15,-1
 472 279 l 1,16,-1
 675 542 l 1,17,-1
 806 542 l 1,0,-1
EndSplineSet
EndChar

StartChar: afii10073
Encoding: 1079 1079 464
Width: 530
GlyphClass: 2
Flags: W
AnchorPoint: "Anchor-2" 259 542 basechar 0
AnchorPoint: "Anchor-0" 266 0 basechar 0
LayerCount: 2
Fore
SplineSet
258 552 m 0,0,1
 318 552 318 552 367 536 c 128,-1,2
 416 520 416 520 445 488.5 c 128,-1,3
 474 457 474 457 474 409 c 0,4,5
 474 360 474 360 445 331 c 128,-1,6
 416 302 416 302 368 289 c 1,7,-1
 368 284 l 1,8,9
 402 276 402 276 429.5 261 c 128,-1,10
 457 246 457 246 473.5 221 c 128,-1,11
 490 196 490 196 490 155 c 0,12,13
 490 110 490 110 462.5 72.5 c 128,-1,14
 435 35 435 35 379 12.5 c 128,-1,15
 323 -10 323 -10 236 -10 c 0,16,17
 173 -10 173 -10 121.5 -1 c 128,-1,18
 70 8 70 8 36 24 c 1,19,-1
 36 131 l 1,20,21
 70 115 70 115 118 102 c 128,-1,22
 166 89 166 89 222 89 c 0,23,24
 283 89 283 89 325 105.5 c 128,-1,25
 367 122 367 122 367 162 c 0,26,27
 367 237 367 237 212 237 c 2,28,-1
 149 237 l 1,29,-1
 149 328 l 1,30,-1
 205 328 l 2,31,32
 278 328 278 328 318.5 342.5 c 128,-1,33
 359 357 359 357 359 395 c 0,34,35
 359 426 359 426 331 441 c 128,-1,36
 303 456 303 456 244 456 c 0,37,38
 203 456 203 456 161.5 447 c 128,-1,39
 120 438 120 438 80 422 c 1,40,-1
 41 513 l 1,41,42
 87 531 87 531 139 541.5 c 128,-1,43
 191 552 191 552 258 552 c 0,0,1
EndSplineSet
EndChar

StartChar: afii10074
Encoding: 1080 1080 465
Width: 691
GlyphClass: 2
Flags: W
AnchorPoint: "Anchor-2" 349 542 basechar 0
AnchorPoint: "Anchor-0" 346 0 basechar 0
LayerCount: 2
Fore
SplineSet
202 542 m 1,0,-1
 202 284 l 2,1,2
 202 266 202 266 200 234.5 c 128,-1,3
 198 203 198 203 196 174.5 c 128,-1,4
 194 146 194 146 193 134 c 1,5,-1
 458 542 l 1,6,-1
 610 542 l 1,7,-1
 610 0 l 1,8,-1
 489 0 l 1,9,-1
 489 255 l 2,10,11
 489 278 489 278 490.5 308 c 128,-1,12
 492 338 492 338 494 365 c 128,-1,13
 496 392 496 392 497 407 c 1,14,-1
 233 0 l 1,15,-1
 81 0 l 1,16,-1
 81 542 l 1,17,-1
 202 542 l 1,0,-1
EndSplineSet
EndChar

StartChar: afii10076
Encoding: 1082 1082 467
Width: 585
GlyphClass: 2
Flags: W
AnchorPoint: "Anchor-2" 310 542 basechar 0
AnchorPoint: "Anchor-0" 293 0 basechar 0
LayerCount: 2
Fore
SplineSet
423 542 m 1,0,-1
 562 542 l 1,1,-1
 341 282 l 1,2,-1
 581 0 l 1,3,-1
 437 0 l 1,4,-1
 207 275 l 1,5,-1
 207 0 l 1,6,-1
 81 0 l 1,7,-1
 81 542 l 1,8,-1
 207 542 l 1,9,-1
 207 279 l 1,10,-1
 423 542 l 1,0,-1
EndSplineSet
EndChar

StartChar: afii10077
Encoding: 1083 1083 468
Width: 620
GlyphClass: 2
Flags: W
AnchorPoint: "Anchor-2" 310 542 basechar 0
AnchorPoint: "Anchor-0" 310 0 basechar 0
LayerCount: 2
Fore
SplineSet
539 0 m 1,0,-1
 413 0 l 1,1,-1
 413 445 l 1,2,-1
 268 445 l 1,3,4
 254 282 254 282 232 182 c 128,-1,5
 210 82 210 82 172 36.5 c 128,-1,6
 134 -9 134 -9 73 -9 c 0,7,8
 29 -9 29 -9 3 4 c 1,9,-1
 3 103 l 1,10,11
 21 95 21 95 43 95 c 0,12,13
 64 95 64 95 81.5 117 c 128,-1,14
 99 139 99 139 113.5 190 c 128,-1,15
 128 241 128 241 139.5 327.5 c 128,-1,16
 151 414 151 414 160 542 c 1,17,-1
 539 542 l 1,18,-1
 539 0 l 1,0,-1
EndSplineSet
EndChar

StartChar: afii10078
Encoding: 1084 1084 469
Width: 807
GlyphClass: 2
Flags: W
AnchorPoint: "Anchor-2" 404 542 basechar 0
AnchorPoint: "Anchor-0" 404 0 basechar 0
LayerCount: 2
Fore
SplineSet
726 542 m 1,0,-1
 726 0 l 1,1,-1
 610 0 l 1,2,-1
 610 296 l 2,3,4
 610 328 610 328 611.5 361 c 128,-1,5
 613 394 613 394 615 422 c 1,6,-1
 612 422 l 1,7,-1
 452 0 l 1,8,-1
 355 0 l 1,9,-1
 195 422 l 1,10,-1
 192 422 l 1,11,12
 194 394 194 394 195.5 362 c 128,-1,13
 197 330 197 330 197 292 c 2,14,-1
 197 0 l 1,15,-1
 81 0 l 1,16,-1
 81 542 l 1,17,-1
 256 542 l 1,18,-1
 405 149 l 1,19,-1
 555 542 l 1,20,-1
 726 542 l 1,0,-1
EndSplineSet
EndChar

StartChar: afii10079
Encoding: 1085 1085 470
Width: 653
GlyphClass: 2
Flags: W
AnchorPoint: "Anchor-2" 326 542 basechar 0
AnchorPoint: "Anchor-0" 326 0 basechar 0
LayerCount: 2
Fore
SplineSet
207 542 m 1,0,-1
 207 327 l 1,1,-1
 446 327 l 1,2,-1
 446 542 l 1,3,-1
 572 542 l 1,4,-1
 572 0 l 1,5,-1
 446 0 l 1,6,-1
 446 230 l 1,7,-1
 207 230 l 1,8,-1
 207 0 l 1,9,-1
 81 0 l 1,10,-1
 81 542 l 1,11,-1
 207 542 l 1,0,-1
EndSplineSet
EndChar

StartChar: afii10081
Encoding: 1087 1087 472
Width: 641
GlyphClass: 2
Flags: W
AnchorPoint: "Anchor-2" 321 542 basechar 0
AnchorPoint: "Anchor-0" 321 0 basechar 0
LayerCount: 2
Fore
SplineSet
560 542 m 1,0,-1
 560 0 l 1,1,-1
 434 0 l 1,2,-1
 434 444 l 1,3,-1
 207 444 l 1,4,-1
 207 0 l 1,5,-1
 81 0 l 1,6,-1
 81 542 l 1,7,-1
 560 542 l 1,0,-1
EndSplineSet
EndChar

